{
.appVersion = "3260";
.formatVersion = 3;
DisplayStrings = (
"dđ",
E,
e,
"̧",
G,
"̦",
g,
"̒",
I,
"lĺ",
"ı",
"̄",
"̱",
i,
"īi",
"į",
K,
k,
L,
"ľ",
N,
n,
O,
"̋Ő",
o,
R,
r,
S,
"š",
s,
T,
t,
"tţ",
U,
"UŲ",
u,
"uű",
Z,
z,
"hħ",
"hħ",
"/idotaccent",
H,
"Ħ",
"hħ"
);
customParameters = (
{
name = fsType;
value = (
);
}
);
date = "2024-12-23 21:25:03 +0000";
familyName = Gunda;
featurePrefixes = (
{
automatic = 1;
code = "languagesystem DFLT dflt;

languagesystem latn dflt;
languagesystem latn NLD;
";
name = Languagesystems;
}
);
features = (
{
automatic = 1;
code = "feature sups;
feature frac;
feature salt;
feature locl;
";
tag = aalt;
},
{
automatic = 1;
code = "lookup ccmp_Other_1 {
	@CombiningTopAccents = [acutecomb brevecomb caroncomb circumflexcomb dieresiscomb dotaccentcomb gravecomb hungarumlautcomb macroncomb ringcomb tildecomb];
	lookupflag UseMarkFilteringSet @CombiningTopAccents;
	sub j' @CombiningTopAccents by jdotless;
} ccmp_Other_1;

lookup ccmp_latn_1 {
	lookupflag 0;
	sub fi by f i;
	sub fl by f l;
} ccmp_latn_1;

script latn;
lookup ccmp_latn_1;
";
tag = ccmp;
},
{
automatic = 1;
code = "sub one by onesuperior;
sub two by twosuperior;
sub three by threesuperior;
";
tag = sups;
},
{
automatic = 1;
code = "sub one slash four by onequarter;
sub one slash two by onehalf;
sub three slash four by threequarters;
";
tag = frac;
},
{
code = "lookupflag IgnoreMarks;

";
tag = dlig;
},
{
code = "lookupflag IgnoreMarks;
sub f f i by f_f_i;
sub f f l by f_f_l;
sub f f by f_f;
sub f i by fi;
sub f l by fl;
sub f f j by f_f_j;
sub f j by fj;";
tag = liga;
},
{
automatic = 1;
code = "script latn;
language NLD;
lookup locl_latn_0 {
	sub iacute j' by jacute;
	sub Iacute J' by Jacute;
} locl_latn_0;
";
tag = locl;
},
{
automatic = 1;
code = "sub a by a.salt;
sub g by g.salt;
";
tag = salt;
}
);
fontMaster = (
{
customParameters = (
{
name = typoAscender;
value = 1000;
},
{
name = typoDescender;
value = -250;
},
{
name = typoLineGap;
value = 0;
},
{

glyphs = (
{
glyphname = A;
lastChange = "2024-12-23 19:38:21 +0000";
layers = (
{
anchors = (
{
name = bottom;
pos = (268,0);
},
{
name = ogonek;
pos = (486,10);
},
{
name = top;
pos = (410,667);
}
);
layerId = "AEDC8BCA-1602-4327-8A1C-D108A778CE54";
name = Regular;
shapes = (
{
closed = 1;
nodes = (
(175,150,l),
(427,150,l),
(443,14,ls),
(444,5,o),
(450,0,o),
(459,0,cs),
(514,0,ls),
(524,0,o),
(529,6,o),
(528,16,cs),
(453,653,ls),
(452,662,o),
(446,667,o),
(437,667,cs),
(383,667,ls),
(375,667,o),
(369,664,o),
(365,656,cs),
(20,18,ls),
(14,7,o),
(19,0,o),
(30,0,cs),
(83,0,ls),
(91,0,o),
(97,3,o),
(101,11,cs)
);
},
{
closed = 1;
nodes = (
(421,220,l),
(211,220,l),
(388,557,l)
);
}
);
width = 540;
}
);
unicode = 65;
},
{
glyphname = Aacute;
layers = (
{
layerId = "AEDC8BCA-1602-4327-8A1C-D108A778CE54";
name = Regular;
shapes = (
{
closed = 1;
nodes = (
(523,860,l),
(546,795,l),
(353,700,l),
(332,752,l)
);
},
{
closed = 1;
nodes = (
(175,150,l),
(427,150,l),
(443,14,ls),
(444,5,o),
(450,0,o),
(459,0,cs),
(514,0,ls),
(524,0,o),
(529,6,o),
(528,16,cs),
(453,653,ls),
(452,662,o),
(446,667,o),
(437,667,cs),
(383,667,ls),
(375,667,o),
(369,664,o),
(365,656,cs),
(20,18,ls),
(14,7,o),
(19,0,o),
(30,0,cs),
(83,0,ls),
(91,0,o),
(97,3,o),
(101,11,cs)
);
},
{
closed = 1;
nodes = (
(421,220,l),
(211,220,l),
(388,557,l)
);
}
);
width = 540;
}
);
unicode = 193;
},
{
glyphname = Acircumflex;
layers = (
{
layerId = "AEDC8BCA-1602-4327-8A1C-D108A778CE54";
name = Regular;
shapes = (
{
closed = 1;
nodes = (
(272,714,ls),
(276,705,o),
(283,703,o),
(292,707,c),
(436,785,l),
(546,708,l),
(554,703,o),
(561,704,o),
(567,711,cs),
(588,734,ls),
(594,741,o),
(594,748,o),
(587,755,c),
(464,861,ls),
(457,867,o),
(450,868,o),
(443,863,c),
(270,752,l),
(262,748,o),
(260,741,o),
(264,732,cs)
);
},
{
closed = 1;
nodes = (
(175,150,l),
(427,150,l),
(443,14,ls),
(444,5,o),
(450,0,o),
(459,0,cs),
(514,0,ls),
(524,0,o),
(529,6,o),
(528,16,cs),
(453,653,ls),
(452,662,o),
(446,667,o),
(437,667,cs),
(383,667,ls),
(375,667,o),
(369,664,o),
(365,656,cs),
(20,18,ls),
(14,7,o),
(19,0,o),
(30,0,cs),
(83,0,ls),
(91,0,o),
(97,3,o),
(101,11,cs)
);
},
{
closed = 1;
nodes = (
(421,220,l),
(211,220,l),
(388,557,l)
);
}
);
width = 540;
}
);
unicode = 194;
},
{
glyphname = Adieresis;
layers = (
{
layerId = "AEDC8BCA-1602-4327-8A1C-D108A778CE54";
name = Regular;
shapes = (
{
closed = 1;
nodes = (
(303,721,o),
(319,700,o),
(345,700,cs),
(371,700,o),
(398,721,o),
(403,747,c),
(409,773,o),
(391,795,o),
(365,795,cs),
(339,795,o),
(314,773,o),
(308,747,c)
);
},
{
closed = 1;
nodes = (
(448,721,o),
(464,700,o),
(490,700,cs),
(516,700,o),
(543,721,o),
(548,747,c),
(554,773,o),
(536,795,o),
(510,795,cs),
(484,795,o),
(459,773,o),
(453,747,c)
);
},
{
closed = 1;
nodes = (
(175,150,l),
(427,150,l),
(443,14,ls),
(444,5,o),
(450,0,o),
(459,0,cs),
(514,0,ls),
(524,0,o),
(529,6,o),
(528,16,cs),
(453,653,ls),
(452,662,o),
(446,667,o),
(437,667,cs),
(383,667,ls),
(375,667,o),
(369,664,o),
(365,656,cs),
(20,18,ls),
(14,7,o),
(19,0,o),
(30,0,cs),
(83,0,ls),
(91,0,o),
(97,3,o),
(101,11,cs)
);
},
{
closed = 1;
nodes = (
(421,220,l),
(211,220,l),
(388,557,l)
);
}
);
width = 540;
}
);
unicode = 196;
},
{
glyphname = Agrave;
layers = (
{
layerId = "AEDC8BCA-1602-4327-8A1C-D108A778CE54";
name = Regular;
shapes = (
{
closed = 1;
nodes = (
(476,708,ls),
(484,703,o),
(491,704,o),
(497,711,c),
(523,745,ls),
(529,753,o),
(528,760,o),
(520,766,cs),
(399,856,ls),
(391,862,o),
(384,861,o),
(378,853,cs),
(346,812,ls),
(340,804,o),
(342,797,o),
(350,791,c)
);
},
{
closed = 1;
nodes = (
(175,150,l),
(427,150,l),
(443,14,ls),
(444,5,o),
(450,0,o),
(459,0,cs),
(514,0,ls),
(524,0,o),
(529,6,o),
(528,16,cs),
(453,653,ls),
(452,662,o),
(446,667,o),
(437,667,cs),
(383,667,ls),
(375,667,o),
(369,664,o),
(365,656,cs),
(20,18,ls),
(14,7,o),
(19,0,o),
(30,0,cs),
(83,0,ls),
(91,0,o),
(97,3,o),
(101,11,cs)
);
},
{
closed = 1;
nodes = (
(421,220,l),
(211,220,l),
(388,557,l)
);
}
);
width = 540;
}
);
unicode = 192;
},
{
glyphname = Aring;
layers = (
{
layerId = "AEDC8BCA-1602-4327-8A1C-D108A778CE54";
name = Regular;
shapes = (
{
closed = 1;
nodes = (
(349,729,o),
(376,695,o),
(417,695,cs),
(458,695,o),
(499,729,o),
(508,770,cs),
(517,811,o),
(490,845,o),
(449,845,cs),
(408,845,o),
(367,811,o),
(358,770,cs)
);
},
{
closed = 1;
nodes = (
(402,789,o),
(422,805,o),
(441,805,cs),
(460,805,o),
(472,789,o),
(468,770,cs),
(464,751,o),
(445,735,o),
(426,735,cs),
(407,735,o),
(394,751,o),
(398,770,cs)
);
},
{
closed = 1;
nodes = (
(175,150,l),
(427,150,l),
(443,14,ls),
(444,5,o),
(450,0,o),
(459,0,cs),
(514,0,ls),
(524,0,o),
(529,6,o),
(528,16,cs),
(453,653,ls),
(452,662,o),
(446,667,o),
(437,667,cs),
(383,667,ls),
(375,667,o),
(369,664,o),
(365,656,cs),
(20,18,ls),
(14,7,o),
(19,0,o),
(30,0,cs),
(83,0,ls),
(91,0,o),
(97,3,o),
(101,11,cs)
);
},
{
closed = 1;
nodes = (
(421,220,l),
(211,220,l),
(388,557,l)
);
}
);
width = 540;
}
);
unicode = 197;
},
{
glyphname = Atilde;
layers = (
{
layerId = "AEDC8BCA-1602-4327-8A1C-D108A778CE54";
name = Regular;
shapes = (
{
closed = 1;
nodes = (
(274,729,l),
(280,721,o),
(287,720,o),
(295,726,c),
(312,737,o),
(341,755,o),
(363,755,cs),
(429,755,o),
(418,705,o),
(486,705,cs),
(525,705,o),
(575,741,o),
(598,758,c),
(605,765,o),
(606,772,o),
(600,780,c),
(588,794,ls),
(582,801,o),
(575,802,o),
(567,796,cs),
(552,785,o),
(523,768,o),
(500,768,cs),
(432,768,o),
(441,818,o),
(376,818,cs),
(335,818,o),
(288,783,o),
(267,765,c),
(259,759,o),
(259,752,o),
(264,744,cs)
);
},
{
closed = 1;
nodes = (
(175,150,l),
(427,150,l),
(443,14,ls),
(444,5,o),
(450,0,o),
(459,0,cs),
(514,0,ls),
(524,0,o),
(529,6,o),
(528,16,cs),
(453,653,ls),
(452,662,o),
(446,667,o),
(437,667,cs),
(383,667,ls),
(375,667,o),
(369,664,o),
(365,656,cs),
(20,18,ls),
(14,7,o),
(19,0,o),
(30,0,cs),
(83,0,ls),
(91,0,o),
(97,3,o),
(101,11,cs)
);
},
{
closed = 1;
nodes = (
(421,220,l),
(211,220,l),
(388,557,l)
);
}
);
width = 540;
}
);
unicode = 195;
},
{
glyphname = AE;
layers = (
{
layerId = "AEDC8BCA-1602-4327-8A1C-D108A778CE54";
name = Regular;
shapes = (
{
closed = 1;
nodes = (
(188,150,l),
(381,150,l),
(353,16,ls),
(351,6,o),
(356,0,o),
(367,0,cs),
(701,0,ls),
(710,0,o),
(716,4,o),
(718,13,cs),
(727,59,ls),
(729,69,o),
(724,75,o),
(713,75,cs),
(445,75,l),
(494,305,l),
(691,305,ls),
(700,305,o),
(706,309,o),
(709,317,cs),
(728,363,ls),
(732,373,o),
(727,380,o),
(716,380,cs),
(510,380,l),
(554,587,l),
(820,587,ls),
(829,587,o),
(835,591,o),
(837,600,cs),
(847,651,l),
(850,661,o),
(845,667,o),
(834,667,cs),
(458,666,ls),
(450,666,o),
(444,663,o),
(440,656,c),
(22,18,ls),
(15,8,o),
(19,0,o),
(32,0,cs),
(83,0,ls),
(91,0,o),
(97,3,o),
(101,10,c)
);
},
{
closed = 1;
nodes = (
(396,220,l),
(230,220,l),
(474,587,l)
);
}
);
width = 755;
}
);
unicode = 198;
},
{
glyphname = B;
layers = (
{
layerId = "AEDC8BCA-1602-4327-8A1C-D108A778CE54";
name = Regular;
shapes = (
{
closed = 1;
nodes = (
(265,-10,ls),
(472,-10,o),
(541,85,o),
(563,190,cs),
(579,265,o),
(556,323,o),
(466,348,c),
(531,373,o),
(582,421,o),
(597,491,cs),
(617,584,o),
(588,677,o),
(411,677,cs),
(328,677,o),
(257,649,o),
(232,637,c),
(225,634,o),
(221,629,o),
(220,621,c),
(84,7,l),
(81,-4,o),
(86,-10,o),
(97,-10,cs)
);
},
{
closed = 1;
nodes = (
(512,608,o),
(535,555,o),
(522,490,cs),
(507,423,o),
(463,380,o),
(348,380,cs),
(243,380,l),
(290,580,l),
(290,580,o),
(322,608,o),
(397,608,cs)
);
},
{
closed = 1;
nodes = (
(175,60,l),
(229,312,l),
(334,312,ls),
(474,312,o),
(498,262,o),
(483,190,cs),
(469,125,o),
(420,60,o),
(280,60,cs)
);
}
);
width = 563;
}
);
unicode = 66;
},
{
glyphname = C;
lastChange = "2024-12-23 19:41:33 +0000";
layers = (
{
anchors = (
{
name = bottom;
pos = (329,0);
},
{
name = top;
pos = (471,667);
}
);
layerId = "AEDC8BCA-1602-4327-8A1C-D108A778CE54";
name = Regular;
shapes = (
{
closed = 1;
nodes = (
(120,-10,o),
(72,154,o),
(110,334,cs),
(149,514,o),
(266,677,o),
(473,677,cs),
(541,677,o),
(598,658,o),
(643,626,c),
(594,562,l),
(552,585,o),
(509,602,o),
(457,602,cs),
(312,602,o),
(230,474,o),
(200,334,cs),
(171,194,o),
(198,65,o),
(343,65,cs),
(395,65,o),
(445,82,o),
(497,105,c),
(518,41,l),
(460,9,o),
(395,-10,o),
(327,-10,cs)
);
}
);
width = 530;
}
);
unicode = 67;
},
{
glyphname = Ccedilla;
layers = (
{
layerId = "AEDC8BCA-1602-4327-8A1C-D108A778CE54";
name = Regular;
shapes = (
{
closed = 1;
nodes = (
(348,-9,l),
(404,-6,o),
(457,9,o),
(506,35,cs),
(514,39,o),
(517,45,o),
(515,54,cs),
(506,89,l),
(503,99,o),
(497,103,o),
(487,99,cs),
(440,81,o),
(390,65,o),
(343,65,cs),
(198,65,o),
(171,194,o),
(200,334,cs),
(230,474,o),
(312,602,o),
(457,602,cs),
(504,602,o),
(547,586,o),
(586,568,cs),
(595,564,o),
(602,566,o),
(607,574,c),
(634,614,l),
(640,622,o),
(639,629,o),
(631,634,cs),
(588,661,o),
(535,677,o),
(473,677,cs),
(266,677,o),
(149,514,o),
(110,334,cs),
(74,160,o),
(117,0,o),
(308,-9,c),
(298,-56,ls),
(296,-67,o),
(301,-71,o),
(312,-70,c),
(318,-70,ls),
(335,-70,o),
(344,-77,o),
(341,-90,c),
(339,-103,o),
(326,-111,o),
(309,-111,cs),
(303,-111,o),
(295,-110,o),
(288,-108,c),
(280,-107,o),
(274,-107,o),
(268,-115,cs),
(263,-122,ls),
(257,-130,o),
(259,-138,o),
(268,-142,c),
(278,-147,o),
(290,-150,o),
(301,-150,cs),
(343,-150,o),
(378,-130,o),
(386,-90,cs),
(394,-53,o),
(367,-36,o),
(342,-36,c)
);
}
);
width = 530;
}
);
unicode = 199;
},
{
glyphname = D;
lastChange = "2024-12-23 19:43:12 +0000";
layers = (
{
anchors = (
{
name = bottom;
pos = (274,0);
},
{
name = center;
pos = (193,334);
},
{
name = top;
pos = (416,667);
}
);
layerId = "AEDC8BCA-1602-4327-8A1C-D108A778CE54";
name = Regular;
shapes = (
{
closed = 1;
nodes = (
(272,-10,ls),
(479,-10,o),
(597,154,o),
(635,334,cs),
(674,514,o),
(625,677,o),
(418,677,cs),
(329,677,o),
(258,665,o),
(231,660,c),
(223,658,o),
(218,653,o),
(216,645,c),
(81,6,l),
(78,-4,o),
(83,-10,o),
(94,-10,cs)
);
},
{
closed = 1;
nodes = (
(547,600,o),
(575,474,o),
(545,334,cs),
(516,194,o),
(433,65,o),
(288,65,cs),
(173,65,l),
(286,593,l),
(286,593,o),
(317,600,o),
(402,600,cs)
);
}
);
width = 605;
}
);
unicode = 68;
},
{
glyphname = Eth;
layers = (
{
layerId = "AEDC8BCA-1602-4327-8A1C-D108A778CE54";
name = Regular;
shapes = (
{
closed = 1;
nodes = (
(97,318,ls),
(95,308,o),
(100,302,o),
(111,302,cs),
(144,302,l),
(81,6,l),
(78,-4,o),
(83,-10,o),
(94,-10,cs),
(272,-10,ls),
(479,-10,o),
(597,154,o),
(635,334,cs),
(674,514,o),
(625,677,o),
(418,677,cs),
(329,677,o),
(258,665,o),
(231,660,c),
(223,658,o),
(218,653,o),
(216,645,c),
(158,367,l),
(122,367,ls),
(112,367,o),
(107,363,o),
(105,354,cs)
);
},
{
closed = 1;
nodes = (
(547,600,o),
(575,474,o),
(545,334,cs),
(516,194,o),
(433,65,o),
(288,65,cs),
(173,65,l),
(224,302,l),
(325,302,ls),
(334,302,o),
(340,306,o),
(342,315,cs),
(349,351,l),
(352,361,o),
(347,367,o),
(336,367,cs),
(238,367,l),
(286,593,l),
(286,593,o),
(317,600,o),
(402,600,cs)
);
}
);
width = 605;
}
);
unicode = 208;
},
{
glyphname = E;
lastChange = "2024-12-23 19:53:04 +0000";
layers = (
{
anchors = (
{
name = bottom;
pos = (257,0);
},
{
name = ogonek;
pos = (453,10);
},
{
name = top;
pos = (399,667);
},
{
name = topleft;
pos = (176,667);
}
);
layerId = "AEDC8BCA-1602-4327-8A1C-D108A778CE54";
name = Regular;
shapes = (
{
closed = 1;
nodes = (
(83,16,ls),
(81,6,o),
(86,0,o),
(97,0,cs),
(431,0,ls),
(440,0,o),
(446,4,o),
(448,13,cs),
(457,59,ls),
(459,69,o),
(454,75,o),
(443,75,cs),
(175,75,l),
(224,305,l),
(421,305,ls),
(430,305,o),
(436,309,o),
(439,317,c),
(458,362,ls),
(462,372,o),
(457,379,o),
(446,379,cs),
(240,379,l),
(285,592,l),
(551,592,ls),
(560,592,o),
(566,596,o),
(568,605,cs),
(577,651,l),
(580,661,o),
(575,667,o),
(564,667,cs),
(235,667,ls),
(225,667,o),
(220,663,o),
(218,654,cs)
);
}
);
width = 485;
}
);
unicode = 69;
},
{
glyphname = Eacute;
layers = (
{
layerId = "AEDC8BCA-1602-4327-8A1C-D108A778CE54";
name = Regular;
shapes = (
{
closed = 1;
nodes = (
(514,860,l),
(537,795,l),
(344,700,l),
(323,752,l)
);
},
{
closed = 1;
nodes = (
(83,16,ls),
(81,6,o),
(86,0,o),
(97,0,cs),
(431,0,ls),
(440,0,o),
(446,4,o),
(448,13,cs),
(457,59,ls),
(459,69,o),
(454,75,o),
(443,75,cs),
(175,75,l),
(224,305,l),
(421,305,ls),
(430,305,o),
(436,309,o),
(439,317,c),
(458,362,ls),
(462,372,o),
(457,379,o),
(446,379,cs),
(240,379,l),
(285,592,l),
(551,592,ls),
(560,592,o),
(566,596,o),
(568,605,cs),
(577,651,l),
(580,661,o),
(575,667,o),
(564,667,cs),
(235,667,ls),
(225,667,o),
(220,663,o),
(218,654,cs)
);
}
);
width = 485;
}
);
unicode = 201;
},
{
glyphname = Ecircumflex;
layers = (
{
layerId = "AEDC8BCA-1602-4327-8A1C-D108A778CE54";
name = Regular;
shapes = (
{
closed = 1;
nodes = (
(265,714,ls),
(269,705,o),
(276,703,o),
(285,707,c),
(429,785,l),
(539,708,l),
(547,703,o),
(554,704,o),
(560,711,cs),
(581,734,ls),
(587,741,o),
(587,748,o),
(580,755,c),
(457,861,ls),
(450,867,o),
(443,868,o),
(436,863,c),
(263,752,l),
(255,748,o),
(253,741,o),
(257,732,cs)
);
},
{
closed = 1;
nodes = (
(83,16,ls),
(81,6,o),
(86,0,o),
(97,0,cs),
(431,0,ls),
(440,0,o),
(446,4,o),
(448,13,cs),
(457,59,ls),
(459,69,o),
(454,75,o),
(443,75,cs),
(175,75,l),
(224,305,l),
(421,305,ls),
(430,305,o),
(436,309,o),
(439,317,c),
(458,362,ls),
(462,372,o),
(457,379,o),
(446,379,cs),
(240,379,l),
(285,592,l),
(551,592,ls),
(560,592,o),
(566,596,o),
(568,605,cs),
(577,651,l),
(580,661,o),
(575,667,o),
(564,667,cs),
(235,667,ls),
(225,667,o),
(220,663,o),
(218,654,cs)
);
}
);
width = 485;
}
);
unicode = 202;
},
{
glyphname = Edieresis;
layers = (
{
layerId = "AEDC8BCA-1602-4327-8A1C-D108A778CE54";
name = Regular;
shapes = (
{
closed = 1;
nodes = (
(293,721,o),
(309,700,o),
(335,700,cs),
(361,700,o),
(388,721,o),
(393,747,c),
(399,773,o),
(381,795,o),
(355,795,cs),
(329,795,o),
(304,773,o),
(298,747,c)
);
},
{
closed = 1;
nodes = (
(438,721,o),
(454,700,o),
(480,700,cs),
(506,700,o),
(533,721,o),
(538,747,c),
(544,773,o),
(526,795,o),
(500,795,cs),
(474,795,o),
(449,773,o),
(443,747,c)
);
},
{
closed = 1;
nodes = (
(83,16,ls),
(81,6,o),
(86,0,o),
(97,0,cs),
(431,0,ls),
(440,0,o),
(446,4,o),
(448,13,cs),
(457,59,ls),
(459,69,o),
(454,75,o),
(443,75,cs),
(175,75,l),
(224,305,l),
(421,305,ls),
(430,305,o),
(436,309,o),
(439,317,c),
(458,362,ls),
(462,372,o),
(457,379,o),
(446,379,cs),
(240,379,l),
(285,592,l),
(551,592,ls),
(560,592,o),
(566,596,o),
(568,605,cs),
(577,651,l),
(580,661,o),
(575,667,o),
(564,667,cs),
(235,667,ls),
(225,667,o),
(220,663,o),
(218,654,cs)
);
}
);
width = 485;
}
);
unicode = 203;
},
{
glyphname = Egrave;
layers = (
{
layerId = "AEDC8BCA-1602-4327-8A1C-D108A778CE54";
name = Regular;
shapes = (
{
closed = 1;
nodes = (
(466,708,ls),
(474,703,o),
(481,704,o),
(487,711,c),
(513,745,ls),
(519,753,o),
(518,760,o),
(510,766,cs),
(389,856,ls),
(381,862,o),
(374,861,o),
(368,853,cs),
(336,812,ls),
(330,804,o),
(332,797,o),
(340,791,c)
);
},
{
closed = 1;
nodes = (
(83,16,ls),
(81,6,o),
(86,0,o),
(97,0,cs),
(431,0,ls),
(440,0,o),
(446,4,o),
(448,13,cs),
(457,59,ls),
(459,69,o),
(454,75,o),
(443,75,cs),
(175,75,l),
(224,305,l),
(421,305,ls),
(430,305,o),
(436,309,o),
(439,317,c),
(458,362,ls),
(462,372,o),
(457,379,o),
(446,379,cs),
(240,379,l),
(285,592,l),
(551,592,ls),
(560,592,o),
(566,596,o),
(568,605,cs),
(577,651,l),
(580,661,o),
(575,667,o),
(564,667,cs),
(235,667,ls),
(225,667,o),
(220,663,o),
(218,654,cs)
);
}
);
width = 485;
}
);
unicode = 200;
},
{
glyphname = F;
layers = (
{
layerId = "AEDC8BCA-1602-4327-8A1C-D108A778CE54";
name = Regular;
shapes = (
{
closed = 1;
nodes = (
(83,16,ls),
(81,6,o),
(86,0,o),
(97,0,cs),
(146,0,ls),
(156,0,o),
(161,4,o),
(163,13,cs),
(224,305,l),
(421,305,ls),
(430,305,o),
(436,309,o),
(439,317,cs),
(458,363,ls),
(462,373,o),
(457,380,o),
(446,380,cs),
(240,380,l),
(285,592,l),
(551,592,ls),
(560,592,o),
(566,596,o),
(568,605,cs),
(577,651,l),
(580,661,o),
(575,667,o),
(564,667,cs),
(235,667,ls),
(225,667,o),
(220,663,o),
(218,654,cs)
);
}
);
width = 460;
}
);
unicode = 70;
},
{
glyphname = G;
lastChange = "2024-12-23 19:55:01 +0000";
layers = (
{
anchors = (
{
name = bottom;
pos = (329,0);
},
{
name = top;
pos = (471,667);
}
);
layerId = "AEDC8BCA-1602-4327-8A1C-D108A778CE54";
name = Regular;
shapes = (
{
closed = 1;
nodes = (
(504,602,o),
(543,586,o),
(583,568,c),
(590,564,o),
(597,566,o),
(602,573,c),
(634,614,ls),
(640,622,o),
(639,629,o),
(630,635,c),
(587,661,o),
(535,677,o),
(473,677,cs),
(266,677,o),
(149,514,o),
(110,334,cs),
(72,154,o),
(120,-10,o),
(327,-10,cs),
(423,-10,o),
(497,22,o),
(523,35,c),
(530,38,o),
(534,43,o),
(535,51,c),
(598,344,ls),
(600,354,o),
(595,360,o),
(584,360,cs),
(534,360,ls),
(524,360,o),
(519,356,o),
(517,347,cs),
(463,86,l),
(423,75,o),
(383,65,o),
(343,65,cs),
(198,65,o),
(171,194,o),
(200,334,cs),
(230,474,o),
(312,602,o),
(457,602,cs)
);
}
);
width = 585;
}
);
unicode = 71;
},
{
glyphname = H;
lastChange = "2024-12-23 20:39:26 +0000";
layers = (
{
anchors = (
{
name = bottom;
pos = (301,0);
},
{
name = center;
pos = (407,500);
},
{
name = top;
pos = (443,667);
},
{
name = topleft;
pos = (163,667);
}
);
layerId = "AEDC8BCA-1602-4327-8A1C-D108A778CE54";
name = Regular;
shapes = (
{
closed = 1;
nodes = (
(224,305,l),
(504,305,l),
(443,16,ls),
(441,6,o),
(446,0,o),
(457,0,cs),
(506,0,ls),
(516,0,o),
(521,4,o),
(523,13,cs),
(658,651,ls),
(660,661,o),
(655,667,o),
(644,667,cs),
(595,667,ls),
(585,667,o),
(580,663,o),
(578,654,cs),
(520,380,l),
(240,380,l),
(298,651,ls),
(300,661,o),
(295,667,o),
(284,667,cs),
(235,667,ls),
(225,667,o),
(220,663,o),
(218,654,cs),
(83,16,ls),
(81,6,o),
(86,0,o),
(97,0,cs),
(146,0,ls),
(156,0,o),
(161,4,o),
(163,13,cs)
);
}
);
width = 600;
}
);
unicode = 72;
},
{
glyphname = Hbar;
lastChange = "2024-12-23 20:41:47 +0000";
layers = (
{
layerId = "AEDC8BCA-1602-4327-8A1C-D108A778CE54";
shapes = (
{
ref = H;
},
{
closed = 1;
nodes = (
(654,470,ls),
(663,470,o),
(670,476,o),
(672,485,cs),
(679,515,ls),
(680,524,o),
(676,530,o),
(667,530,cs),
(158,530,ls),
(149,530,o),
(141,524,o),
(140,515,cs),
(133,485,ls),
(131,476,o),
(136,470,o),
(145,470,cs)
);
}
);
width = 600;
}
);
unicode = 294;
},
{
glyphname = I;
lastChange = "2024-12-23 20:05:12 +0000";
layers = (
{
anchors = (
{
name = bottom;
pos = (117,0);
},
{
name = ogonek;
pos = (165,10);
},
{
name = top;
pos = (259,667);
},
{
name = topleft;
pos = (159,667);
}
);
layerId = "AEDC8BCA-1602-4327-8A1C-D108A778CE54";
name = Regular;
shapes = (
{
closed = 1;
nodes = (
(298,651,ls),
(300,661,o),
(295,667,o),
(284,667,cs),
(235,667,ls),
(225,667,o),
(220,663,o),
(218,654,cs),
(84,16,ls),
(82,6,o),
(87,0,o),
(98,0,cs),
(146,0,ls),
(156,0,o),
(161,4,o),
(163,13,cs)
);
}
);
width = 240;
}
);
unicode = 73;
},
{
glyphname = Iacute;
layers = (
{
layerId = "AEDC8BCA-1602-4327-8A1C-D108A778CE54";
name = Regular;
shapes = (
{
closed = 1;
nodes = (
(353,860,l),
(376,795,l),
(183,700,l),
(162,752,l)
);
},
{
closed = 1;
nodes = (
(83,16,ls),
(81,6,o),
(86,0,o),
(97,0,cs),
(146,0,ls),
(156,0,o),
(161,4,o),
(163,13,cs),
(298,651,ls),
(300,661,o),
(295,667,o),
(284,667,cs),
(235,667,ls),
(225,667,o),
(220,663,o),
(218,654,cs)
);
}
);
width = 240;
}
);
unicode = 205;
},
{
glyphname = Icircumflex;
layers = (
{
layerId = "AEDC8BCA-1602-4327-8A1C-D108A778CE54";
name = Regular;
shapes = (
{
closed = 1;
nodes = (
(122,714,ls),
(126,705,o),
(133,703,o),
(142,707,c),
(286,785,l),
(396,708,l),
(404,703,o),
(411,704,o),
(417,711,cs),
(438,734,ls),
(444,741,o),
(444,748,o),
(437,755,c),
(314,861,ls),
(307,867,o),
(300,868,o),
(293,863,c),
(120,752,l),
(112,748,o),
(110,741,o),
(114,732,cs)
);
},
{
closed = 1;
nodes = (
(83,16,ls),
(81,6,o),
(86,0,o),
(97,0,cs),
(146,0,ls),
(156,0,o),
(161,4,o),
(163,13,cs),
(298,651,ls),
(300,661,o),
(295,667,o),
(284,667,cs),
(235,667,ls),
(225,667,o),
(220,663,o),
(218,654,cs)
);
}
);
width = 240;
}
);
unicode = 206;
},
{
glyphname = Idieresis;
layers = (
{
layerId = "AEDC8BCA-1602-4327-8A1C-D108A778CE54";
name = Regular;
shapes = (
{
closed = 1;
nodes = (
(153,721,o),
(169,700,o),
(195,700,cs),
(221,700,o),
(248,721,o),
(253,747,c),
(259,773,o),
(241,795,o),
(215,795,cs),
(189,795,o),
(164,773,o),
(158,747,c)
);
},
{
closed = 1;
nodes = (
(298,721,o),
(314,700,o),
(340,700,cs),
(366,700,o),
(393,721,o),
(398,747,c),
(404,773,o),
(386,795,o),
(360,795,cs),
(334,795,o),
(309,773,o),
(303,747,c)
);
},
{
closed = 1;
nodes = (
(83,16,ls),
(81,6,o),
(86,0,o),
(97,0,cs),
(146,0,ls),
(156,0,o),
(161,4,o),
(163,13,cs),
(298,651,ls),
(300,661,o),
(295,667,o),
(284,667,cs),
(235,667,ls),
(225,667,o),
(220,663,o),
(218,654,cs)
);
}
);
width = 240;
}
);
unicode = 207;
},
{
glyphname = Igrave;
layers = (
{
layerId = "AEDC8BCA-1602-4327-8A1C-D108A778CE54";
name = Regular;
shapes = (
{
closed = 1;
nodes = (
(328,708,ls),
(336,703,o),
(343,704,o),
(349,711,c),
(375,745,ls),
(381,753,o),
(380,760,o),
(372,766,cs),
(251,856,ls),
(243,862,o),
(236,861,o),
(230,853,cs),
(198,812,ls),
(192,804,o),
(194,797,o),
(202,791,c)
);
},
{
closed = 1;
nodes = (
(83,16,ls),
(81,6,o),
(86,0,o),
(97,0,cs),
(146,0,ls),
(156,0,o),
(161,4,o),
(163,13,cs),
(298,651,ls),
(300,661,o),
(295,667,o),
(284,667,cs),
(235,667,ls),
(225,667,o),
(220,663,o),
(218,654,cs)
);
}
);
width = 240;
}
);
unicode = 204;
},
{
glyphname = J;
lastChange = "2024-12-23 19:05:07 +0000";
layers = (
{
anchors = (
{
name = bottom;
pos = (165,0);
},
{
name = top;
pos = (307,667);
}
);
layerId = "AEDC8BCA-1602-4327-8A1C-D108A778CE54";
name = Regular;
shapes = (
{
closed = 1;
nodes = (
(493,651,ls),
(495,661,o),
(490,667,o),
(479,667,cs),
(430,667,ls),
(421,667,o),
(416,662,o),
(414,653,cs),
(406,618,o),
(382,512,o),
(319,209,cs),
(302,130,o),
(251,60,o),
(167,60,cs),
(123,60,o),
(97,77,o),
(74,95,cs),
(66,101,o),
(59,101,o),
(53,93,cs),
(22,52,l),
(16,45,o),
(16,38,o),
(23,31,c),
(55,4,o),
(97,-10,o),
(152,-10,cs),
(302,-10,o),
(375,95,o),
(402,225,cs)
);
}
);
width = 435;
}
);
unicode = 74;
},
{
glyphname = K;
lastChange = "2024-12-23 20:20:00 +0000";
layers = (
{
anchors = (
{
name = bottom;
pos = (283,0);
},
{
name = top;
pos = (425,667);
}
);
layerId = "AEDC8BCA-1602-4327-8A1C-D108A778CE54";
name = Regular;
shapes = (
{
closed = 1;
nodes = (
(623,648,ls),
(632,657,o),
(629,666,o),
(615,666,cs),
(562,667,ls),
(554,667,o),
(549,665,o),
(543,659,cs),
(234,350,l),
(298,651,ls),
(300,661,o),
(295,667,o),
(284,667,cs),
(235,667,ls),
(225,667,o),
(220,663,o),
(218,654,cs),
(83,16,ls),
(81,6,o),
(86,0,o),
(97,0,cs),
(146,0,ls),
(156,0,o),
(161,4,o),
(163,13,cs),
(234,349,l),
(239,334,o),
(339,35,o),
(498,-7,cs),
(506,-9,o),
(512,-7,o),
(517,1,cs),
(551,55,ls),
(557,64,o),
(553,71,o),
(543,75,c),
(395,127,o),
(329,350,o),
(329,350,c)
);
}
);
width = 541;
}
);
unicode = 75;
},
{
glyphname = L;
lastChange = "2024-12-23 20:21:31 +0000";
layers = (
{
anchors = (
{
name = bottom;
pos = (247,0);
},
{
name = center;
pos = (236,334);
},
{
name = top;
pos = (389,667);
},
{
name = topright;
pos = (504,667);
}
);
layerId = "AEDC8BCA-1602-4327-8A1C-D108A778CE54";
name = Regular;
shapes = (
{
closed = 1;
nodes = (
(83,16,ls),
(81,6,o),
(86,0,o),
(97,0,cs),
(397,0,ls),
(406,0,o),
(411,4,o),
(415,12,c),
(435,63,ls),
(439,73,o),
(435,80,o),
(423,80,cs),
(177,80,l),
(298,651,ls),
(300,661,o),
(295,667,o),
(284,667,cs),
(235,667,ls),
(225,667,o),
(220,663,o),
(218,654,cs)
);
}
);
width = 435;
}
);
unicode = 76;
},
{
glyphname = Lslash;
layers = (
{
layerId = "AEDC8BCA-1602-4327-8A1C-D108A778CE54";
name = Regular;
shapes = (
{
closed = 1;
nodes = (
(85,268,ls),
(92,260,o),
(99,259,o),
(107,266,cs),
(142,295,l),
(83,16,ls),
(81,6,o),
(86,0,o),
(97,0,cs),
(397,0,ls),
(406,0,o),
(411,4,o),
(415,12,c),
(435,63,ls),
(439,73,o),
(435,80,o),
(423,80,cs),
(177,80,l),
(239,375,l),
(340,458,ls),
(348,465,o),
(348,472,o),
(342,479,cs),
(325,499,l),
(318,506,o),
(311,507,o),
(304,500,c),
(258,462,l),
(298,651,ls),
(300,661,o),
(295,667,o),
(284,667,cs),
(235,667,ls),
(225,667,o),
(220,663,o),
(218,654,cs),
(160,381,l),
(72,308,l),
(65,301,o),
(64,294,o),
(70,286,c)
);
}
);
width = 435;
}
);
unicode = 321;
},
{
glyphname = M;
layers = (
{
layerId = "AEDC8BCA-1602-4327-8A1C-D108A778CE54";
name = Regular;
shapes = (
{
closed = 1;
nodes = (
(408,0,l),
(328,0,l),
(295,480,ls),
(294,494,o),
(281,495,o),
(278,481,c),
(150,0,l),
(60,0,l),
(254,667,l),
(359,667,l),
(390,152,ls),
(391,137,o),
(402,135,o),
(408,148,cs),
(658,667,l),
(763,667,l),
(676,0,l),
(586,0,l),
(661,476,ls),
(663,490,o),
(651,494,o),
(645,482,cs)
);
}
);
width = 736;
}
);
unicode = 77;
},
{
glyphname = N;
lastChange = "2024-12-23 20:23:24 +0000";
layers = (
{
anchors = (
{
name = bottom;
pos = (311,0);
},
{
name = top;
pos = (453,667);
}
);
layerId = "AEDC8BCA-1602-4327-8A1C-D108A778CE54";
name = Regular;
shapes = (
{
closed = 1;
nodes = (
(268,535,l),
(446,12,ls),
(449,4,o),
(454,0,o),
(463,0,cs),
(526,0,ls),
(536,0,o),
(541,4,o),
(543,13,cs),
(678,651,ls),
(680,661,o),
(675,667,o),
(664,667,cs),
(615,667,ls),
(606,667,o),
(600,663,o),
(598,654,cs),
(492,130,l),
(315,655,ls),
(312,663,o),
(307,667,o),
(298,667,cs),
(235,667,ls),
(225,667,o),
(220,663,o),
(218,654,cs),
(83,16,ls),
(81,6,o),
(86,0,o),
(97,0,cs),
(146,0,ls),
(155,0,o),
(161,4,o),
(163,13,cs)
);
}
);
width = 620;
}
);
unicode = 78;
},
{
glyphname = Ntilde;
layers = (
{
layerId = "AEDC8BCA-1602-4327-8A1C-D108A778CE54";
name = Regular;
shapes = (
{
closed = 1;
nodes = (
(314,729,l),
(320,721,o),
(327,720,o),
(335,726,c),
(352,737,o),
(381,755,o),
(403,755,cs),
(469,755,o),
(458,705,o),
(526,705,cs),
(565,705,o),
(615,741,o),
(638,758,c),
(645,765,o),
(646,772,o),
(640,780,c),
(628,794,ls),
(622,801,o),
(615,802,o),
(607,796,cs),
(592,785,o),
(563,768,o),
(540,768,cs),
(472,768,o),
(481,818,o),
(416,818,cs),
(375,818,o),
(328,783,o),
(307,765,c),
(299,759,o),
(299,752,o),
(304,744,cs)
);
},
{
closed = 1;
nodes = (
(268,535,l),
(446,12,ls),
(449,4,o),
(454,0,o),
(463,0,cs),
(526,0,ls),
(536,0,o),
(541,4,o),
(543,13,cs),
(678,651,ls),
(680,661,o),
(675,667,o),
(664,667,cs),
(615,667,ls),
(606,667,o),
(600,663,o),
(598,654,cs),
(492,130,l),
(315,655,ls),
(312,663,o),
(307,667,o),
(298,667,cs),
(235,667,ls),
(225,667,o),
(220,663,o),
(218,654,cs),
(83,16,ls),
(81,6,o),
(86,0,o),
(97,0,cs),
(146,0,ls),
(155,0,o),
(161,4,o),
(163,13,cs)
);
}
);
width = 620;
}
);
unicode = 209;
},
{
glyphname = O;
lastChange = "2024-12-23 20:25:07 +0000";
layers = (
{
anchors = (
{
name = bottom;
pos = (330,0);
},
{
name = center;
pos = (348,334);
},
{
name = ogonek;
pos = (543,10);
},
{
name = top;
pos = (472,667);
},
{
name = topleft;
pos = (215,667);
},
{
name = topright;
pos = (729,667);
}
);
layerId = "AEDC8BCA-1602-4327-8A1C-D108A778CE54";
name = Regular;
shapes = (
{
closed = 1;
nodes = (
(72,154,o),
(119,-10,o),
(327,-10,cs),
(534,-10,o),
(652,154,o),
(690,334,cs),
(729,514,o),
(680,677,o),
(473,677,cs),
(265,677,o),
(149,514,o),
(110,334,cs)
);
},
{
closed = 1;
nodes = (
(232,481,o),
(314,602,o),
(457,602,cs),
(601,602,o),
(632,481,o),
(600,334,cs),
(569,185,o),
(487,65,o),
(343,65,cs),
(200,65,o),
(169,185,o),
(200,334,cs)
);
}
);
width = 660;
}
);
unicode = 79;
},
{
glyphname = Oacute;
layers = (
{
layerId = "AEDC8BCA-1602-4327-8A1C-D108A778CE54";
name = Regular;
shapes = (
{
closed = 1;
nodes = (
(573,860,l),
(596,795,l),
(403,700,l),
(382,752,l)
);
},
{
closed = 1;
nodes = (
(72,154,o),
(119,-10,o),
(327,-10,cs),
(534,-10,o),
(652,154,o),
(690,334,cs),
(729,514,o),
(680,677,o),
(473,677,cs),
(265,677,o),
(149,514,o),
(110,334,cs)
);
},
{
closed = 1;
nodes = (
(232,481,o),
(314,602,o),
(457,602,cs),
(601,602,o),
(632,481,o),
(600,334,cs),
(569,185,o),
(487,65,o),
(343,65,cs),
(200,65,o),
(169,185,o),
(200,334,cs)
);
}
);
width = 660;
}
);
unicode = 211;
},
{
glyphname = Ocircumflex;
layers = (
{
layerId = "AEDC8BCA-1602-4327-8A1C-D108A778CE54";
name = Regular;
shapes = (
{
closed = 1;
nodes = (
(332,714,ls),
(336,705,o),
(343,703,o),
(352,707,c),
(496,785,l),
(606,708,l),
(614,703,o),
(621,704,o),
(627,711,cs),
(648,734,ls),
(654,741,o),
(654,748,o),
(647,755,c),
(524,861,ls),
(517,867,o),
(510,868,o),
(503,863,c),
(330,752,l),
(322,748,o),
(320,741,o),
(324,732,cs)
);
},
{
closed = 1;
nodes = (
(72,154,o),
(119,-10,o),
(327,-10,cs),
(534,-10,o),
(652,154,o),
(690,334,cs),
(729,514,o),
(680,677,o),
(473,677,cs),
(265,677,o),
(149,514,o),
(110,334,cs)
);
},
{
closed = 1;
nodes = (
(232,481,o),
(314,602,o),
(457,602,cs),
(601,602,o),
(632,481,o),
(600,334,cs),
(569,185,o),
(487,65,o),
(343,65,cs),
(200,65,o),
(169,185,o),
(200,334,cs)
);
}
);
width = 660;
}
);
unicode = 212;
},
{
glyphname = Odieresis;
layers = (
{
layerId = "AEDC8BCA-1602-4327-8A1C-D108A778CE54";
name = Regular;
shapes = (
{
closed = 1;
nodes = (
(363,721,o),
(379,700,o),
(405,700,cs),
(431,700,o),
(458,721,o),
(463,747,c),
(469,773,o),
(451,795,o),
(425,795,cs),
(399,795,o),
(374,773,o),
(368,747,c)
);
},
{
closed = 1;
nodes = (
(508,721,o),
(524,700,o),
(550,700,cs),
(576,700,o),
(603,721,o),
(608,747,c),
(614,773,o),
(596,795,o),
(570,795,cs),
(544,795,o),
(519,773,o),
(513,747,c)
);
},
{
closed = 1;
nodes = (
(72,154,o),
(119,-10,o),
(327,-10,cs),
(534,-10,o),
(652,154,o),
(690,334,cs),
(729,514,o),
(680,677,o),
(473,677,cs),
(265,677,o),
(149,514,o),
(110,334,cs)
);
},
{
closed = 1;
nodes = (
(232,481,o),
(314,602,o),
(457,602,cs),
(601,602,o),
(632,481,o),
(600,334,cs),
(569,185,o),
(487,65,o),
(343,65,cs),
(200,65,o),
(169,185,o),
(200,334,cs)
);
}
);
width = 660;
}
);
unicode = 214;
},
{
glyphname = Ograve;
layers = (
{
layerId = "AEDC8BCA-1602-4327-8A1C-D108A778CE54";
name = Regular;
shapes = (
{
closed = 1;
nodes = (
(531,708,ls),
(539,703,o),
(546,704,o),
(552,711,c),
(578,745,ls),
(584,753,o),
(583,760,o),
(575,766,cs),
(454,856,ls),
(446,862,o),
(439,861,o),
(433,853,cs),
(401,812,ls),
(395,804,o),
(397,797,o),
(405,791,c)
);
},
{
closed = 1;
nodes = (
(72,154,o),
(119,-10,o),
(327,-10,cs),
(534,-10,o),
(652,154,o),
(690,334,cs),
(729,514,o),
(680,677,o),
(473,677,cs),
(265,677,o),
(149,514,o),
(110,334,cs)
);
},
{
closed = 1;
nodes = (
(232,481,o),
(314,602,o),
(457,602,cs),
(601,602,o),
(632,481,o),
(600,334,cs),
(569,185,o),
(487,65,o),
(343,65,cs),
(200,65,o),
(169,185,o),
(200,334,cs)
);
}
);
width = 660;
}
);
unicode = 210;
},
{
glyphname = Oslash;
layers = (
{
layerId = "AEDC8BCA-1602-4327-8A1C-D108A778CE54";
name = Regular;
shapes = (
{
closed = 1;
nodes = (
(138,13,l),
(132,5,o),
(134,-3,o),
(142,-8,c),
(165,-21,ls),
(174,-26,o),
(181,-24,o),
(186,-16,cs),
(206,14,l),
(239,-1,o),
(278,-10,o),
(327,-10,cs),
(534,-10,o),
(652,154,o),
(690,334,cs),
(716,453,o),
(703,565,o),
(632,627,c),
(673,687,l),
(679,695,o),
(677,703,o),
(668,708,cs),
(645,721,l),
(637,726,o),
(630,724,o),
(625,716,c),
(583,656,l),
(553,669,o),
(516,677,o),
(473,677,cs),
(265,677,o),
(149,514,o),
(110,334,cs),
(86,219,o),
(96,111,o),
(161,47,c)
);
},
{
closed = 1;
nodes = (
(231,476,o),
(313,597,o),
(456,597,cs),
(486,597,o),
(511,591,o),
(532,582,c),
(218,128,l),
(185,177,o),
(183,252,o),
(200,334,cs)
);
},
{
closed = 1;
nodes = (
(570,190,o),
(488,70,o),
(344,70,cs),
(309,70,o),
(281,77,o),
(259,90,c),
(576,547,l),
(615,499,o),
(619,420,o),
(600,334,cs)
);
}
);
width = 660;
}
);
unicode = 216;
},
{
glyphname = Otilde;
layers = (
{
layerId = "AEDC8BCA-1602-4327-8A1C-D108A778CE54";
name = Regular;
shapes = (
{
closed = 1;
nodes = (
(333,729,l),
(339,721,o),
(346,720,o),
(354,726,c),
(371,737,o),
(400,755,o),
(422,755,cs),
(488,755,o),
(477,705,o),
(545,705,cs),
(584,705,o),
(634,741,o),
(657,758,c),
(664,765,o),
(665,772,o),
(659,780,c),
(647,794,ls),
(641,801,o),
(634,802,o),
(626,796,cs),
(611,785,o),
(582,768,o),
(559,768,cs),
(491,768,o),
(500,818,o),
(435,818,cs),
(394,818,o),
(347,783,o),
(326,765,c),
(318,759,o),
(318,752,o),
(323,744,cs)
);
},
{
closed = 1;
nodes = (
(72,154,o),
(119,-10,o),
(327,-10,cs),
(534,-10,o),
(652,154,o),
(690,334,cs),
(729,514,o),
(680,677,o),
(473,677,cs),
(265,677,o),
(149,514,o),
(110,334,cs)
);
},
{
closed = 1;
nodes = (
(232,481,o),
(314,602,o),
(457,602,cs),
(601,602,o),
(632,481,o),
(600,334,cs),
(569,185,o),
(487,65,o),
(343,65,cs),
(200,65,o),
(169,185,o),
(200,334,cs)
);
}
);
width = 660;
}
);
unicode = 213;
},
{
glyphname = OE;
layers = (
{
layerId = "AEDC8BCA-1602-4327-8A1C-D108A778CE54";
name = Regular;
shapes = (
{
closed = 1;
nodes = (
(72,154,o),
(119,-10,o),
(327,-10,cs),
(357,-10,o),
(387,-6,o),
(414,0,c),
(751,0,ls),
(760,0,o),
(766,4,o),
(768,13,cs),
(777,59,ls),
(779,69,o),
(774,75,o),
(763,75,cs),
(495,75,l),
(544,305,l),
(741,305,ls),
(750,305,o),
(756,309,o),
(759,317,cs),
(778,363,ls),
(782,373,o),
(777,380,o),
(766,380,cs),
(560,380,l),
(604,587,l),
(870,587,ls),
(880,587,o),
(885,591,o),
(887,600,cs),
(898,651,ls),
(900,661,o),
(895,667,o),
(884,667,cs),
(555,667,l),
(532,673,o),
(504,677,o),
(473,677,cs),
(265,677,o),
(149,514,o),
(110,334,cs)
);
},
{
closed = 1;
nodes = (
(231,476,o),
(313,597,o),
(456,597,cs),
(482,597,o),
(505,593,o),
(524,586,c),
(417,81,l),
(394,74,o),
(370,70,o),
(344,70,cs),
(201,70,o),
(170,190,o),
(200,334,cs)
);
}
);
width = 805;
}
);
unicode = 338;
},
{
glyphname = P;
layers = (
{
layerId = "AEDC8BCA-1602-4327-8A1C-D108A778CE54";
name = Regular;
shapes = (
{
closed = 1;
nodes = (
(84,16,l),
(81,6,o),
(86,0,o),
(97,0,cs),
(146,0,ls),
(156,0,o),
(161,4,o),
(163,13,cs),
(221,290,l),
(247,284,o),
(304,282,o),
(324,282,cs),
(501,282,o),
(574,375,o),
(596,478,cs),
(616,571,o),
(585,677,o),
(408,677,cs),
(325,677,o),
(254,649,o),
(229,637,c),
(222,634,o),
(218,629,o),
(217,621,c)
);
},
{
closed = 1;
nodes = (
(510,608,o),
(531,542,o),
(517,477,cs),
(503,410,o),
(455,349,o),
(340,349,cs),
(264,349,o),
(236,355,o),
(236,355,c),
(288,580,l),
(288,580,o),
(319,608,o),
(395,608,cs)
);
}
);
width = 515;
}
);
unicode = 80;
},
{
glyphname = Thorn;
layers = (
{
layerId = "AEDC8BCA-1602-4327-8A1C-D108A778CE54";
name = Regular;
shapes = (
{
closed = 1;
nodes = (
(83,16,ls),
(81,6,o),
(86,0,o),
(97,0,cs),
(146,0,ls),
(156,0,o),
(161,4,o),
(163,13,cs),
(189,140,l),
(219,129,o),
(263,124,o),
(301,124,cs),
(508,124,o),
(589,231,o),
(611,336,cs),
(633,441,o),
(597,545,o),
(390,545,cs),
(348,545,o),
(309,538,o),
(271,525,c),
(298,651,ls),
(300,661,o),
(295,667,o),
(284,667,cs),
(235,667,ls),
(225,667,o),
(220,663,o),
(218,654,cs)
);
},
{
closed = 1;
nodes = (
(523,470,o),
(545,403,o),
(531,336,cs),
(516,268,o),
(466,199,o),
(317,199,cs),
(271,199,o),
(229,208,o),
(207,225,c),
(254,443,l),
(282,460,o),
(328,470,o),
(374,470,cs)
);
}
);
width = 580;
}
);
unicode = 222;
},
{
glyphname = Q;
layers = (
{
layerId = "AEDC8BCA-1602-4327-8A1C-D108A778CE54";
name = Regular;
shapes = (
{
closed = 1;
nodes = (
(75,165,o),
(113,11,o),
(289,-8,c),
(273,-122,o),
(308,-210,o),
(445,-210,cs),
(501,-210,o),
(551,-192,o),
(596,-163,c),
(603,-158,o),
(605,-151,o),
(601,-142,cs),
(589,-114,ls),
(585,-104,o),
(578,-102,o),
(569,-107,c),
(538,-126,o),
(505,-140,o),
(460,-140,cs),
(382,-140,o),
(358,-79,o),
(368,-8,c),
(550,12,o),
(655,166,o),
(690,334,cs),
(729,514,o),
(680,677,o),
(473,677,cs),
(265,677,o),
(149,514,o),
(110,334,cs)
);
},
{
closed = 1;
nodes = (
(232,481,o),
(314,602,o),
(457,602,cs),
(601,602,o),
(632,481,o),
(600,334,cs),
(569,185,o),
(487,65,o),
(343,65,cs),
(200,65,o),
(169,185,o),
(200,334,cs)
);
}
);
width = 660;
}
);
unicode = 81;
},
{
glyphname = R;
lastChange = "2024-12-23 20:27:18 +0000";
layers = (
{
anchors = (
{
name = bottom;
pos = (264,0);
},
{
name = top;
pos = (406,667);
}
);
layerId = "AEDC8BCA-1602-4327-8A1C-D108A778CE54";
name = Regular;
shapes = (
{
closed = 1;
nodes = (
(84,16,l),
(81,6,o),
(86,0,o),
(97,0,cs),
(146,0,ls),
(156,0,o),
(161,4,o),
(163,13,cs),
(221,290,l),
(230,288,o),
(244,286,o),
(258,285,c),
(298,190,o),
(382,23,o),
(498,-7,c),
(506,-10,o),
(512,-7,o),
(517,1,cs),
(551,55,l),
(556,64,o),
(553,71,o),
(543,75,c),
(447,108,o),
(386,213,o),
(354,283,c),
(509,293,o),
(575,381,o),
(596,478,cs),
(616,571,o),
(585,677,o),
(408,677,cs),
(325,677,o),
(254,649,o),
(229,637,c),
(222,634,o),
(218,629,o),
(217,621,c)
);
},
{
closed = 1;
nodes = (
(510,608,o),
(531,542,o),
(517,477,cs),
(503,410,o),
(455,349,o),
(340,349,cs),
(264,349,o),
(236,355,o),
(236,355,c),
(288,580,l),
(288,580,o),
(319,608,o),
(395,608,cs)
);
}
);
width = 560;
}
);
unicode = 82;
},
{
glyphname = S;
lastChange = "2024-12-23 20:28:41 +0000";
layers = (
{
anchors = (
{
name = bottom;
pos = (219,0);
},
{
name = top;
pos = (361,667);
}
);
layerId = "AEDC8BCA-1602-4327-8A1C-D108A778CE54";
name = Regular;
shapes = (
{
closed = 1;
nodes = (
(527,298,o),
(447,341,o),
(305,411,cs),
(250,438,o),
(224,475,o),
(236,530,cs),
(247,585,o),
(287,607,o),
(347,602,cs),
(396,597,o),
(434,580,o),
(472,559,c),
(480,554,o),
(487,556,o),
(493,563,cs),
(523,599,l),
(529,607,o),
(528,614,o),
(520,620,c),
(478,648,o),
(429,670,o),
(363,677,cs),
(275,687,o),
(179,649,o),
(154,529,cs),
(128,409,o),
(203,355,o),
(286,315,cs),
(365,277,o),
(426,243,o),
(410,168,cs),
(392,87,o),
(326,55,o),
(233,65,cs),
(182,70,o),
(147,90,o),
(110,112,cs),
(102,117,o),
(95,116,o),
(90,108,c),
(57,63,ls),
(51,55,o),
(52,48,o),
(60,42,c),
(103,16,o),
(155,-1,o),
(217,-10,cs),
(380,-34,o),
(474,48,o),
(500,168,cs)
);
}
);
width = 498;
}
);
unicode = 83;
},
{
glyphname = Scaron;
layers = (
{
layerId = "AEDC8BCA-1602-4327-8A1C-D108A778CE54";
name = Regular;
shapes = (
{
closed = 1;
nodes = (
(283,820,ls),
(276,813,o),
(275,806,o),
(282,799,c),
(358,711,l),
(365,704,o),
(372,703,o),
(380,709,cs),
(500,801,ls),
(508,807,o),
(509,814,o),
(504,822,c),
(497,832,l),
(492,841,o),
(485,842,o),
(476,837,c),
(384,775,l),
(320,835,ls),
(313,842,o),
(305,842,o),
(298,835,cs)
);
},
{
closed = 1;
nodes = (
(527,328,o),
(450,360,o),
(305,401,cs),
(250,416,o),
(224,445,o),
(236,500,cs),
(247,555,o),
(287,602,o),
(347,602,cs),
(396,602,o),
(434,589,o),
(472,569,c),
(480,564,o),
(487,566,o),
(493,573,c),
(524,614,ls),
(530,622,o),
(529,629,o),
(520,635,cs),
(478,661,o),
(429,677,o),
(363,677,cs),
(275,677,o),
(179,619,o),
(154,499,cs),
(128,379,o),
(203,340,o),
(286,315,cs),
(365,292,o),
(426,273,o),
(410,198,cs),
(392,117,o),
(326,65,o),
(233,65,cs),
(182,65,o),
(147,80,o),
(110,102,cs),
(102,107,o),
(95,106,o),
(90,98,c),
(57,53,ls),
(51,45,o),
(52,38,o),
(61,32,cs),
(103,6,o),
(155,-10,o),
(217,-10,cs),
(380,-10,o),
(474,78,o),
(500,198,cs)
);
}
);
width = 498;
}
);
unicode = 352;
},
{
glyphname = Germandbls;
lastChange = "2024-12-23 19:04:04 +0000";
layers = (
{
layerId = "AEDC8BCA-1602-4327-8A1C-D108A778CE54";
shapes = (
{
closed = 1;
nodes = (
(85,15,ls),
(83,5,o),
(87,0,o),
(97,0,cs),
(147,0,ls),
(157,0,o),
(163,5,o),
(165,15,cs),
(288,592,l),
(531,592,l),
(359,406,ls),
(354,400,o),
(351,395,o),
(350,388,cs),
(341,347,ls),
(339,337,o),
(343,332,o),
(353,332,cs),
(393,332,ls),
(532,332,o),
(553,263,o),
(539,199,cs),
(525,132,o),
(475,65,o),
(336,65,cs),
(299,65,o),
(271,70,o),
(245,79,cs),
(239,82,o),
(232,79,o),
(226,70,cs),
(200,31,ls),
(194,22,o),
(195,15,o),
(203,11,cs),
(238,-2,o),
(277,-10,o),
(320,-10,cs),
(527,-10,o),
(602,94,o),
(624,199,cs),
(637,260,o),
(637,386,o),
(436,397,c),
(614,584,ls),
(620,590,o),
(623,595,o),
(624,602,cs),
(635,652,ls),
(637,662,o),
(633,667,o),
(623,667,cs),
(239,667,ls),
(229,667,o),
(223,662,o),
(221,652,cs)
);
}
);
width = 600;
}
);
unicode = 7838;
},
{
glyphname = T;
lastChange = "2024-12-23 20:30:04 +0000";
layers = (
{
anchors = (
{
name = bottom;
pos = (232,0);
},
{
name = center;
pos = (303,334);
},
{
name = top;
pos = (374,667);
}
);
layerId = "AEDC8BCA-1602-4327-8A1C-D108A778CE54";
name = Regular;
shapes = (
{
closed = 1;
nodes = (
(395,592,l),
(562,592,ls),
(571,592,o),
(577,596,o),
(580,604,cs),
(599,650,ls),
(603,660,o),
(598,667,o),
(587,667,cs),
(165,667,ls),
(156,667,o),
(150,663,o),
(148,654,cs),
(139,608,l),
(136,598,o),
(141,592,o),
(152,592,cs),
(315,592,l),
(193,16,ls),
(191,6,o),
(196,0,o),
(207,0,cs),
(256,0,ls),
(266,0,o),
(271,4,o),
(273,13,cs)
);
}
);
width = 460;
}
);
unicode = 84;
},
{
glyphname = U;
lastChange = "2024-12-23 20:32:05 +0000";
layers = (
{
anchors = (
{
name = bottom;
pos = (289,0);
},
{
name = ogonek;
pos = (389,10);
},
{
name = top;
pos = (431,667);
},
{
name = topright;
pos = (649,667);
}
);
layerId = "AEDC8BCA-1602-4327-8A1C-D108A778CE54";
name = Regular;
shapes = (
{
closed = 1;
nodes = (
(285,651,l),
(288,661,o),
(283,667,o),
(272,667,cs),
(225,667,ls),
(215,667,o),
(210,663,o),
(208,654,cs),
(140,334,ls),
(102,154,o),
(95,-10,o),
(287,-10,cs),
(479,-10,o),
(542,154,o),
(580,334,cs),
(647,651,l),
(650,661,o),
(645,667,o),
(634,667,cs),
(587,667,ls),
(577,667,o),
(572,663,o),
(570,654,cs),
(502,334,ls),
(474,200,o),
(437,70,o),
(304,70,cs),
(171,70,o),
(190,200,o),
(218,334,cs)
);
}
);
width = 580;
}
);
unicode = 85;
},
{
glyphname = Uacute;
layers = (
{
layerId = "AEDC8BCA-1602-4327-8A1C-D108A778CE54";
name = Regular;
shapes = (
{
closed = 1;
nodes = (
(543,860,l),
(566,795,l),
(373,700,l),
(352,752,l)
);
},
{
closed = 1;
nodes = (
(285,651,l),
(288,661,o),
(283,667,o),
(272,667,cs),
(225,667,ls),
(215,667,o),
(210,663,o),
(208,654,cs),
(140,334,ls),
(102,154,o),
(95,-10,o),
(287,-10,cs),
(479,-10,o),
(542,154,o),
(580,334,cs),
(647,651,l),
(650,661,o),
(645,667,o),
(634,667,cs),
(587,667,ls),
(577,667,o),
(572,663,o),
(570,654,cs),
(502,334,ls),
(474,200,o),
(437,70,o),
(304,70,cs),
(171,70,o),
(190,200,o),
(218,334,cs)
);
}
);
width = 580;
}
);
unicode = 218;
},
{
glyphname = Ucircumflex;
layers = (
{
layerId = "AEDC8BCA-1602-4327-8A1C-D108A778CE54";
name = Regular;
shapes = (
{
closed = 1;
nodes = (
(292,714,ls),
(296,705,o),
(303,703,o),
(312,707,c),
(456,785,l),
(566,708,l),
(574,703,o),
(581,704,o),
(587,711,cs),
(608,734,ls),
(614,741,o),
(614,748,o),
(607,755,c),
(484,861,ls),
(477,867,o),
(470,868,o),
(463,863,c),
(290,752,l),
(282,748,o),
(280,741,o),
(284,732,cs)
);
},
{
closed = 1;
nodes = (
(285,651,l),
(288,661,o),
(283,667,o),
(272,667,cs),
(225,667,ls),
(215,667,o),
(210,663,o),
(208,654,cs),
(140,334,ls),
(102,154,o),
(95,-10,o),
(287,-10,cs),
(479,-10,o),
(542,154,o),
(580,334,cs),
(647,651,l),
(650,661,o),
(645,667,o),
(634,667,cs),
(587,667,ls),
(577,667,o),
(572,663,o),
(570,654,cs),
(502,334,ls),
(474,200,o),
(437,70,o),
(304,70,cs),
(171,70,o),
(190,200,o),
(218,334,cs)
);
}
);
width = 580;
}
);
unicode = 219;
},
{
glyphname = Udieresis;
layers = (
{
layerId = "AEDC8BCA-1602-4327-8A1C-D108A778CE54";
name = Regular;
shapes = (
{
closed = 1;
nodes = (
(323,721,o),
(339,700,o),
(365,700,cs),
(391,700,o),
(418,721,o),
(423,747,c),
(429,773,o),
(411,795,o),
(385,795,cs),
(359,795,o),
(334,773,o),
(328,747,c)
);
},
{
closed = 1;
nodes = (
(468,721,o),
(484,700,o),
(510,700,cs),
(536,700,o),
(563,721,o),
(568,747,c),
(574,773,o),
(556,795,o),
(530,795,cs),
(504,795,o),
(479,773,o),
(473,747,c)
);
},
{
closed = 1;
nodes = (
(285,651,l),
(288,661,o),
(283,667,o),
(272,667,cs),
(225,667,ls),
(215,667,o),
(210,663,o),
(208,654,cs),
(140,334,ls),
(102,154,o),
(95,-10,o),
(287,-10,cs),
(479,-10,o),
(542,154,o),
(580,334,cs),
(647,651,l),
(650,661,o),
(645,667,o),
(634,667,cs),
(587,667,ls),
(577,667,o),
(572,663,o),
(570,654,cs),
(502,334,ls),
(474,200,o),
(437,70,o),
(304,70,cs),
(171,70,o),
(190,200,o),
(218,334,cs)
);
}
);
width = 580;
}
);
unicode = 220;
},
{
glyphname = Ugrave;
layers = (
{
layerId = "AEDC8BCA-1602-4327-8A1C-D108A778CE54";
name = Regular;
shapes = (
{
closed = 1;
nodes = (
(496,708,ls),
(504,703,o),
(511,704,o),
(517,711,c),
(543,745,ls),
(549,753,o),
(548,760,o),
(540,766,cs),
(419,856,ls),
(411,862,o),
(404,861,o),
(398,853,cs),
(366,812,ls),
(360,804,o),
(362,797,o),
(370,791,c)
);
},
{
closed = 1;
nodes = (
(285,651,l),
(288,661,o),
(283,667,o),
(272,667,cs),
(225,667,ls),
(215,667,o),
(210,663,o),
(208,654,cs),
(140,334,ls),
(102,154,o),
(95,-10,o),
(287,-10,cs),
(479,-10,o),
(542,154,o),
(580,334,cs),
(647,651,l),
(650,661,o),
(645,667,o),
(634,667,cs),
(587,667,ls),
(577,667,o),
(572,663,o),
(570,654,cs),
(502,334,ls),
(474,200,o),
(437,70,o),
(304,70,cs),
(171,70,o),
(190,200,o),
(218,334,cs)
);
}
);
width = 580;
}
);
unicode = 217;
},
{
glyphname = V;
layers = (
{
layerId = "AEDC8BCA-1602-4327-8A1C-D108A778CE54";
name = Regular;
shapes = (
{
closed = 1;
nodes = (
(283,110,l),
(237,653,ls),
(236,662,o),
(231,667,o),
(222,667,cs),
(167,667,ls),
(157,667,o),
(152,661,o),
(153,651,cs),
(219,14,ls),
(220,5,o),
(225,0,o),
(234,0,cs),
(288,0,ls),
(296,0,o),
(302,3,o),
(306,11,cs),
(642,649,l),
(647,660,o),
(643,667,o),
(631,667,cs),
(578,667,ls),
(570,667,o),
(564,664,o),
(560,656,cs)
);
}
);
width = 520;
}
);
unicode = 86;
},
{
glyphname = W;
lastChange = "2024-12-23 19:08:40 +0000";
layers = (
{
anchors = (
{
name = bottom;
pos = (379,0);
},
{
name = top;
pos = (521,667);
}
);
layerId = "AEDC8BCA-1602-4327-8A1C-D108A778CE54";
name = Regular;
shapes = (
{
closed = 1;
nodes = (
(573,120,l),
(563,652,l),
(563,662,o),
(558,667,o),
(548,667,cs),
(495,667,ls),
(487,667,o),
(481,663,o),
(478,656,cs),
(241,120,l),
(256,652,ls),
(256,662,o),
(251,667,o),
(241,667,cs),
(186,667,ls),
(176,667,o),
(171,662,o),
(171,652,cs),
(173,15,ls),
(173,5,o),
(178,0,o),
(188,0,cs),
(246,0,ls),
(254,0,o),
(260,4,o),
(263,11,cs),
(499,552,l),
(506,15,ls),
(506,5,o),
(511,0,o),
(521,0,cs),
(579,0,ls),
(587,0,o),
(593,4,o),
(596,11,cs),
(868,650,ls),
(872,660,o),
(867,667,o),
(856,667,cs),
(803,667,ls),
(794,667,o),
(789,663,o),
(785,655,c)
);
}
);
width = 764;
}
);
unicode = 87;
},
{
glyphname = X;
layers = (
{
layerId = "AEDC8BCA-1602-4327-8A1C-D108A778CE54";
name = Regular;
shapes = (
{
closed = 1;
nodes = (
(565,667,l),
(661,667,l),
(402,359,l),
(396,353,o),
(395,347,o),
(398,339,cs),
(530,0,l),
(440,0,l),
(339,275,ls),
(335,286,o),
(326,288,o),
(319,278,c),
(100,0,l),
(10,0,l),
(286,341,l),
(292,347,o),
(293,353,o),
(289,361,c),
(161,667,l),
(256,667,l),
(349,425,l),
(353,413,o),
(362,412,o),
(369,421,cs)
);
}
);
width = 540;
}
);
unicode = 88;
},
{
glyphname = Y;
lastChange = "2024-12-23 19:10:23 +0000";
layers = (
{
anchors = (
{
name = bottom;
pos = (243,0);
},
{
name = top;
pos = (385,667);
},
{
name = topleft;
pos = (160,667);
}
);
layerId = "AEDC8BCA-1602-4327-8A1C-D108A778CE54";
name = Regular;
shapes = (
{
closed = 1;
nodes = (
(319,352,l),
(239,654,l),
(237,663,o),
(232,667,o),
(223,667,cs),
(164,667,ls),
(153,667,o),
(148,660,o),
(151,650,cs),
(263,277,l),
(208,16,ls),
(206,6,o),
(211,0,o),
(222,0,cs),
(271,0,ls),
(281,0,o),
(286,4,o),
(288,13,cs),
(343,277,l),
(613,649,ls),
(620,659,o),
(616,667,o),
(603,667,cs),
(548,667,ls),
(539,667,o),
(534,664,o),
(529,657,cs)
);
}
);
width = 490;
}
);
unicode = 89;
},
{
glyphname = Yacute;
layers = (
{
layerId = "AEDC8BCA-1602-4327-8A1C-D108A778CE54";
name = Regular;
shapes = (
{
closed = 1;
nodes = (
(516,865,l),
(540,800,l),
(346,705,l),
(325,757,l)
);
},
{
closed = 1;
nodes = (
(319,352,l),
(239,654,l),
(237,663,o),
(232,667,o),
(223,667,cs),
(164,667,ls),
(153,667,o),
(148,660,o),
(151,650,cs),
(263,277,l),
(208,16,ls),
(206,6,o),
(211,0,o),
(222,0,cs),
(271,0,ls),
(281,0,o),
(286,4,o),
(288,13,cs),
(343,277,l),
(613,649,ls),
(620,659,o),
(616,667,o),
(603,667,cs),
(548,667,ls),
(539,667,o),
(534,664,o),
(529,657,cs)
);
}
);
width = 490;
}
);
unicode = 221;
},
{
glyphname = Ydieresis;
layers = (
{
layerId = "AEDC8BCA-1602-4327-8A1C-D108A778CE54";
name = Regular;
shapes = (
{
closed = 1;
nodes = (
(278,721,o),
(294,700,o),
(320,700,cs),
(346,700,o),
(373,721,o),
(378,747,c),
(384,773,o),
(366,795,o),
(340,795,cs),
(314,795,o),
(289,773,o),
(283,747,c)
);
},
{
closed = 1;
nodes = (
(423,721,o),
(439,700,o),
(465,700,cs),
(491,700,o),
(518,721,o),
(523,747,c),
(529,773,o),
(511,795,o),
(485,795,cs),
(459,795,o),
(434,773,o),
(428,747,c)
);
},
{
closed = 1;
nodes = (
(319,352,l),
(239,654,l),
(237,663,o),
(232,667,o),
(223,667,cs),
(164,667,ls),
(153,667,o),
(148,660,o),
(151,650,cs),
(263,277,l),
(208,16,ls),
(206,6,o),
(211,0,o),
(222,0,cs),
(271,0,ls),
(281,0,o),
(286,4,o),
(288,13,cs),
(343,277,l),
(613,649,ls),
(620,659,o),
(616,667,o),
(603,667,cs),
(548,667,ls),
(539,667,o),
(534,664,o),
(529,657,cs)
);
}
);
width = 490;
}
);
unicode = 376;
},
{
glyphname = Z;
lastChange = "2024-12-23 20:34:31 +0000";
layers = (
{
anchors = (
{
name = bottom;
pos = (260,0);
},
{
name = center;
pos = (331,334);
},
{
name = top;
pos = (402,667);
}
);
layerId = "AEDC8BCA-1602-4327-8A1C-D108A778CE54";
name = Regular;
shapes = (
{
closed = 1;
nodes = (
(504,587,l),
(58,68,l),
(54,62,o),
(51,57,o),
(50,50,c),
(43,16,ls),
(41,6,o),
(46,0,o),
(57,0,cs),
(462,0,ls),
(471,0,o),
(476,4,o),
(480,12,c),
(501,68,ls),
(505,78,o),
(501,85,o),
(489,85,cs),
(174,85,l),
(619,605,l),
(623,611,o),
(626,616,o),
(627,623,c),
(633,651,ls),
(635,661,o),
(630,667,o),
(619,667,cs),
(220,667,ls),
(210,667,o),
(205,663,o),
(203,654,cs),
(192,603,ls),
(190,593,o),
(195,587,o),
(206,587,cs)
);
}
);
width = 535;
}
);
unicode = 90;
},
{
glyphname = Zcaron;
layers = (
{
layerId = "AEDC8BCA-1602-4327-8A1C-D108A778CE54";
name = Regular;
shapes = (
{
closed = 1;
nodes = (
(428,699,l),
(331,809,l),
(369,844,l),
(434,783,l),
(441,777,o),
(448,776,o),
(455,781,cs),
(549,844,l),
(571,809,l)
);
},
{
closed = 1;
nodes = (
(504,587,l),
(58,68,l),
(54,62,o),
(51,57,o),
(50,50,c),
(43,16,ls),
(41,6,o),
(46,0,o),
(57,0,cs),
(462,0,ls),
(471,0,o),
(476,4,o),
(480,12,c),
(501,68,ls),
(505,78,o),
(501,85,o),
(489,85,cs),
(174,85,l),
(619,605,l),
(623,611,o),
(626,616,o),
(627,623,c),
(633,651,ls),
(635,661,o),
(630,667,o),
(619,667,cs),
(220,667,ls),
(210,667,o),
(205,663,o),
(203,654,cs),
(192,603,ls),
(190,593,o),
(195,587,o),
(206,587,cs)
);
}
);
width = 535;
}
);
unicode = 381;
},
{
glyphname = a;
lastChange = "2024-12-23 19:42:12 +0000";
layers = (
{
anchors = (
{
name = bottom;
pos = (240,0);
},
{
name = ogonek;
pos = (440,10);
},
{
name = top;
pos = (346,500);
}
);
layerId = "AEDC8BCA-1602-4327-8A1C-D108A778CE54";
name = Regular;
shapes = (
{
closed = 1;
nodes = (
(390,65,o),
(398,27,o),
(422,-2,c),
(427,-7,o),
(434,-6,o),
(441,1,cs),
(480,40,ls),
(486,46,o),
(486,53,o),
(480,61,cs),
(436,118,o),
(478,252,o),
(483,275,cs),
(518,438,l),
(519,446,o),
(517,453,o),
(511,458,c),
(490,474,o),
(433,510,o),
(348,510,cs),
(198,510,o),
(110,380,o),
(83,250,cs),
(55,120,o),
(57,-10,o),
(187,-10,cs),
(237,-10,o),
(312,0,o),
(385,120,c)
);
},
{
closed = 1;
nodes = (
(142,60,o),
(142,152,o),
(163,250,cs),
(183,348,o),
(233,440,o),
(333,440,cs),
(403,440,o),
(437,410,o),
(437,410,c),
(417,210,o),
(302,60,o),
(222,60,cs)
);
}
);
width = 495;
}
);
unicode = 97;
},
{
glyphname = aacute;
layers = (
{
layerId = "AEDC8BCA-1602-4327-8A1C-D108A778CE54";
name = Regular;
shapes = (
{
closed = 1;
nodes = (
(480,740,l),
(503,675,l),
(310,580,l),
(289,632,l)
);
},
{
closed = 1;
nodes = (
(390,65,o),
(398,27,o),
(422,-2,c),
(427,-7,o),
(434,-6,o),
(441,1,cs),
(480,40,ls),
(486,46,o),
(486,53,o),
(480,61,cs),
(436,118,o),
(478,252,o),
(483,275,cs),
(518,438,l),
(519,446,o),
(517,453,o),
(511,458,c),
(490,474,o),
(433,510,o),
(348,510,cs),
(198,510,o),
(110,380,o),
(83,250,cs),
(55,120,o),
(57,-10,o),
(187,-10,cs),
(237,-10,o),
(312,0,o),
(385,120,c)
);
},
{
closed = 1;
nodes = (
(142,60,o),
(142,152,o),
(163,250,cs),
(183,348,o),
(233,440,o),
(333,440,cs),
(403,440,o),
(437,410,o),
(437,410,c),
(417,210,o),
(302,60,o),
(222,60,cs)
);
}
);
width = 495;
}
);
unicode = 225;
},
{
glyphname = acircumflex;
layers = (
{
layerId = "AEDC8BCA-1602-4327-8A1C-D108A778CE54";
name = Regular;
shapes = (
{
closed = 1;
nodes = (
(232,573,l),
(236,565,o),
(244,562,o),
(252,567,c),
(397,645,l),
(508,568,ls),
(515,563,o),
(522,563,o),
(529,570,c),
(546,589,l),
(553,596,o),
(553,604,o),
(545,610,c),
(424,716,ls),
(417,722,o),
(410,723,o),
(403,718,c),
(229,608,ls),
(221,603,o),
(219,596,o),
(224,587,cs)
);
},
{
closed = 1;
nodes = (
(390,65,o),
(398,27,o),
(422,-2,c),
(427,-7,o),
(434,-6,o),
(441,1,cs),
(480,40,ls),
(486,46,o),
(486,53,o),
(480,61,cs),
(436,118,o),
(478,252,o),
(483,275,cs),
(518,438,l),
(519,446,o),
(517,453,o),
(511,458,c),
(490,474,o),
(433,510,o),
(348,510,cs),
(198,510,o),
(110,380,o),
(83,250,cs),
(55,120,o),
(57,-10,o),
(187,-10,cs),
(237,-10,o),
(312,0,o),
(385,120,c)
);
},
{
closed = 1;
nodes = (
(142,60,o),
(142,152,o),
(163,250,cs),
(183,348,o),
(233,440,o),
(333,440,cs),
(403,440,o),
(437,410,o),
(437,410,c),
(417,210,o),
(302,60,o),
(222,60,cs)
);
}
);
width = 495;
}
);
unicode = 226;
},
{
glyphname = adieresis;
layers = (
{
layerId = "AEDC8BCA-1602-4327-8A1C-D108A778CE54";
name = Regular;
shapes = (
{
closed = 1;
nodes = (
(268,626,o),
(284,605,o),
(310,605,cs),
(336,605,o),
(363,626,o),
(368,652,c),
(374,678,o),
(356,700,o),
(330,700,cs),
(304,700,o),
(279,678,o),
(273,652,c)
);
},
{
closed = 1;
nodes = (
(413,626,o),
(429,605,o),
(455,605,cs),
(481,605,o),
(508,626,o),
(513,652,c),
(519,678,o),
(501,700,o),
(475,700,cs),
(449,700,o),
(424,678,o),
(418,652,c)
);
},
{
closed = 1;
nodes = (
(390,65,o),
(398,27,o),
(422,-2,c),
(427,-7,o),
(434,-6,o),
(441,1,cs),
(480,40,ls),
(486,46,o),
(486,53,o),
(480,61,cs),
(436,118,o),
(478,252,o),
(483,275,cs),
(518,438,l),
(519,446,o),
(517,453,o),
(511,458,c),
(490,474,o),
(433,510,o),
(348,510,cs),
(198,510,o),
(110,380,o),
(83,250,cs),
(55,120,o),
(57,-10,o),
(187,-10,cs),
(237,-10,o),
(312,0,o),
(385,120,c)
);
},
{
closed = 1;
nodes = (
(142,60,o),
(142,152,o),
(163,250,cs),
(183,348,o),
(233,440,o),
(333,440,cs),
(403,440,o),
(437,410,o),
(437,410,c),
(417,210,o),
(302,60,o),
(222,60,cs)
);
}
);
width = 495;
}
);
unicode = 228;
},
{
glyphname = agrave;
layers = (
{
layerId = "AEDC8BCA-1602-4327-8A1C-D108A778CE54";
name = Regular;
shapes = (
{
closed = 1;
nodes = (
(451,587,l),
(459,583,o),
(466,584,o),
(472,591,cs),
(496,620,ls),
(503,628,o),
(502,635,o),
(494,641,cs),
(373,731,ls),
(365,737,o),
(358,736,o),
(352,728,cs),
(320,688,ls),
(314,680,o),
(315,672,o),
(324,667,c)
);
},
{
closed = 1;
nodes = (
(390,65,o),
(398,27,o),
(422,-2,c),
(427,-7,o),
(434,-6,o),
(441,1,cs),
(480,40,ls),
(486,46,o),
(486,53,o),
(480,61,cs),
(436,118,o),
(478,252,o),
(483,275,cs),
(518,438,l),
(519,446,o),
(517,453,o),
(511,458,c),
(490,474,o),
(433,510,o),
(348,510,cs),
(198,510,o),
(110,380,o),
(83,250,cs),
(55,120,o),
(57,-10,o),
(187,-10,cs),
(237,-10,o),
(312,0,o),
(385,120,c)
);
},
{
closed = 1;
nodes = (
(142,60,o),
(142,152,o),
(163,250,cs),
(183,348,o),
(233,440,o),
(333,440,cs),
(403,440,o),
(437,410,o),
(437,410,c),
(417,210,o),
(302,60,o),
(222,60,cs)
);
}
);
width = 495;
}
);
unicode = 224;
},
{
glyphname = aring;
layers = (
{
layerId = "AEDC8BCA-1602-4327-8A1C-D108A778CE54";
name = Regular;
shapes = (
{
closed = 1;
nodes = (
(312,599,o),
(339,565,o),
(380,565,cs),
(421,565,o),
(462,599,o),
(471,640,cs),
(479,681,o),
(452,715,o),
(411,715,cs),
(370,715,o),
(329,681,o),
(321,640,cs)
);
},
{
closed = 1;
nodes = (
(365,659,o),
(384,675,o),
(403,675,cs),
(422,675,o),
(435,659,o),
(431,640,c),
(426,621,o),
(407,605,o),
(388,605,cs),
(369,605,o),
(356,621,o),
(361,640,c)
);
},
{
closed = 1;
nodes = (
(390,65,o),
(398,27,o),
(422,-2,c),
(427,-7,o),
(434,-6,o),
(441,1,cs),
(480,40,ls),
(486,46,o),
(486,53,o),
(480,61,cs),
(436,118,o),
(478,252,o),
(483,275,cs),
(518,438,l),
(519,446,o),
(517,453,o),
(511,458,c),
(490,474,o),
(433,510,o),
(348,510,cs),
(198,510,o),
(110,380,o),
(83,250,cs),
(55,120,o),
(57,-10,o),
(187,-10,cs),
(237,-10,o),
(312,0,o),
(385,120,c)
);
},
{
closed = 1;
nodes = (
(142,60,o),
(142,152,o),
(163,250,cs),
(183,348,o),
(233,440,o),
(333,440,cs),
(403,440,o),
(437,410,o),
(437,410,c),
(417,210,o),
(302,60,o),
(222,60,cs)
);
}
);
width = 495;
}
);
unicode = 229;
},
{
glyphname = atilde;
layers = (
{
layerId = "AEDC8BCA-1602-4327-8A1C-D108A778CE54";
name = Regular;
shapes = (
{
closed = 1;
nodes = (
(263,612,l),
(269,604,o),
(276,603,o),
(284,609,c),
(301,620,o),
(330,638,o),
(352,638,cs),
(418,638,o),
(407,588,o),
(475,588,cs),
(514,588,o),
(564,624,o),
(587,641,c),
(594,648,o),
(595,655,o),
(589,663,c),
(577,677,ls),
(571,684,o),
(564,685,o),
(556,679,cs),
(541,668,o),
(512,651,o),
(489,651,cs),
(421,651,o),
(431,701,o),
(366,701,cs),
(325,701,o),
(277,666,o),
(256,648,cs),
(249,642,o),
(248,635,o),
(253,627,cs)
);
},
{
closed = 1;
nodes = (
(390,65,o),
(398,27,o),
(422,-2,c),
(427,-7,o),
(434,-6,o),
(441,1,cs),
(480,40,ls),
(486,46,o),
(486,53,o),
(480,61,cs),
(436,118,o),
(478,252,o),
(483,275,cs),
(518,438,l),
(519,446,o),
(517,453,o),
(511,458,c),
(490,474,o),
(433,510,o),
(348,510,cs),
(198,510,o),
(110,380,o),
(83,250,cs),
(55,120,o),
(57,-10,o),
(187,-10,cs),
(237,-10,o),
(312,0,o),
(385,120,c)
);
},
{
closed = 1;
nodes = (
(142,60,o),
(142,152,o),
(163,250,cs),
(183,348,o),
(233,440,o),
(333,440,cs),
(403,440,o),
(437,410,o),
(437,410,c),
(417,210,o),
(302,60,o),
(222,60,cs)
);
}
);
width = 495;
}
);
unicode = 227;
},
{
glyphname = ae;
layers = (
{
layerId = "AEDC8BCA-1602-4327-8A1C-D108A778CE54";
name = Regular;
shapes = (
{
closed = 1;
nodes = (
(358,440,o),
(414,405,o),
(395,310,c),
(386,311,o),
(376,311,o),
(365,311,cs),
(250,311,o),
(85,283,o),
(57,155,cs),
(37,60,o),
(87,-10,o),
(197,-10,cs),
(261,-10,o),
(326,13,o),
(379,75,c),
(398,23,o),
(443,-10,o),
(522,-10,cs),
(599,-10,o),
(666,26,o),
(693,42,cs),
(701,47,o),
(702,54,o),
(697,63,cs),
(683,87,l),
(679,96,o),
(672,97,o),
(663,93,cs),
(640,82,o),
(589,60,o),
(537,60,cs),
(487,60,o),
(432,95,o),
(450,190,c),
(460,190,o),
(471,189,o),
(481,189,cs),
(596,189,o),
(761,217,o),
(788,345,cs),
(808,440,o),
(758,510,o),
(648,510,cs),
(584,510,o),
(518,486,o),
(466,424,c),
(446,476,o),
(402,510,o),
(323,510,cs),
(246,510,o),
(179,474,o),
(152,458,cs),
(144,453,o),
(143,446,o),
(148,437,cs),
(162,413,ls),
(167,404,o),
(174,403,o),
(183,407,cs),
(206,418,o),
(256,440,o),
(308,440,cs)
);
},
{
closed = 1;
nodes = (
(465,261,l),
(498,402,o),
(564,440,o),
(633,440,cs),
(693,440,o),
(720,400,o),
(708,345,cs),
(690,260,o),
(538,250,o),
(463,250,c)
);
},
{
closed = 1;
nodes = (
(380,239,l),
(347,98,o),
(280,60,o),
(212,60,cs),
(152,60,o),
(126,100,o),
(137,155,cs),
(156,240,o),
(308,250,o),
(383,250,c)
);
}
);
width = 740;
}
);
unicode = 230;
},
{
glyphname = b;
layers = (
{
layerId = "AEDC8BCA-1602-4327-8A1C-D108A778CE54";
name = Regular;
shapes = (
{
closed = 1;
nodes = (
(402,-10,o),
(490,120,o),
(518,250,cs),
(545,380,o),
(543,510,o),
(413,510,cs),
(363,510,o),
(277,480,o),
(228,400,c),
(290,686,ls),
(292,697,o),
(286,704,o),
(275,701,c),
(228,692,l),
(220,691,o),
(215,686,o),
(213,678,c),
(82,62,l),
(81,54,o),
(83,47,o),
(89,42,c),
(110,26,o),
(167,-10,o),
(252,-10,cs)
);
},
{
closed = 1;
nodes = (
(458,440,o),
(458,348,o),
(438,250,cs),
(417,152,o),
(367,60,o),
(267,60,cs),
(197,60,o),
(164,90,o),
(164,90,c),
(225,380,o),
(308,440,o),
(378,440,cs)
);
}
);
width = 505;
}
);
unicode = 98;
},
{
glyphname = c;
lastChange = "2024-12-23 19:42:45 +0000";
layers = (
{
anchors = (
{
name = bottom;
pos = (240,0);
},
{
name = top;
pos = (346,500);
}
);
layerId = "AEDC8BCA-1602-4327-8A1C-D108A778CE54";
name = Regular;
shapes = (
{
closed = 1;
nodes = (
(368,440,o),
(396,428,o),
(417,417,c),
(422,414,o),
(428,416,o),
(433,423,cs),
(461,462,ls),
(467,470,o),
(465,478,o),
(457,483,c),
(431,497,o),
(394,510,o),
(348,510,cs),
(198,510,o),
(110,380,o),
(83,250,cs),
(55,120,o),
(87,-10,o),
(237,-10,cs),
(286,-10,o),
(330,4,o),
(363,19,c),
(371,23,o),
(374,29,o),
(371,38,c),
(361,73,l),
(358,82,o),
(351,86,o),
(341,82,c),
(317,71,o),
(285,60,o),
(252,60,cs),
(152,60,o),
(142,152,o),
(163,250,cs),
(183,348,o),
(233,440,o),
(333,440,cs)
);
}
);
width = 400;
}
);
unicode = 99;
},
{
glyphname = ccedilla;
layers = (
{
layerId = "AEDC8BCA-1602-4327-8A1C-D108A778CE54";
name = Regular;
shapes = (
{
closed = 1;
nodes = (
(358,68,l),
(355,77,o),
(348,80,o),
(339,77,cs),
(314,68,o),
(283,60,o),
(252,60,cs),
(152,60,o),
(142,152,o),
(163,250,cs),
(183,348,o),
(233,440,o),
(333,440,cs),
(365,440,o),
(391,432,o),
(412,423,c),
(420,419,o),
(427,420,o),
(432,427,c),
(461,463,ls),
(467,471,o),
(466,479,o),
(457,484,c),
(430,497,o),
(393,510,o),
(348,510,cs),
(198,510,o),
(110,380,o),
(83,250,cs),
(56,126,o),
(84,2,o),
(218,-9,c),
(208,-56,ls),
(206,-67,o),
(211,-71,o),
(222,-70,c),
(228,-70,ls),
(245,-70,o),
(254,-77,o),
(251,-90,c),
(249,-103,o),
(236,-111,o),
(219,-111,cs),
(213,-111,o),
(205,-110,o),
(198,-108,c),
(190,-107,o),
(184,-107,o),
(178,-115,cs),
(173,-122,ls),
(167,-130,o),
(169,-138,o),
(178,-142,c),
(188,-147,o),
(200,-150,o),
(211,-150,cs),
(253,-150,o),
(288,-130,o),
(296,-90,cs),
(304,-53,o),
(277,-36,o),
(252,-36,c),
(258,-9,l),
(298,-6,o),
(333,5,o),
(362,18,cs),
(371,22,o),
(373,29,o),
(370,38,c)
);
}
);
width = 400;
}
);
unicode = 231;
},
{
glyphname = d;
lastChange = "2024-12-23 19:51:05 +0000";
layers = (
{
anchors = (
{
name = bottom;
pos = (240,0);
},
{
name = center;
pos = (478,600);
},
{
name = top;
pos = (346,500);
},
{
name = topright;
pos = (616,700);
}
);
layerId = "AEDC8BCA-1602-4327-8A1C-D108A778CE54";
name = Regular;
shapes = (
{
closed = 1;
nodes = (
(480,40,ls),
(486,46,o),
(486,53,o),
(480,61,cs),
(436,118,o),
(478,252,o),
(483,275,cs),
(509,405,o),
(555,618,o),
(568,675,cs),
(570,685,o),
(566,691,o),
(556,693,cs),
(514,702,ls),
(504,704,o),
(498,700,o),
(496,690,cs),
(454,489,l),
(426,500,o),
(391,510,o),
(348,510,cs),
(198,510,o),
(110,380,o),
(83,250,cs),
(55,120,o),
(57,-10,o),
(187,-10,cs),
(237,-10,o),
(312,0,o),
(385,120,c),
(389,77,o),
(410,30,o),
(422,6,cs),
(427,-4,o),
(435,-5,o),
(443,3,cs)
);
},
{
closed = 1;
nodes = (
(142,60,o),
(142,152,o),
(163,250,cs),
(183,348,o),
(233,440,o),
(333,440,cs),
(403,440,o),
(437,410,o),
(437,410,c),
(417,210,o),
(302,60,o),
(222,60,cs)
);
}
);
width = 495;
}
);
unicode = 100;
},
{
glyphname = eth;
layers = (
{
layerId = "AEDC8BCA-1602-4327-8A1C-D108A778CE54";
name = Regular;
shapes = (
{
closed = 1;
nodes = (
(532,363,o),
(546,531,o),
(444,618,c),
(495,660,ls),
(503,667,o),
(503,674,o),
(497,681,cs),
(480,701,l),
(473,708,o),
(466,709,o),
(459,702,c),
(396,650,l),
(361,666,o),
(319,675,o),
(267,677,c),
(258,677,o),
(252,673,o),
(250,664,cs),
(243,628,ls),
(241,618,o),
(246,612,o),
(257,612,c),
(284,611,o),
(311,607,o),
(335,599,c),
(228,510,ls),
(220,503,o),
(219,496,o),
(226,488,cs),
(241,470,l),
(247,462,o),
(254,461,o),
(262,468,cs),
(387,571,l),
(435,533,o),
(460,461,o),
(450,334,c),
(431,393,o),
(368,410,o),
(327,410,cs),
(177,410,o),
(92,295,o),
(72,200,cs),
(52,105,o),
(87,-10,o),
(237,-10,cs),
(387,-10,o),
(480,120,o),
(508,250,cs)
);
},
{
closed = 1;
nodes = (
(399,140,o),
(352,60,o),
(252,60,cs),
(152,60,o),
(139,140,o),
(152,200,cs),
(165,260,o),
(212,340,o),
(312,340,cs),
(412,340,o),
(425,260,o),
(412,200,cs)
);
}
);
width = 495;
}
);
unicode = 240;
},
{
glyphname = e;
lastChange = "2024-12-23 19:53:46 +0000";
layers = (
{
anchors = (
{
name = bottom;
pos = (240,0);
},
{
name = ogonek;
pos = (336,10);
},
{
name = top;
pos = (346,500);
}
);
layerId = "AEDC8BCA-1602-4327-8A1C-D108A778CE54";
name = Regular;
shapes = (
{
closed = 1;
nodes = (
(187,60,o),
(130,95,o),
(150,190,c),
(264,185,o),
(458,205,o),
(488,345,cs),
(508,440,o),
(458,510,o),
(348,510,cs),
(238,510,o),
(123,440,o),
(77,225,cs),
(50,95,o),
(82,-10,o),
(222,-10,cs),
(299,-10,o),
(366,26,o),
(393,42,cs),
(401,47,o),
(402,54,o),
(397,63,cs),
(383,87,l),
(379,96,o),
(372,97,o),
(363,93,cs),
(340,82,o),
(289,60,o),
(237,60,cs)
);
},
{
closed = 1;
nodes = (
(195,400,o),
(263,440,o),
(333,440,cs),
(393,440,o),
(420,400,o),
(408,345,cs),
(390,260,o),
(238,250,o),
(163,250,c)
);
}
);
width = 440;
}
);
unicode = 101;
},
{
glyphname = eacute;
layers = (
{
layerId = "AEDC8BCA-1602-4327-8A1C-D108A778CE54";
name = Regular;
shapes = (
{
closed = 1;
nodes = (
(455,740,l),
(478,675,l),
(285,580,l),
(264,632,l)
);
},
{
closed = 1;
nodes = (
(187,60,o),
(130,95,o),
(150,190,c),
(264,185,o),
(458,205,o),
(488,345,cs),
(508,440,o),
(458,510,o),
(348,510,cs),
(238,510,o),
(123,440,o),
(77,225,cs),
(50,95,o),
(82,-10,o),
(222,-10,cs),
(299,-10,o),
(366,26,o),
(393,42,cs),
(401,47,o),
(402,54,o),
(397,63,cs),
(383,87,l),
(379,96,o),
(372,97,o),
(363,93,cs),
(340,82,o),
(289,60,o),
(237,60,cs)
);
},
{
closed = 1;
nodes = (
(195,400,o),
(263,440,o),
(333,440,cs),
(393,440,o),
(420,400,o),
(408,345,cs),
(390,260,o),
(238,250,o),
(163,250,c)
);
}
);
width = 440;
}
);
unicode = 233;
},
{
glyphname = ecircumflex;
layers = (
{
layerId = "AEDC8BCA-1602-4327-8A1C-D108A778CE54";
name = Regular;
shapes = (
{
closed = 1;
nodes = (
(210,573,l),
(214,565,o),
(222,562,o),
(230,567,c),
(375,645,l),
(486,568,ls),
(493,563,o),
(500,563,o),
(507,570,c),
(524,589,l),
(531,596,o),
(531,604,o),
(523,610,c),
(402,716,ls),
(395,722,o),
(388,723,o),
(381,718,c),
(207,608,ls),
(199,603,o),
(197,596,o),
(202,587,cs)
);
},
{
closed = 1;
nodes = (
(187,60,o),
(130,95,o),
(150,190,c),
(264,185,o),
(458,205,o),
(488,345,cs),
(508,440,o),
(458,510,o),
(348,510,cs),
(238,510,o),
(123,440,o),
(77,225,cs),
(50,95,o),
(82,-10,o),
(222,-10,cs),
(299,-10,o),
(366,26,o),
(393,42,cs),
(401,47,o),
(402,54,o),
(397,63,cs),
(383,87,l),
(379,96,o),
(372,97,o),
(363,93,cs),
(340,82,o),
(289,60,o),
(237,60,cs)
);
},
{
closed = 1;
nodes = (
(195,400,o),
(263,440,o),
(333,440,cs),
(393,440,o),
(420,400,o),
(408,345,cs),
(390,260,o),
(238,250,o),
(163,250,c)
);
}
);
width = 440;
}
);
unicode = 234;
},
{
glyphname = edieresis;
layers = (
{
layerId = "AEDC8BCA-1602-4327-8A1C-D108A778CE54";
name = Regular;
shapes = (
{
closed = 1;
nodes = (
(258,626,o),
(274,605,o),
(300,605,cs),
(326,605,o),
(353,626,o),
(358,652,c),
(364,678,o),
(346,700,o),
(320,700,cs),
(294,700,o),
(269,678,o),
(263,652,c)
);
},
{
closed = 1;
nodes = (
(403,626,o),
(419,605,o),
(445,605,cs),
(471,605,o),
(498,626,o),
(503,652,c),
(509,678,o),
(491,700,o),
(465,700,cs),
(439,700,o),
(414,678,o),
(408,652,c)
);
},
{
closed = 1;
nodes = (
(187,60,o),
(130,95,o),
(150,190,c),
(264,185,o),
(458,205,o),
(488,345,cs),
(508,440,o),
(458,510,o),
(348,510,cs),
(238,510,o),
(123,440,o),
(77,225,cs),
(50,95,o),
(82,-10,o),
(222,-10,cs),
(299,-10,o),
(366,26,o),
(393,42,cs),
(401,47,o),
(402,54,o),
(397,63,cs),
(383,87,l),
(379,96,o),
(372,97,o),
(363,93,cs),
(340,82,o),
(289,60,o),
(237,60,cs)
);
},
{
closed = 1;
nodes = (
(195,400,o),
(263,440,o),
(333,440,cs),
(393,440,o),
(420,400,o),
(408,345,cs),
(390,260,o),
(238,250,o),
(163,250,c)
);
}
);
width = 440;
}
);
unicode = 235;
},
{
glyphname = egrave;
layers = (
{
layerId = "AEDC8BCA-1602-4327-8A1C-D108A778CE54";
name = Regular;
shapes = (
{
closed = 1;
nodes = (
(436,587,l),
(444,583,o),
(451,584,o),
(457,591,cs),
(481,620,ls),
(488,628,o),
(487,635,o),
(479,641,cs),
(358,731,ls),
(350,737,o),
(343,736,o),
(337,728,cs),
(305,688,ls),
(299,680,o),
(300,672,o),
(309,667,c)
);
},
{
closed = 1;
nodes = (
(187,60,o),
(130,95,o),
(150,190,c),
(264,185,o),
(458,205,o),
(488,345,cs),
(508,440,o),
(458,510,o),
(348,510,cs),
(238,510,o),
(123,440,o),
(77,225,cs),
(50,95,o),
(82,-10,o),
(222,-10,cs),
(299,-10,o),
(366,26,o),
(393,42,cs),
(401,47,o),
(402,54,o),
(397,63,cs),
(383,87,l),
(379,96,o),
(372,97,o),
(363,93,cs),
(340,82,o),
(289,60,o),
(237,60,cs)
);
},
{
closed = 1;
nodes = (
(195,400,o),
(263,440,o),
(333,440,cs),
(393,440,o),
(420,400,o),
(408,345,cs),
(390,260,o),
(238,250,o),
(163,250,c)
);
}
);
width = 440;
}
);
unicode = 232;
},
{
glyphname = f;
layers = (
{
layerId = "AEDC8BCA-1602-4327-8A1C-D108A778CE54";
name = Regular;
shapes = (
{
closed = 1;
nodes = (
(105,451,ls),
(103,441,o),
(108,435,o),
(119,435,cs),
(177,435,l),
(85,0,ls),
(75,-49,o),
(53,-105,o),
(14,-126,c),
(6,-131,o),
(3,-137,o),
(6,-146,c),
(26,-197,l),
(30,-206,o),
(37,-209,o),
(46,-205,c),
(77,-188,o),
(100,-157,o),
(125,-110,c),
(142,-81,o),
(152,-36,o),
(160,0,cs),
(252,435,l),
(360,435,ls),
(368,435,o),
(374,439,o),
(377,446,cs),
(393,482,ls),
(398,493,o),
(393,500,o),
(382,500,cs),
(265,500,l),
(279,577,o),
(295,640,o),
(361,640,cs),
(385,640,o),
(404,630,o),
(416,622,c),
(424,616,o),
(431,616,o),
(437,625,cs),
(464,663,ls),
(470,671,o),
(469,678,o),
(461,684,c),
(444,694,o),
(412,710,o),
(375,710,cs),
(244,710,o),
(214,611,o),
(191,500,c),
(130,500,ls),
(120,500,o),
(115,496,o),
(113,487,cs)
);
}
);
width = 310;
}
);
unicode = 102;
},
{
glyphname = g;
lastChange = "2024-12-23 19:58:51 +0000";
layers = (
{
anchors = (
{
name = bottom;
pos = (188,-200);
},
{
name = top;
pos = (346,500);
}
);
layerId = "AEDC8BCA-1602-4327-8A1C-D108A778CE54";
name = Regular;
shapes = (
{
closed = 1;
nodes = (
(385,119,l),
(367,20,ls),
(347,-75,o),
(309,-145,o),
(199,-145,cs),
(155,-145,o),
(126,-131,o),
(105,-119,c),
(97,-114,o),
(90,-116,o),
(85,-124,c),
(62,-157,ls),
(56,-165,o),
(58,-173,o),
(66,-178,c),
(95,-193,o),
(138,-210,o),
(185,-210,cs),
(355,-210,o),
(422,-101,o),
(435,50,cs),
(450,221,o),
(501,392,o),
(516,438,c),
(519,446,o),
(517,453,o),
(510,458,cs),
(489,474,o),
(433,510,o),
(348,510,cs),
(198,510,o),
(110,380,o),
(83,250,cs),
(55,120,o),
(57,-10,o),
(187,-10,cs),
(237,-10,o),
(312,0,o),
(385,120,c)
);
},
{
closed = 1;
nodes = (
(142,60,o),
(142,152,o),
(163,250,cs),
(183,348,o),
(233,440,o),
(333,440,cs),
(403,440,o),
(437,410,o),
(437,410,c),
(417,210,o),
(302,60,o),
(222,60,cs)
);
}
);
width = 495;
}
);
unicode = 103;
},
{
glyphname = h;
lastChange = "2024-12-23 21:21:19 +0000";
layers = (
{
anchors = (
{
name = bottom;
pos = (249,0);
},
{
name = center;
pos = (265,570);
},
{
name = top;
pos = (398,700);
}
);
layerId = "AEDC8BCA-1602-4327-8A1C-D108A778CE54";
name = Regular;
shapes = (
{
closed = 1;
nodes = (
(438,440,o),
(424,375,o),
(408,300,cs),
(348,16,ls),
(346,6,o),
(351,0,o),
(362,0,cs),
(411,0,ls),
(421,0,o),
(426,4,o),
(428,13,cs),
(488,300,ls),
(510,400,o),
(533,510,o),
(413,510,cs),
(363,510,o),
(277,480,o),
(228,400,c),
(290,684,l),
(292,695,o),
(287,701,o),
(276,699,cs),
(229,692,l),
(220,691,o),
(215,686,o),
(213,678,c),
(73,16,ls),
(71,6,o),
(76,0,o),
(87,0,cs),
(131,0,ls),
(141,0,o),
(146,5,o),
(148,14,cs),
(227,382,o),
(309,440,o),
(378,440,cs)
);
}
);
width = 485;
}
);
unicode = 104;
},
{
glyphname = i;
lastChange = "2024-12-23 20:16:50 +0000";
layers = (
{
anchors = (
{
name = bottom;
pos = (119,0);
}
);
layerId = "AEDC8BCA-1602-4327-8A1C-D108A778CE54";
name = Regular;
shapes = (
{
closed = 1;
nodes = (
(203,626,o),
(219,605,o),
(245,605,cs),
(271,605,o),
(298,626,o),
(303,652,c),
(309,678,o),
(291,700,o),
(265,700,cs),
(239,700,o),
(214,678,o),
(208,652,c)
);
},
{
closed = 1;
nodes = (
(83,16,ls),
(81,6,o),
(86,0,o),
(97,0,cs),
(141,0,ls),
(151,0,o),
(156,4,o),
(158,13,cs),
(258,486,l),
(260,498,o),
(254,504,o),
(243,501,c),
(196,492,l),
(188,491,o),
(183,486,o),
(181,478,c)
);
}
);
width = 235;
}
);
unicode = 105;
},
{
glyphname = dotlessi;
lastChange = "2024-12-23 20:10:49 +0000";
layers = (
{
anchors = (
{
name = bottom;
pos = (119,0);
},
{
name = ogonek;
pos = (155,0);
},
{
name = top;
pos = (225,500);
}
);
layerId = "AEDC8BCA-1602-4327-8A1C-D108A778CE54";
name = Regular;
shapes = (
{
closed = 1;
nodes = (
(83,16,ls),
(81,6,o),
(86,0,o),
(97,0,cs),
(141,0,ls),
(151,0,o),
(156,4,o),
(158,13,cs),
(258,486,l),
(260,498,o),
(254,504,o),
(243,501,c),
(196,492,l),
(188,491,o),
(183,486,o),
(181,478,c)
);
}
);
width = 235;
}
);
unicode = 305;
},
{
glyphname = iacute;
layers = (
{
layerId = "AEDC8BCA-1602-4327-8A1C-D108A778CE54";
name = Regular;
shapes = (
{
closed = 1;
nodes = (
(342,740,l),
(365,675,l),
(172,580,l),
(151,632,l)
);
},
{
closed = 1;
nodes = (
(83,16,ls),
(81,6,o),
(86,0,o),
(97,0,cs),
(141,0,ls),
(151,0,o),
(156,4,o),
(158,13,cs),
(258,486,l),
(260,498,o),
(254,504,o),
(243,501,c),
(196,492,l),
(188,491,o),
(183,486,o),
(181,478,c)
);
}
);
width = 240;
}
);
unicode = 237;
},
{
glyphname = icircumflex;
layers = (
{
layerId = "AEDC8BCA-1602-4327-8A1C-D108A778CE54";
name = Regular;
shapes = (
{
closed = 1;
nodes = (
(88,558,l),
(93,550,o),
(100,548,o),
(108,552,cs),
(253,630,l),
(364,553,ls),
(371,548,o),
(378,548,o),
(385,555,cs),
(403,574,ls),
(410,581,o),
(410,589,o),
(402,595,c),
(280,701,ls),
(273,707,o),
(266,708,o),
(259,703,c),
(86,593,ls),
(78,588,o),
(76,581,o),
(81,572,c)
);
},
{
closed = 1;
nodes = (
(83,16,ls),
(81,6,o),
(86,0,o),
(97,0,cs),
(141,0,ls),
(151,0,o),
(156,4,o),
(158,13,cs),
(258,486,l),
(260,498,o),
(254,504,o),
(243,501,c),
(196,492,l),
(188,491,o),
(183,486,o),
(181,478,c)
);
}
);
width = 240;
}
);
unicode = 238;
},
{
glyphname = idieresis;
layers = (
{
layerId = "AEDC8BCA-1602-4327-8A1C-D108A778CE54";
name = Regular;
shapes = (
{
closed = 1;
nodes = (
(133,626,o),
(149,605,o),
(175,605,cs),
(201,605,o),
(228,626,o),
(233,652,c),
(239,678,o),
(221,700,o),
(195,700,cs),
(169,700,o),
(144,678,o),
(138,652,c)
);
},
{
closed = 1;
nodes = (
(278,626,o),
(294,605,o),
(320,605,cs),
(346,605,o),
(373,626,o),
(378,652,c),
(384,678,o),
(366,700,o),
(340,700,cs),
(314,700,o),
(289,678,o),
(283,652,c)
);
},
{
closed = 1;
nodes = (
(83,16,ls),
(81,6,o),
(86,0,o),
(97,0,cs),
(141,0,ls),
(151,0,o),
(156,4,o),
(158,13,cs),
(258,486,l),
(260,498,o),
(254,504,o),
(243,501,c),
(196,492,l),
(188,491,o),
(183,486,o),
(181,478,c)
);
}
);
width = 240;
}
);
unicode = 239;
},
{
glyphname = igrave;
layers = (
{
layerId = "AEDC8BCA-1602-4327-8A1C-D108A778CE54";
name = Regular;
shapes = (
{
closed = 1;
nodes = (
(301,587,l),
(309,583,o),
(316,584,o),
(322,591,cs),
(346,620,ls),
(353,628,o),
(352,635,o),
(344,641,cs),
(223,731,ls),
(215,737,o),
(208,736,o),
(202,728,cs),
(170,688,ls),
(164,680,o),
(165,672,o),
(174,667,c)
);
},
{
closed = 1;
nodes = (
(83,16,ls),
(81,6,o),
(86,0,o),
(97,0,cs),
(141,0,ls),
(151,0,o),
(156,4,o),
(158,13,cs),
(258,486,l),
(260,498,o),
(254,504,o),
(243,501,c),
(196,492,l),
(188,491,o),
(183,486,o),
(181,478,c)
);
}
);
width = 240;
}
);
unicode = 236;
},
{
glyphname = j;
layers = (
{
layerId = "AEDC8BCA-1602-4327-8A1C-D108A778CE54";
name = Regular;
shapes = (
{
closed = 1;
nodes = (
(193,626,o),
(209,605,o),
(235,605,cs),
(261,605,o),
(288,626,o),
(293,652,c),
(299,678,o),
(281,700,o),
(255,700,cs),
(229,700,o),
(204,678,o),
(198,652,c)
);
},
{
closed = 1;
nodes = (
(70,0,ls),
(60,-49,o),
(38,-105,o),
(-1,-126,c),
(-9,-131,o),
(-12,-137,o),
(-9,-146,c),
(11,-197,l),
(15,-206,o),
(22,-209,o),
(31,-205,c),
(62,-188,o),
(85,-157,o),
(110,-110,c),
(127,-81,o),
(137,-36,o),
(145,0,cs),
(248,486,l),
(250,498,o),
(244,504,o),
(233,501,c),
(186,492,l),
(178,491,o),
(173,486,o),
(171,478,c)
);
}
);
width = 225;
}
);
unicode = 106;
},
{
glyphname = jdotless;
lastChange = "2024-12-23 19:07:36 +0000";
layers = (
{
anchors = (
{
name = bottom;
pos = (66,-200);
},
{
name = top;
pos = (215,500);
}
);
layerId = "AEDC8BCA-1602-4327-8A1C-D108A778CE54";
shapes = (
{
closed = 1;
nodes = (
(70,0,ls),
(60,-49,o),
(38,-105,o),
(-1,-126,c),
(-9,-131,o),
(-12,-137,o),
(-9,-146,c),
(11,-197,l),
(15,-206,o),
(22,-209,o),
(31,-205,c),
(62,-188,o),
(85,-157,o),
(110,-110,c),
(127,-81,o),
(137,-36,o),
(145,0,cs),
(248,486,l),
(250,498,o),
(244,504,o),
(233,501,c),
(186,492,l),
(178,491,o),
(173,486,o),
(171,478,c)
);
}
);
width = 225;
}
);
unicode = 567;
},
{
glyphname = k;
lastChange = "2024-12-23 20:20:51 +0000";
layers = (
{
anchors = (
{
name = bottom;
pos = (249,0);
},
{
name = top;
pos = (398,700);
}
);
layerId = "AEDC8BCA-1602-4327-8A1C-D108A778CE54";
name = Regular;
shapes = (
{
closed = 1;
nodes = (
(502,482,l),
(512,491,o),
(508,500,o),
(495,500,cs),
(447,500,ls),
(439,500,o),
(434,498,o),
(428,492,cs),
(201,265,l),
(290,686,l),
(292,698,o),
(286,704,o),
(275,701,c),
(228,692,l),
(220,691,o),
(215,686,o),
(213,678,c),
(73,16,ls),
(71,6,o),
(76,0,o),
(87,0,cs),
(131,0,ls),
(141,0,o),
(146,4,o),
(148,13,cs),
(198,254,l),
(198,254,o),
(330,23,o),
(412,-7,c),
(419,-10,o),
(425,-7,o),
(431,-1,c),
(464,36,ls),
(471,44,o),
(468,51,o),
(458,55,cs),
(380,88,o),
(280,260,o),
(280,260,c)
);
}
);
width = 435;
}
);
unicode = 107;
},
{
glyphname = l;
lastChange = "2024-12-23 20:22:33 +0000";
layers = (
{
anchors = (
{
name = bottom;
pos = (108,0);
},
{
name = center;
pos = (161,250);
},
{
name = top;
pos = (257,700);
},
{
name = topright;
pos = (324,700);
}
);
layerId = "AEDC8BCA-1602-4327-8A1C-D108A778CE54";
name = Regular;
shapes = (
{
closed = 1;
nodes = (
(113,200,ls),
(90,93,o),
(78,-3,o),
(194,-10,c),
(203,-10,o),
(209,-6,o),
(211,3,cs),
(220,45,ls),
(222,54,o),
(217,59,o),
(207,61,cs),
(159,71,o),
(171,130,o),
(187,200,cs),
(290,686,l),
(292,698,o),
(286,704,o),
(275,701,c),
(228,692,l),
(220,691,o),
(215,686,o),
(213,678,c)
);
}
);
width = 248;
}
);
unicode = 108;
},
{
glyphname = lslash;
layers = (
{
layerId = "AEDC8BCA-1602-4327-8A1C-D108A778CE54";
name = Regular;
shapes = (
{
closed = 1;
nodes = (
(85,268,ls),
(92,260,o),
(99,259,o),
(107,266,cs),
(142,295,l),
(122,200,ls),
(98,89,o),
(77,-10,o),
(167,-10,cs),
(186,-10,o),
(201,-8,o),
(210,-5,c),
(218,-3,o),
(222,3,o),
(221,12,c),
(220,44,l),
(219,54,o),
(205,58,o),
(205,58,cs),
(166,58,o),
(179,116,o),
(197,200,cs),
(233,370,l),
(340,458,ls),
(348,465,o),
(348,472,o),
(342,479,cs),
(325,499,l),
(318,506,o),
(311,507,o),
(304,500,c),
(252,457,l),
(300,684,ls),
(302,695,o),
(297,701,o),
(286,699,cs),
(239,692,l),
(230,691,o),
(225,686,o),
(223,678,c),
(160,381,l),
(72,308,l),
(65,301,o),
(64,294,o),
(70,286,c)
);
}
);
width = 270;
}
);
unicode = 322;
},
{
glyphname = m;
layers = (
{
layerId = "AEDC8BCA-1602-4327-8A1C-D108A778CE54";
name = Regular;
shapes = (
{
closed = 1;
nodes = (
(683,440,o),
(669,375,o),
(653,300,cs),
(593,16,ls),
(591,6,o),
(596,0,o),
(607,0,cs),
(656,0,ls),
(666,0,o),
(671,4,o),
(673,13,cs),
(733,300,ls),
(755,400,o),
(778,510,o),
(658,510,cs),
(598,510,o),
(518,480,o),
(478,400,c),
(487,480,o),
(438,510,o),
(398,510,cs),
(338,510,o),
(262,480,o),
(224,400,c),
(231,488,l),
(231,498,o),
(226,504,o),
(215,502,cs),
(167,493,ls),
(158,491,o),
(154,485,o),
(154,476,c),
(153,448,o),
(150,377,o),
(133,300,cs),
(73,16,ls),
(71,6,o),
(76,0,o),
(87,0,cs),
(131,0,ls),
(141,0,o),
(146,5,o),
(148,14,cs),
(227,381,o),
(294,440,o),
(363,440,cs),
(423,440,o),
(409,375,o),
(393,300,cs),
(333,16,ls),
(331,6,o),
(336,0,o),
(347,0,cs),
(391,0,ls),
(401,0,o),
(406,5,o),
(408,14,cs),
(487,382,o),
(554,440,o),
(623,440,cs)
);
}
);
width = 730;
}
);
unicode = 109;
},
{
glyphname = n;
lastChange = "2024-12-23 20:23:59 +0000";
layers = (
{
anchors = (
{
name = bottom;
pos = (249,0);
},
{
name = top;
pos = (355,500);
}
);
layerId = "AEDC8BCA-1602-4327-8A1C-D108A778CE54";
name = Regular;
shapes = (
{
closed = 1;
nodes = (
(438,440,o),
(424,375,o),
(408,300,cs),
(348,16,ls),
(346,6,o),
(351,0,o),
(362,0,cs),
(411,0,ls),
(420,0,o),
(426,4,o),
(428,13,c),
(433,41,o),
(449,116,o),
(488,300,cs),
(510,400,o),
(533,510,o),
(413,510,cs),
(363,510,o),
(272,480,o),
(223,400,c),
(231,488,l),
(231,498,o),
(225,504,o),
(215,502,cs),
(167,493,ls),
(158,491,o),
(154,485,o),
(154,476,c),
(153,448,o),
(150,377,o),
(133,301,cs),
(73,16,ls),
(71,6,o),
(76,0,o),
(87,0,cs),
(131,0,ls),
(141,0,o),
(146,5,o),
(148,14,cs),
(227,382,o),
(309,440,o),
(378,440,cs)
);
}
);
width = 485;
}
);
unicode = 110;
},
{
glyphname = ntilde;
layers = (
{
layerId = "AEDC8BCA-1602-4327-8A1C-D108A778CE54";
name = Regular;
shapes = (
{
closed = 1;
nodes = (
(223,612,l),
(229,604,o),
(236,603,o),
(244,609,c),
(261,620,o),
(290,638,o),
(312,638,cs),
(378,638,o),
(367,588,o),
(435,588,cs),
(474,588,o),
(524,624,o),
(547,641,c),
(554,648,o),
(555,655,o),
(549,663,c),
(537,677,ls),
(531,684,o),
(524,685,o),
(516,679,cs),
(501,668,o),
(472,651,o),
(449,651,cs),
(381,651,o),
(391,701,o),
(326,701,cs),
(285,701,o),
(237,666,o),
(216,648,cs),
(209,642,o),
(208,635,o),
(213,627,cs)
);
},
{
closed = 1;
nodes = (
(438,440,o),
(424,375,o),
(408,300,cs),
(348,16,ls),
(346,6,o),
(351,0,o),
(362,0,cs),
(411,0,ls),
(420,0,o),
(426,4,o),
(428,13,c),
(433,41,o),
(449,116,o),
(488,300,cs),
(510,400,o),
(533,510,o),
(393,510,cs),
(343,510,o),
(272,480,o),
(233,440,c),
(240,487,l),
(241,498,o),
(235,504,o),
(224,501,c),
(177,492,l),
(168,491,o),
(164,486,o),
(163,477,cs),
(159,449,o),
(150,378,o),
(133,301,cs),
(73,16,ls),
(71,6,o),
(76,0,o),
(87,0,cs),
(131,0,ls),
(141,0,o),
(146,4,o),
(148,13,cs),
(225,380,l),
(225,380,o),
(288,440,o),
(358,440,cs)
);
}
);
width = 485;
}
);
unicode = 241;
},
{
glyphname = o;
lastChange = "2024-12-23 20:26:41 +0000";
layers = (
{
anchors = (
{
name = bottom;
pos = (240,0);
},
{
name = center;
pos = (240,250);
},
{
name = ogonek;
pos = (381,10);
},
{
name = top;
pos = (346,500);
},
{
name = topright;
pos = (513,500);
}
);
layerId = "AEDC8BCA-1602-4327-8A1C-D108A778CE54";
name = Regular;
shapes = (
{
closed = 1;
nodes = (
(55,120,o),
(87,-10,o),
(237,-10,cs),
(387,-10,o),
(475,120,o),
(503,250,cs),
(530,380,o),
(498,510,o),
(348,510,cs),
(198,510,o),
(110,380,o),
(83,250,cs)
);
},
{
closed = 1;
nodes = (
(183,348,o),
(233,440,o),
(333,440,cs),
(433,440,o),
(443,348,o),
(423,250,cs),
(402,152,o),
(352,60,o),
(252,60,cs),
(152,60,o),
(142,152,o),
(163,250,cs)
);
}
);
width = 480;
}
);
unicode = 111;
},
{
glyphname = oacute;
layers = (
{
layerId = "AEDC8BCA-1602-4327-8A1C-D108A778CE54";
name = Regular;
shapes = (
{
closed = 1;
nodes = (
(463,740,l),
(486,675,l),
(293,580,l),
(272,632,l)
);
},
{
closed = 1;
nodes = (
(55,120,o),
(87,-10,o),
(237,-10,cs),
(387,-10,o),
(475,120,o),
(503,250,cs),
(530,380,o),
(498,510,o),
(348,510,cs),
(198,510,o),
(110,380,o),
(83,250,cs)
);
},
{
closed = 1;
nodes = (
(183,348,o),
(233,440,o),
(333,440,cs),
(433,440,o),
(443,348,o),
(423,250,cs),
(402,152,o),
(352,60,o),
(252,60,cs),
(152,60,o),
(142,152,o),
(163,250,cs)
);
}
);
width = 480;
}
);
unicode = 243;
},
{
glyphname = ocircumflex;
layers = (
{
layerId = "AEDC8BCA-1602-4327-8A1C-D108A778CE54";
name = Regular;
shapes = (
{
closed = 1;
nodes = (
(212,573,l),
(216,565,o),
(224,562,o),
(232,567,c),
(377,645,l),
(488,568,ls),
(495,563,o),
(502,563,o),
(509,570,c),
(526,589,l),
(533,596,o),
(533,604,o),
(525,610,c),
(404,716,ls),
(397,722,o),
(390,723,o),
(383,718,c),
(209,608,ls),
(201,603,o),
(199,596,o),
(204,587,cs)
);
},
{
closed = 1;
nodes = (
(55,120,o),
(87,-10,o),
(237,-10,cs),
(387,-10,o),
(475,120,o),
(503,250,cs),
(530,380,o),
(498,510,o),
(348,510,cs),
(198,510,o),
(110,380,o),
(83,250,cs)
);
},
{
closed = 1;
nodes = (
(183,348,o),
(233,440,o),
(333,440,cs),
(433,440,o),
(443,348,o),
(423,250,cs),
(402,152,o),
(352,60,o),
(252,60,cs),
(152,60,o),
(142,152,o),
(163,250,cs)
);
}
);
width = 480;
}
);
unicode = 244;
},
{
glyphname = odieresis;
layers = (
{
layerId = "AEDC8BCA-1602-4327-8A1C-D108A778CE54";
name = Regular;
shapes = (
{
closed = 1;
nodes = (
(253,626,o),
(269,605,o),
(295,605,cs),
(321,605,o),
(348,626,o),
(353,652,c),
(359,678,o),
(341,700,o),
(315,700,cs),
(289,700,o),
(264,678,o),
(258,652,c)
);
},
{
closed = 1;
nodes = (
(398,626,o),
(414,605,o),
(440,605,cs),
(466,605,o),
(493,626,o),
(498,652,c),
(504,678,o),
(486,700,o),
(460,700,cs),
(434,700,o),
(409,678,o),
(403,652,c)
);
},
{
closed = 1;
nodes = (
(55,120,o),
(87,-10,o),
(237,-10,cs),
(387,-10,o),
(475,120,o),
(503,250,cs),
(530,380,o),
(498,510,o),
(348,510,cs),
(198,510,o),
(110,380,o),
(83,250,cs)
);
},
{
closed = 1;
nodes = (
(183,348,o),
(233,440,o),
(333,440,cs),
(433,440,o),
(443,348,o),
(423,250,cs),
(402,152,o),
(352,60,o),
(252,60,cs),
(152,60,o),
(142,152,o),
(163,250,cs)
);
}
);
width = 480;
}
);
unicode = 246;
},
{
glyphname = ograve;
layers = (
{
layerId = "AEDC8BCA-1602-4327-8A1C-D108A778CE54";
name = Regular;
shapes = (
{
closed = 1;
nodes = (
(421,587,l),
(429,583,o),
(436,584,o),
(442,591,cs),
(466,620,ls),
(473,628,o),
(472,635,o),
(464,641,cs),
(343,731,ls),
(335,737,o),
(328,736,o),
(322,728,cs),
(290,688,ls),
(284,680,o),
(285,672,o),
(294,667,c)
);
},
{
closed = 1;
nodes = (
(55,120,o),
(87,-10,o),
(237,-10,cs),
(387,-10,o),
(475,120,o),
(503,250,cs),
(530,380,o),
(498,510,o),
(348,510,cs),
(198,510,o),
(110,380,o),
(83,250,cs)
);
},
{
closed = 1;
nodes = (
(183,348,o),
(233,440,o),
(333,440,cs),
(433,440,o),
(443,348,o),
(423,250,cs),
(402,152,o),
(352,60,o),
(252,60,cs),
(152,60,o),
(142,152,o),
(163,250,cs)
);
}
);
width = 480;
}
);
unicode = 242;
},
{
glyphname = oslash;
layers = (
{
layerId = "AEDC8BCA-1602-4327-8A1C-D108A778CE54";
name = Regular;
shapes = (
{
closed = 1;
nodes = (
(100,5,ls),
(94,-3,o),
(96,-11,o),
(105,-16,c),
(115,-21,l),
(124,-26,o),
(131,-24,o),
(136,-16,cs),
(152,8,l),
(175,-3,o),
(203,-10,o),
(237,-10,cs),
(387,-10,o),
(475,120,o),
(503,250,cs),
(520,332,o),
(513,414,o),
(468,464,c),
(489,495,l),
(495,503,o),
(493,511,o),
(484,516,c),
(474,521,l),
(466,526,o),
(459,524,o),
(454,516,c),
(434,489,l),
(411,502,o),
(383,510,o),
(348,510,cs),
(198,510,o),
(110,380,o),
(83,250,cs),
(65,166,o),
(72,82,o),
(120,33,c)
);
},
{
closed = 1;
nodes = (
(183,348,o),
(233,440,o),
(333,440,cs),
(357,440,o),
(376,434,o),
(390,425,c),
(169,104,l),
(149,140,o),
(151,194,o),
(163,250,cs)
);
},
{
closed = 1;
nodes = (
(402,152,o),
(352,60,o),
(252,60,cs),
(229,60,o),
(211,64,o),
(197,73,c),
(418,392,l),
(435,356,o),
(434,304,o),
(423,250,cs)
);
}
);
width = 490;
}
);
unicode = 248;
},
{
glyphname = otilde;
layers = (
{
layerId = "AEDC8BCA-1602-4327-8A1C-D108A778CE54";
name = Regular;
shapes = (
{
closed = 1;
nodes = (
(218,612,l),
(224,604,o),
(231,603,o),
(239,609,c),
(256,620,o),
(285,638,o),
(307,638,cs),
(373,638,o),
(362,588,o),
(430,588,cs),
(469,588,o),
(519,624,o),
(542,641,c),
(549,648,o),
(550,655,o),
(544,663,c),
(532,677,ls),
(526,684,o),
(519,685,o),
(511,679,cs),
(496,668,o),
(467,651,o),
(444,651,cs),
(376,651,o),
(386,701,o),
(321,701,cs),
(280,701,o),
(232,666,o),
(211,648,cs),
(204,642,o),
(203,635,o),
(208,627,cs)
);
},
{
closed = 1;
nodes = (
(55,120,o),
(87,-10,o),
(237,-10,cs),
(387,-10,o),
(475,120,o),
(503,250,cs),
(530,380,o),
(498,510,o),
(348,510,cs),
(198,510,o),
(110,380,o),
(83,250,cs)
);
},
{
closed = 1;
nodes = (
(183,348,o),
(233,440,o),
(333,440,cs),
(433,440,o),
(443,348,o),
(423,250,cs),
(402,152,o),
(352,60,o),
(252,60,cs),
(152,60,o),
(142,152,o),
(163,250,cs)
);
}
);
width = 480;
}
);
unicode = 245;
},
{
glyphname = oe;
layers = (
{
layerId = "AEDC8BCA-1602-4327-8A1C-D108A778CE54";
name = Regular;
shapes = (
{
closed = 1;
nodes = (
(527,60,o),
(472,95,o),
(490,190,c),
(604,185,o),
(798,205,o),
(828,345,cs),
(848,440,o),
(798,510,o),
(688,510,cs),
(621,510,o),
(551,483,o),
(497,414,c),
(477,471,o),
(430,510,o),
(348,510,cs),
(198,510,o),
(110,380,o),
(83,250,cs),
(55,120,o),
(87,-10,o),
(237,-10,cs),
(314,-10,o),
(375,24,o),
(419,75,c),
(438,23,o),
(483,-10,o),
(562,-10,cs),
(639,-10,o),
(706,26,o),
(733,42,cs),
(741,47,o),
(742,54,o),
(737,63,cs),
(723,87,l),
(719,96,o),
(712,97,o),
(703,93,cs),
(680,82,o),
(629,60,o),
(577,60,cs)
);
},
{
closed = 1;
nodes = (
(183,348,o),
(233,440,o),
(333,440,cs),
(433,440,o),
(443,348,o),
(423,250,cs),
(402,152,o),
(352,60,o),
(252,60,cs),
(152,60,o),
(142,152,o),
(163,250,cs)
);
},
{
closed = 1;
nodes = (
(535,400,o),
(603,440,o),
(673,440,cs),
(733,440,o),
(760,400,o),
(748,345,cs),
(730,260,o),
(578,250,o),
(503,250,c)
);
}
);
width = 780;
}
);
unicode = 339;
},
{
glyphname = p;
layers = (
{
layerId = "AEDC8BCA-1602-4327-8A1C-D108A778CE54";
name = Regular;
shapes = (
{
closed = 1;
nodes = (
(363,510,o),
(272,480,o),
(223,400,c),
(230,487,ls),
(231,498,o),
(225,504,o),
(215,502,cs),
(167,492,l),
(158,491,o),
(154,486,o),
(153,477,cs),
(133,300,l),
(153,391,o),
(51,-89,o),
(31,-180,cs),
(29,-190,o),
(33,-196,o),
(43,-198,cs),
(85,-207,ls),
(95,-209,o),
(101,-205,o),
(103,-195,cs),
(149,20,l),
(196,-10,o),
(237,-10,o),
(252,-10,cs),
(402,-10,o),
(490,120,o),
(518,250,cs),
(545,380,o),
(543,510,o),
(413,510,cs)
);
},
{
closed = 1;
nodes = (
(197,60,o),
(164,90,o),
(164,90,c),
(225,380,o),
(308,440,o),
(378,440,cs),
(458,440,o),
(458,348,o),
(438,250,cs),
(417,152,o),
(367,60,o),
(267,60,cs)
);
}
);
width = 495;
}
);
unicode = 112;
},
{
glyphname = thorn;
layers = (
{
layerId = "AEDC8BCA-1602-4327-8A1C-D108A778CE54";
name = Regular;
shapes = (
{
closed = 1;
nodes = (
(323,510,o),
(283,497,o),
(245,475,c),
(289,684,l),
(292,694,o),
(287,700,o),
(276,700,cs),
(232,700,ls),
(222,700,o),
(217,696,o),
(215,687,cs),
(30,-183,ls),
(28,-193,o),
(33,-199,o),
(44,-199,cs),
(88,-199,ls),
(98,-199,o),
(103,-195,o),
(105,-186,cs),
(153,38,l),
(181,2,o),
(221,-10,o),
(252,-10,cs),
(402,-10,o),
(490,120,o),
(518,250,cs),
(545,380,o),
(513,510,o),
(363,510,cs)
);
},
{
closed = 1;
nodes = (
(225,60,o),
(192,79,o),
(166,101,c),
(229,399,l),
(265,421,o),
(306,440,o),
(348,440,cs),
(448,440,o),
(458,348,o),
(438,250,cs),
(417,152,o),
(367,60,o),
(267,60,cs)
);
}
);
width = 495;
}
);
unicode = 254;
},
{
glyphname = q;
layers = (
{
layerId = "AEDC8BCA-1602-4327-8A1C-D108A778CE54";
name = Regular;
shapes = (
{
closed = 1;
nodes = (
(310,-191,ls),
(307,-202,o),
(313,-208,o),
(324,-206,cs),
(371,-197,l),
(379,-196,o),
(384,-191,o),
(386,-183,c),
(518,438,l),
(519,446,o),
(517,453,o),
(511,458,c),
(490,474,o),
(433,510,o),
(348,510,cs),
(198,510,o),
(110,380,o),
(83,250,cs),
(55,120,o),
(57,-10,o),
(187,-10,cs),
(237,-10,o),
(312,0,o),
(385,120,c)
);
},
{
closed = 1;
nodes = (
(142,60,o),
(142,152,o),
(163,250,cs),
(183,348,o),
(233,440,o),
(333,440,cs),
(403,440,o),
(437,410,o),
(437,410,c),
(417,210,o),
(302,60,o),
(222,60,cs)
);
}
);
width = 495;
}
);
unicode = 113;
},
{
glyphname = r;
lastChange = "2024-12-23 20:28:10 +0000";
layers = (
{
anchors = (
{
name = bottom;
pos = (109,0);
},
{
name = top;
pos = (215,500);
}
);
layerId = "AEDC8BCA-1602-4327-8A1C-D108A778CE54";
name = Regular;
shapes = (
{
closed = 1;
nodes = (
(380,430,o),
(388,428,o),
(392,427,c),
(394,426,o),
(397,430,o),
(401,438,cs),
(425,490,ls),
(429,499,o),
(426,507,o),
(416,509,c),
(413,510,o),
(410,510,o),
(403,510,cs),
(352,510,o),
(272,485,o),
(222,400,c),
(230,488,ls),
(231,498,o),
(225,504,o),
(215,502,cs),
(167,493,ls),
(158,491,o),
(154,485,o),
(154,476,cs),
(153,447,o),
(150,376,o),
(133,299,cs),
(73,16,ls),
(71,6,o),
(76,0,o),
(87,0,cs),
(131,0,ls),
(141,0,o),
(146,5,o),
(148,14,cs),
(227,381,o),
(299,430,o),
(368,430,cs)
);
}
);
width = 315;
}
);
unicode = 114;
},
{
glyphname = s;
lastChange = "2024-12-23 20:29:16 +0000";
layers = (
{
anchors = (
{
name = bottom;
pos = (177,0);
},
{
name = top;
pos = (283,500);
}
);
layerId = "AEDC8BCA-1602-4327-8A1C-D108A778CE54";
name = Regular;
shapes = (
{
closed = 1;
nodes = (
(98,315,o),
(138,264,o),
(216,230,cs),
(265,209,o),
(316,184,o),
(305,135,cs),
(294,80,o),
(250,50,o),
(190,60,cs),
(147,67,o),
(113,85,o),
(96,96,cs),
(88,101,o),
(81,100,o),
(75,92,cs),
(44,50,ls),
(38,42,o),
(40,34,o),
(49,29,c),
(71,18,o),
(118,-3,o),
(175,-10,cs),
(285,-24,o),
(365,30,o),
(385,125,cs),
(406,224,o),
(339,271,o),
(252,305,cs),
(202,324,o),
(179,355,o),
(187,393,cs),
(196,437,o),
(246,449,o),
(281,445,cs),
(314,441,o),
(341,429,o),
(361,419,c),
(369,414,o),
(376,415,o),
(382,422,cs),
(408,453,ls),
(414,460,o),
(413,468,o),
(404,473,c),
(379,489,o),
(342,506,o),
(296,510,cs),
(211,518,o),
(135,487,o),
(117,403,cs)
);
}
);
width = 378;
}
);
unicode = 115;
},
{
glyphname = scaron;
layers = (
{
layerId = "AEDC8BCA-1602-4327-8A1C-D108A778CE54";
name = Regular;
shapes = (
{
closed = 1;
nodes = (
(307,555,l),
(211,665,l),
(248,700,l),
(313,639,l),
(320,633,o),
(327,632,o),
(334,637,cs),
(428,700,l),
(451,665,l)
);
},
{
closed = 1;
nodes = (
(98,315,o),
(138,264,o),
(216,230,cs),
(265,209,o),
(316,184,o),
(305,135,cs),
(294,80,o),
(250,50,o),
(190,60,cs),
(147,67,o),
(113,85,o),
(96,96,cs),
(88,101,o),
(81,100,o),
(75,92,cs),
(44,50,ls),
(38,42,o),
(40,34,o),
(49,29,c),
(71,18,o),
(118,-3,o),
(175,-10,cs),
(285,-24,o),
(365,30,o),
(385,125,cs),
(406,224,o),
(339,271,o),
(252,305,cs),
(202,324,o),
(179,355,o),
(187,393,cs),
(196,437,o),
(246,449,o),
(281,445,cs),
(314,441,o),
(341,429,o),
(361,419,c),
(369,414,o),
(376,416,o),
(382,423,c),
(408,457,ls),
(414,465,o),
(413,473,o),
(404,478,cs),
(379,492,o),
(342,506,o),
(296,510,cs),
(211,518,o),
(135,487,o),
(117,403,cs)
);
}
);
width = 380;
}
);
unicode = 353;
},
{
glyphname = germandbls;
layers = (
{
layerId = "AEDC8BCA-1602-4327-8A1C-D108A778CE54";
name = Regular;
shapes = (
{
closed = 1;
nodes = (
(241,500,ls),
(262,600,o),
(299,655,o),
(374,655,cs),
(439,655,o),
(460,625,o),
(450,575,cs),
(437,515,o),
(293,493,o),
(274,403,cs),
(255,315,o),
(295,264,o),
(373,230,cs),
(422,209,o),
(473,184,o),
(462,135,cs),
(451,80,o),
(407,50,o),
(347,60,cs),
(304,67,o),
(270,85,o),
(253,96,cs),
(245,101,o),
(238,100,o),
(232,92,cs),
(201,50,ls),
(195,42,o),
(197,34,o),
(206,29,c),
(228,18,o),
(275,-3,o),
(332,-10,cs),
(442,-24,o),
(522,30,o),
(542,125,cs),
(563,224,o),
(496,271,o),
(409,305,cs),
(359,324,o),
(336,355,o),
(344,393,cs),
(359,463,o),
(499,470,o),
(523,580,cs),
(539,654,o),
(493,720,o),
(388,720,cs),
(258,720,o),
(193,630,o),
(166,500,cs),
(60,0,ls),
(48,-49,o),
(28,-105,o),
(-11,-126,c),
(-19,-131,o),
(-22,-137,o),
(-19,-146,c),
(1,-197,l),
(5,-206,o),
(12,-209,o),
(21,-205,c),
(52,-188,o),
(75,-157,o),
(100,-110,c),
(117,-81,o),
(128,-36,o),
(128,-34,c)
);
}
);
width = 535;
}
);
unicode = 223;
},
{
glyphname = t;
lastChange = "2024-12-23 20:31:05 +0000";
layers = (
{
anchors = (
{
name = bottom;
pos = (223,0);
},
{
name = center;
pos = (177,250);
},
{
name = top;
pos = (252,602);
},
{
name = topright;
pos = (423,700);
}
);
layerId = "AEDC8BCA-1602-4327-8A1C-D108A778CE54";
name = Regular;
shapes = (
{
closed = 1;
nodes = (
(191,500,l),
(130,500,ls),
(121,500,o),
(115,496,o),
(113,487,cs),
(106,451,l),
(103,441,o),
(108,435,o),
(119,435,cs),
(177,435,l),
(127,200,ls),
(103,89,o),
(91,-10,o),
(222,-10,cs),
(262,-10,o),
(303,8,o),
(323,19,c),
(331,23,o),
(334,29,o),
(331,38,c),
(321,72,ls),
(318,82,o),
(311,84,o),
(301,79,cs),
(286,71,o),
(262,60,o),
(237,60,cs),
(171,60,o),
(183,123,o),
(201,200,cs),
(251,435,l),
(360,435,ls),
(368,435,o),
(374,439,o),
(377,446,cs),
(393,482,ls),
(398,493,o),
(393,500,o),
(382,500,cs),
(265,500,l),
(284,586,l),
(286,597,o),
(280,604,o),
(269,601,c),
(222,592,l),
(214,591,o),
(209,586,o),
(207,578,c)
);
}
);
width = 340;
}
);
unicode = 116;
},
{
glyphname = u;
lastChange = "2024-12-23 20:33:41 +0000";
layers = (
{
anchors = (
{
name = bottom;
pos = (200,0);
},
{
name = ogonek;
pos = (451,10);
},
{
name = top;
pos = (344,500);
},
{
name = topright;
pos = (533,500);
}
);
layerId = "AEDC8BCA-1602-4327-8A1C-D108A778CE54";
name = Regular;
shapes = (
{
closed = 1;
nodes = (
(460,500,ls),
(451,500,o),
(445,495,o),
(444,486,cs),
(403,205,o),
(311,60,o),
(232,60,cs),
(152,60,o),
(166,125,o),
(182,200,cs),
(243,487,ls),
(245,498,o),
(240,504,o),
(228,502,cs),
(176,492,l),
(168,491,o),
(163,486,o),
(161,478,c),
(102,200,ls),
(81,100,o),
(57,-10,o),
(197,-10,cs),
(247,-10,o),
(312,0,o),
(385,120,c),
(389,67,o),
(398,30,o),
(420,2,cs),
(426,-6,o),
(434,-6,o),
(441,1,cs),
(480,40,ls),
(486,46,o),
(486,53,o),
(480,61,cs),
(435,118,o),
(467,252,o),
(472,275,cs),
(490,363,o),
(509,448,o),
(517,483,c),
(520,494,o),
(515,500,o),
(504,500,cs)
);
}
);
width = 500;
}
);
unicode = 117;
},
{
glyphname = uacute;
layers = (
{
layerId = "AEDC8BCA-1602-4327-8A1C-D108A778CE54";
name = Regular;
shapes = (
{
closed = 1;
nodes = (
(468,740,l),
(491,675,l),
(298,580,l),
(277,632,l)
);
},
{
closed = 1;
nodes = (
(460,500,ls),
(451,500,o),
(445,495,o),
(444,486,cs),
(403,205,o),
(311,60,o),
(232,60,cs),
(152,60,o),
(166,125,o),
(182,200,cs),
(243,487,ls),
(245,498,o),
(240,504,o),
(228,502,cs),
(176,492,l),
(168,491,o),
(163,486,o),
(161,478,c),
(102,200,ls),
(81,100,o),
(57,-10,o),
(197,-10,cs),
(247,-10,o),
(312,0,o),
(385,120,c),
(389,67,o),
(398,30,o),
(420,2,cs),
(426,-6,o),
(434,-6,o),
(441,1,cs),
(480,40,ls),
(486,46,o),
(486,53,o),
(480,61,cs),
(435,118,o),
(467,252,o),
(472,275,cs),
(490,363,o),
(509,448,o),
(517,483,c),
(520,494,o),
(515,500,o),
(504,500,cs)
);
}
);
width = 475;
}
);
unicode = 250;
},
{
glyphname = ucircumflex;
layers = (
{
layerId = "AEDC8BCA-1602-4327-8A1C-D108A778CE54";
name = Regular;
shapes = (
{
closed = 1;
nodes = (
(217,573,l),
(221,565,o),
(229,562,o),
(237,567,c),
(382,645,l),
(493,568,ls),
(500,563,o),
(507,563,o),
(514,570,c),
(531,589,l),
(538,596,o),
(538,604,o),
(530,610,c),
(409,716,ls),
(402,722,o),
(395,723,o),
(388,718,c),
(214,608,ls),
(206,603,o),
(204,596,o),
(209,587,cs)
);
},
{
closed = 1;
nodes = (
(460,500,ls),
(451,500,o),
(445,495,o),
(444,486,cs),
(403,205,o),
(311,60,o),
(232,60,cs),
(152,60,o),
(166,125,o),
(182,200,cs),
(243,487,ls),
(245,498,o),
(240,504,o),
(228,502,cs),
(176,492,l),
(168,491,o),
(163,486,o),
(161,478,c),
(102,200,ls),
(81,100,o),
(57,-10,o),
(197,-10,cs),
(247,-10,o),
(312,0,o),
(385,120,c),
(389,67,o),
(398,30,o),
(420,2,cs),
(426,-6,o),
(434,-6,o),
(441,1,cs),
(480,40,ls),
(486,46,o),
(486,53,o),
(480,61,cs),
(435,118,o),
(467,252,o),
(472,275,cs),
(490,363,o),
(509,448,o),
(517,483,c),
(520,494,o),
(515,500,o),
(504,500,cs)
);
}
);
width = 475;
}
);
unicode = 251;
},
{
glyphname = udieresis;
layers = (
{
layerId = "AEDC8BCA-1602-4327-8A1C-D108A778CE54";
name = Regular;
shapes = (
{
closed = 1;
nodes = (
(258,626,o),
(274,605,o),
(300,605,cs),
(326,605,o),
(353,626,o),
(358,652,c),
(364,678,o),
(346,700,o),
(320,700,cs),
(294,700,o),
(269,678,o),
(263,652,c)
);
},
{
closed = 1;
nodes = (
(403,626,o),
(419,605,o),
(445,605,cs),
(471,605,o),
(498,626,o),
(503,652,c),
(509,678,o),
(491,700,o),
(465,700,cs),
(439,700,o),
(414,678,o),
(408,652,c)
);
},
{
closed = 1;
nodes = (
(460,500,ls),
(451,500,o),
(445,495,o),
(444,486,cs),
(403,205,o),
(311,60,o),
(232,60,cs),
(152,60,o),
(166,125,o),
(182,200,cs),
(243,487,ls),
(245,498,o),
(240,504,o),
(228,502,cs),
(176,492,l),
(168,491,o),
(163,486,o),
(161,478,c),
(102,200,ls),
(81,100,o),
(57,-10,o),
(197,-10,cs),
(247,-10,o),
(312,0,o),
(385,120,c),
(389,67,o),
(398,30,o),
(420,2,cs),
(426,-6,o),
(434,-6,o),
(441,1,cs),
(480,40,ls),
(486,46,o),
(486,53,o),
(480,61,cs),
(435,118,o),
(467,252,o),
(472,275,cs),
(490,363,o),
(509,448,o),
(517,483,c),
(520,494,o),
(515,500,o),
(504,500,cs)
);
}
);
width = 475;
}
);
unicode = 252;
},
{
glyphname = ugrave;
layers = (
{
layerId = "AEDC8BCA-1602-4327-8A1C-D108A778CE54";
name = Regular;
shapes = (
{
closed = 1;
nodes = (
(431,587,l),
(439,583,o),
(446,584,o),
(452,591,cs),
(476,620,ls),
(483,628,o),
(482,635,o),
(474,641,cs),
(353,731,ls),
(345,737,o),
(338,736,o),
(332,728,cs),
(300,688,ls),
(294,680,o),
(295,672,o),
(304,667,c)
);
},
{
closed = 1;
nodes = (
(460,500,ls),
(451,500,o),
(445,495,o),
(444,486,cs),
(403,205,o),
(311,60,o),
(232,60,cs),
(152,60,o),
(166,125,o),
(182,200,cs),
(243,487,ls),
(245,498,o),
(240,504,o),
(228,502,cs),
(176,492,l),
(168,491,o),
(163,486,o),
(161,478,c),
(102,200,ls),
(81,100,o),
(57,-10,o),
(197,-10,cs),
(247,-10,o),
(312,0,o),
(385,120,c),
(389,67,o),
(398,30,o),
(420,2,cs),
(426,-6,o),
(434,-6,o),
(441,1,cs),
(480,40,ls),
(486,46,o),
(486,53,o),
(480,61,cs),
(435,118,o),
(467,252,o),
(472,275,cs),
(490,363,o),
(509,448,o),
(517,483,c),
(520,494,o),
(515,500,o),
(504,500,cs)
);
}
);
width = 475;
}
);
unicode = 249;
},
{
glyphname = v;
layers = (
{
layerId = "AEDC8BCA-1602-4327-8A1C-D108A778CE54";
name = Regular;
shapes = (
{
closed = 1;
nodes = (
(129,492,l),
(119,491,o),
(115,485,o),
(116,475,c),
(185,14,l),
(186,5,o),
(192,0,o),
(201,0,cs),
(261,0,ls),
(269,0,o),
(275,3,o),
(279,10,cs),
(547,482,ls),
(553,492,o),
(548,500,o),
(536,500,cs),
(478,500,ls),
(470,500,o),
(464,497,o),
(460,489,cs),
(248,85,l),
(209,490,ls),
(208,499,o),
(202,504,o),
(192,503,c)
);
}
);
width = 461;
}
);
unicode = 118;
},
{
glyphname = w;
lastChange = "2024-12-23 19:09:22 +0000";
layers = (
{
anchors = (
{
name = bottom;
pos = (336,0);
},
{
name = top;
pos = (442,500);
}
);
layerId = "AEDC8BCA-1602-4327-8A1C-D108A778CE54";
name = Regular;
shapes = (
{
closed = 1;
nodes = (
(412,500,l),
(472,500,l),
(487,125,ls),
(488,110,o),
(499,108,o),
(505,122,cs),
(672,500,l),
(752,500,l),
(514,0,l),
(428,0,l),
(407,292,ls),
(406,307,o),
(396,309,o),
(389,296,cs),
(239,0,l),
(153,0,l),
(129,490,l),
(213,505,l),
(214,126,ls),
(214,111,o),
(225,108,o),
(232,122,cs)
);
}
);
width = 671;
}
);
unicode = 119;
},
{
glyphname = x;
layers = (
{
layerId = "AEDC8BCA-1602-4327-8A1C-D108A778CE54";
name = Regular;
shapes = (
{
closed = 1;
nodes = (
(115,0,l),
(25,0,l),
(227,241,l),
(233,247,o),
(233,253,o),
(230,261,c),
(129,490,l),
(222,505,l),
(287,325,ls),
(291,314,o),
(300,312,o),
(307,321,cs),
(451,500,l),
(541,500,l),
(339,259,l),
(333,253,o),
(332,247,o),
(336,239,c),
(435,0,l),
(345,0,l),
(278,175,l),
(274,187,o),
(265,188,o),
(258,179,cs)
);
}
);
width = 460;
}
);
unicode = 120;
},
{
glyphname = y;
lastChange = "2024-12-23 19:11:11 +0000";
layers = (
{
anchors = (
{
name = bottom;
pos = (229,0);
},
{
name = top;
pos = (335,500);
}
);
layerId = "AEDC8BCA-1602-4327-8A1C-D108A778CE54";
name = Regular;
shapes = (
{
closed = 1;
nodes = (
(129,492,l),
(119,491,o),
(115,485,o),
(116,475,c),
(188,-10,l),
(132,-97,o),
(97,-130,o),
(52,-117,c),
(44,-114,o),
(37,-116,o),
(32,-123,cs),
(9,-157,l),
(3,-165,o),
(5,-173,o),
(15,-178,c),
(153,-239,o),
(273,0,o),
(273,0,c),
(547,482,ls),
(553,492,o),
(548,500,o),
(536,500,cs),
(478,500,ls),
(470,500,o),
(464,497,o),
(460,489,cs),
(248,85,l),
(209,490,ls),
(208,499,o),
(202,504,o),
(192,503,c)
);
}
);
width = 461;
}
);
unicode = 121;
},
{
glyphname = yacute;
layers = (
{
layerId = "AEDC8BCA-1602-4327-8A1C-D108A778CE54";
name = Regular;
shapes = (
{
closed = 1;
nodes = (
(463,740,l),
(486,675,l),
(293,580,l),
(272,632,l)
);
},
{
closed = 1;
nodes = (
(132,500,ls),
(122,500,o),
(117,494,o),
(118,484,c),
(188,-10,l),
(132,-97,o),
(97,-130,o),
(52,-117,c),
(44,-114,o),
(37,-116,o),
(32,-123,cs),
(9,-157,l),
(3,-165,o),
(5,-173,o),
(15,-178,c),
(153,-239,o),
(273,0,o),
(273,0,c),
(547,482,ls),
(553,492,o),
(548,500,o),
(536,500,cs),
(478,500,ls),
(470,500,o),
(464,497,o),
(460,489,cs),
(248,85,l),
(207,486,ls),
(206,495,o),
(201,500,o),
(192,500,cs)
);
}
);
width = 461;
}
);
unicode = 253;
},
{
glyphname = ydieresis;
layers = (
{
layerId = "AEDC8BCA-1602-4327-8A1C-D108A778CE54";
name = Regular;
shapes = (
{
closed = 1;
nodes = (
(243,626,o),
(259,605,o),
(285,605,cs),
(311,605,o),
(338,626,o),
(343,652,c),
(349,678,o),
(331,700,o),
(305,700,cs),
(279,700,o),
(254,678,o),
(248,652,c)
);
},
{
closed = 1;
nodes = (
(388,626,o),
(404,605,o),
(430,605,cs),
(456,605,o),
(483,626,o),
(488,652,c),
(494,678,o),
(476,700,o),
(450,700,cs),
(424,700,o),
(399,678,o),
(393,652,c)
);
},
{
closed = 1;
nodes = (
(132,500,ls),
(122,500,o),
(117,494,o),
(118,484,c),
(188,-10,l),
(132,-97,o),
(97,-130,o),
(52,-117,c),
(44,-114,o),
(37,-116,o),
(32,-123,cs),
(9,-157,l),
(3,-165,o),
(5,-173,o),
(15,-178,c),
(153,-239,o),
(273,0,o),
(273,0,c),
(547,482,ls),
(553,492,o),
(548,500,o),
(536,500,cs),
(478,500,ls),
(470,500,o),
(464,497,o),
(460,489,cs),
(248,85,l),
(207,486,ls),
(206,495,o),
(201,500,o),
(192,500,cs)
);
}
);
width = 461;
}
);
unicode = 255;
},
{
glyphname = z;
lastChange = "2024-12-23 20:35:04 +0000";
layers = (
{
anchors = (
{
name = bottom;
pos = (226,0);
},
{
name = center;
pos = (279,250);
},
{
name = top;
pos = (332,500);
}
);
layerId = "AEDC8BCA-1602-4327-8A1C-D108A778CE54";
name = Regular;
shapes = (
{
closed = 1;
nodes = (
(179,500,ls),
(170,500,o),
(164,496,o),
(161,488,c),
(144,448,ls),
(139,437,o),
(144,430,o),
(155,430,cs),
(391,430,l),
(52,58,l),
(47,52,o),
(45,47,o),
(46,39,cs),
(49,14,ls),
(50,5,o),
(55,0,o),
(64,0,cs),
(387,0,ls),
(396,0,o),
(402,4,o),
(405,12,cs),
(422,53,ls),
(426,63,o),
(421,70,o),
(410,70,cs),
(162,70,l),
(498,442,l),
(503,448,o),
(505,453,o),
(504,461,c),
(502,486,ls),
(501,495,o),
(496,500,o),
(487,500,cs)
);
}
);
width = 455;
}
);
unicode = 122;
},
{
glyphname = zcaron;
layers = (
{
layerId = "AEDC8BCA-1602-4327-8A1C-D108A778CE54";
name = Regular;
shapes = (
{
closed = 1;
nodes = (
(343,555,l),
(247,665,l),
(284,700,l),
(349,639,l),
(356,633,o),
(363,632,o),
(370,637,cs),
(464,700,l),
(487,665,l)
);
},
{
closed = 1;
nodes = (
(170,500,ls),
(161,500,o),
(155,496,o),
(153,487,cs),
(144,441,l),
(141,431,o),
(146,425,o),
(157,425,cs),
(390,425,l),
(52,57,l),
(47,52,o),
(44,47,o),
(43,40,c),
(38,16,ls),
(36,6,o),
(41,0,o),
(52,0,cs),
(387,0,ls),
(396,0,o),
(401,4,o),
(405,12,c),
(423,58,ls),
(427,68,o),
(423,75,o),
(411,75,cs),
(163,75,l),
(498,443,l),
(503,448,o),
(506,453,o),
(507,460,c),
(512,484,l),
(515,494,o),
(510,500,o),
(499,500,cs)
);
}
);
width = 455;
}
);
unicode = 382;
},
{
glyphname = a.salt;
lastChange = "2023-01-02 23:34:33 +0000";
layers = (
{
layerId = "AEDC8BCA-1602-4327-8A1C-D108A778CE54";
name = Regular;
shapes = (
{
closed = 1;
nodes = (
(358,440,o),
(394,405,o),
(375,310,c),
(261,315,o),
(87,295,o),
(57,155,cs),
(37,60,o),
(67,-10,o),
(177,-10,cs),
(228,-10,o),
(284,20,o),
(332,60,c),
(334,25,o),
(349,2,o),
(372,-4,cs),
(380,-6,o),
(385,-2,o),
(390,4,c),
(425,43,l),
(432,50,o),
(430,57,o),
(422,63,cs),
(394,85,o),
(412,129,o),
(443,275,cs),
(471,405,o),
(463,510,o),
(323,510,cs),
(246,510,o),
(179,474,o),
(152,458,cs),
(144,453,o),
(143,446,o),
(148,437,cs),
(162,413,ls),
(167,404,o),
(174,403,o),
(183,407,cs),
(206,418,o),
(256,440,o),
(308,440,cs)
);
},
{
closed = 1;
nodes = (
(335,120,l),
(335,120,o),
(282,60,o),
(212,60,cs),
(152,60,o),
(126,100,o),
(137,155,cs),
(156,240,o),
(288,250,o),
(363,250,c)
);
}
);
width = 445;
}
);
},
{
glyphname = g.salt;
lastChange = "2023-01-02 23:34:42 +0000";
layers = (
{
layerId = "AEDC8BCA-1602-4327-8A1C-D108A778CE54";
name = Regular;
shapes = (
{
closed = 1;
nodes = (
(5,-158,ls),
(-2,-166,o),
(-2,-174,o),
(7,-179,cs),
(36,-195,o),
(86,-210,o),
(150,-210,cs),
(300,-210,o),
(392,-130,o),
(411,-40,cs),
(430,50,o),
(360,75,o),
(217,60,cs),
(100,48,o),
(100,75,o),
(156,144,c),
(177,135,o),
(202,130,o),
(232,130,cs),
(346,130,o),
(428,205,o),
(453,320,cs),
(461,362,o),
(461,397,o),
(453,424,c),
(471,440,o),
(492,453,o),
(516,449,c),
(525,447,o),
(531,449,o),
(535,457,cs),
(551,487,l),
(556,495,o),
(554,504,o),
(545,507,cs),
(539,509,o),
(531,510,o),
(521,510,cs),
(495,510,o),
(459,490,o),
(436,458,c),
(411,493,o),
(368,510,o),
(313,510,cs),
(198,510,o),
(117,435,o),
(93,320,cs),
(77,248,o),
(91,197,o),
(122,167,c),
(122,167,o),
(63,110,o),
(53,65,cs),
(40,0,o),
(85,-22,o),
(203,-5,cs),
(307,10,o),
(337,-10,o),
(329,-50,cs),
(320,-90,o),
(275,-140,o),
(165,-140,cs),
(116,-140,o),
(88,-136,o),
(58,-118,cs),
(50,-113,o),
(43,-114,o),
(37,-121,cs)
);
},
{
closed = 1;
nodes = (
(362,245,o),
(311,195,o),
(246,195,cs),
(181,195,o),
(152,245,o),
(168,320,cs),
(183,395,o),
(234,445,o),
(299,445,cs),
(364,445,o),
(393,395,o),
(378,320,cs)
);
}
);
width = 445;
}
);
},
{
category = Letter;
glyphname = f_f;
lastChange = "2023-01-03 01:06:37 +0000";
layers = (
{
layerId = "AEDC8BCA-1602-4327-8A1C-D108A778CE54";
name = Regular;
shapes = (
{
closed = 1;
nodes = (
(177,435,l),
(85,0,ls),
(75,-49,o),
(53,-105,o),
(14,-126,c),
(6,-131,o),
(3,-137,o),
(6,-146,c),
(26,-197,l),
(30,-206,o),
(37,-209,o),
(46,-205,c),
(77,-188,o),
(100,-157,o),
(125,-110,c),
(142,-81,o),
(152,-36,o),
(160,0,cs),
(252,435,l),
(442,435,l),
(350,0,ls),
(340,-49,o),
(318,-105,o),
(279,-126,c),
(271,-131,o),
(268,-137,o),
(271,-146,c),
(291,-197,l),
(295,-206,o),
(302,-209,o),
(311,-205,c),
(342,-188,o),
(365,-157,o),
(390,-110,c),
(407,-81,o),
(417,-36,o),
(425,0,cs),
(517,435,l),
(625,435,ls),
(633,435,o),
(639,439,o),
(642,446,cs),
(658,482,ls),
(663,493,o),
(658,500,o),
(647,500,cs),
(530,500,l),
(544,577,o),
(560,640,o),
(626,640,cs),
(650,640,o),
(669,630,o),
(681,622,c),
(689,616,o),
(696,616,o),
(702,625,cs),
(729,663,ls),
(735,671,o),
(734,678,o),
(726,684,c),
(709,694,o),
(677,710,o),
(640,710,cs),
(589,710,o),
(554,695,o),
(528,671,c),
(500,688,o),
(451,710,o),
(385,710,cs),
(263,710,o),
(214,611,o),
(191,500,c),
(130,500,ls),
(121,500,o),
(115,496,o),
(113,487,cs),
(106,451,l),
(103,441,o),
(108,435,o),
(119,435,cs)
);
},
{
closed = 1;
nodes = (
(265,500,l),
(289,612,o),
(330,640,o),
(401,640,cs),
(434,640,o),
(465,625,o),
(489,612,c),
(474,579,o),
(464,540,o),
(456,500,c)
);
}
);
width = 575;
}
);
subCategory = Ligature;
},
{
category = Letter;
glyphname = f_f_i;
lastChange = "2023-01-03 01:06:50 +0000";
layers = (
{
layerId = "AEDC8BCA-1602-4327-8A1C-D108A778CE54";
name = Regular;
shapes = (
{
closed = 1;
nodes = (
(252,435,l),
(442,435,l),
(350,0,ls),
(340,-49,o),
(318,-105,o),
(279,-126,c),
(271,-131,o),
(268,-137,o),
(271,-146,c),
(291,-197,l),
(295,-206,o),
(302,-209,o),
(311,-205,c),
(342,-188,o),
(365,-157,o),
(390,-110,c),
(407,-81,o),
(417,-36,o),
(425,0,cs),
(517,435,l),
(625,435,ls),
(633,435,o),
(639,439,o),
(642,446,cs),
(658,482,ls),
(663,493,o),
(658,500,o),
(647,500,cs),
(530,500,l),
(554,612,o),
(595,640,o),
(666,640,cs),
(706,640,o),
(744,618,o),
(767,604,cs),
(775,599,o),
(782,601,o),
(788,608,cs),
(813,638,l),
(819,646,o),
(819,653,o),
(811,659,cs),
(787,676,o),
(732,710,o),
(650,710,cs),
(600,710,o),
(563,694,o),
(534,667,c),
(507,684,o),
(456,710,o),
(385,710,cs),
(263,710,o),
(214,611,o),
(191,500,c),
(130,500,ls),
(121,500,o),
(115,496,o),
(113,487,cs),
(106,451,l),
(103,441,o),
(108,435,o),
(119,435,cs),
(177,435,l),
(85,0,ls),
(75,-49,o),
(53,-105,o),
(14,-126,c),
(6,-131,o),
(3,-137,o),
(6,-146,c),
(26,-197,l),
(30,-206,o),
(37,-209,o),
(46,-205,c),
(77,-188,o),
(100,-157,o),
(125,-110,c),
(142,-81,o),
(152,-36,o),
(160,0,cs)
);
},
{
closed = 1;
nodes = (
(436,640,o),
(469,623,o),
(492,610,c),
(475,577,o),
(464,539,o),
(456,500,c),
(265,500,l),
(289,612,o),
(330,640,o),
(401,640,cs)
);
},
{
closed = 1;
nodes = (
(681,0,ls),
(691,0,o),
(696,4,o),
(698,13,cs),
(798,486,l),
(800,498,o),
(794,504,o),
(783,501,c),
(736,492,l),
(728,491,o),
(723,486,o),
(721,478,c),
(623,16,ls),
(621,6,o),
(626,0,o),
(637,0,cs)
);
}
);
width = 763;
}
);
subCategory = Ligature;
},
{
category = Letter;
glyphname = f_f_j;
lastChange = "2023-01-03 01:06:43 +0000";
layers = (
{
layerId = "AEDC8BCA-1602-4327-8A1C-D108A778CE54";
name = Regular;
shapes = (
{
closed = 1;
nodes = (
(252,435,l),
(442,435,l),
(350,0,ls),
(340,-49,o),
(318,-105,o),
(279,-126,c),
(271,-131,o),
(268,-137,o),
(271,-146,c),
(291,-197,l),
(295,-206,o),
(302,-209,o),
(311,-205,c),
(342,-188,o),
(365,-157,o),
(390,-110,c),
(407,-81,o),
(417,-36,o),
(425,0,cs),
(517,435,l),
(625,435,ls),
(633,435,o),
(639,439,o),
(642,446,cs),
(658,482,ls),
(663,493,o),
(658,500,o),
(647,500,cs),
(530,500,l),
(554,612,o),
(595,640,o),
(666,640,cs),
(706,640,o),
(744,618,o),
(767,604,cs),
(775,599,o),
(782,601,o),
(788,608,cs),
(813,638,l),
(819,646,o),
(819,653,o),
(811,659,cs),
(787,676,o),
(732,710,o),
(650,710,cs),
(600,710,o),
(563,694,o),
(534,667,c),
(507,684,o),
(456,710,o),
(385,710,cs),
(263,710,o),
(214,611,o),
(191,500,c),
(130,500,ls),
(121,500,o),
(115,496,o),
(113,487,cs),
(106,451,l),
(103,441,o),
(108,435,o),
(119,435,cs),
(177,435,l),
(85,0,ls),
(75,-49,o),
(53,-105,o),
(14,-126,c),
(6,-131,o),
(3,-137,o),
(6,-146,c),
(26,-197,l),
(30,-206,o),
(37,-209,o),
(46,-205,c),
(77,-188,o),
(100,-157,o),
(125,-110,c),
(142,-81,o),
(152,-36,o),
(160,0,cs)
);
},
{
closed = 1;
nodes = (
(436,640,o),
(469,623,o),
(492,610,c),
(475,577,o),
(464,539,o),
(456,500,c),
(265,500,l),
(289,612,o),
(330,640,o),
(401,640,cs)
);
},
{
closed = 1;
nodes = (
(619,-3,ls),
(601,-87,o),
(590,-145,o),
(551,-145,cs),
(549,-145,o),
(546,-145,o),
(544,-144,c),
(539,-144,o),
(535,-147,o),
(531,-155,cs),
(515,-190,l),
(510,-199,o),
(513,-207,o),
(523,-209,c),
(531,-211,o),
(543,-213,o),
(559,-213,cs),
(649,-213,o),
(670,-114,o),
(694,-3,cs),
(798,486,l),
(800,498,o),
(794,504,o),
(783,501,c),
(736,492,l),
(728,491,o),
(723,486,o),
(721,478,c)
);
}
);
width = 763;
}
);
subCategory = Ligature;
},
{
category = Letter;
glyphname = f_f_l;
lastChange = "2023-01-03 01:28:25 +0000";
layers = (
{
layerId = "AEDC8BCA-1602-4327-8A1C-D108A778CE54";
name = Regular;
shapes = (
{
closed = 1;
nodes = (
(177,435,l),
(85,0,ls),
(75,-49,o),
(53,-105,o),
(14,-126,c),
(6,-131,o),
(3,-137,o),
(6,-146,c),
(26,-197,l),
(30,-206,o),
(37,-209,o),
(46,-205,c),
(77,-188,o),
(100,-157,o),
(125,-110,c),
(142,-81,o),
(152,-36,o),
(160,0,cs),
(252,435,l),
(437,435,l),
(345,0,ls),
(335,-49,o),
(313,-105,o),
(274,-126,c),
(266,-131,o),
(263,-137,o),
(266,-146,c),
(286,-197,l),
(290,-206,o),
(297,-209,o),
(306,-205,c),
(337,-188,o),
(360,-157,o),
(385,-110,c),
(402,-81,o),
(412,-36,o),
(420,0,cs),
(512,435,l),
(620,435,ls),
(628,435,o),
(634,439,o),
(637,446,cs),
(653,482,ls),
(658,493,o),
(653,500,o),
(642,500,cs),
(526,500,l),
(528,510,ls),
(550,603,o),
(588,640,o),
(658,640,cs),
(683,640,o),
(714,634,o),
(754,634,c),
(662,200,ls),
(638,89,o),
(617,-10,o),
(707,-10,cs),
(726,-10,o),
(741,-8,o),
(750,-5,c),
(758,-3,o),
(762,3,o),
(761,12,c),
(760,44,l),
(759,54,o),
(745,58,o),
(745,58,cs),
(706,58,o),
(719,116,o),
(737,200,cs),
(840,684,ls),
(842,695,o),
(837,701,o),
(825,699,c),
(761,692,o),
(733,710,o),
(672,710,cs),
(618,710,o),
(575,692,o),
(541,662,c),
(516,680,o),
(463,710,o),
(385,710,cs),
(263,710,o),
(214,611,o),
(191,500,c),
(130,500,ls),
(121,500,o),
(115,496,o),
(113,487,cs),
(106,451,l),
(103,441,o),
(108,435,o),
(119,435,cs)
);
},
{
closed = 1;
nodes = (
(265,500,l),
(289,612,o),
(330,640,o),
(401,640,cs),
(438,640,o),
(472,622,o),
(496,608,c),
(476,576,o),
(462,540,o),
(452,500,c)
);
}
);
width = 798;
}
);
subCategory = Ligature;
},
{
glyphname = fi;
layers = (
{
layerId = "AEDC8BCA-1602-4327-8A1C-D108A778CE54";
name = Regular;
shapes = (
{
closed = 1;
nodes = (
(105,451,ls),
(103,441,o),
(108,435,o),
(119,435,cs),
(177,435,l),
(85,0,ls),
(73,-49,o),
(53,-105,o),
(14,-126,c),
(6,-131,o),
(3,-137,o),
(6,-146,c),
(26,-197,l),
(30,-206,o),
(37,-209,o),
(46,-205,c),
(77,-188,o),
(100,-157,o),
(125,-110,c),
(142,-81,o),
(153,-36,o),
(160,0,cs),
(252,435,l),
(360,435,ls),
(368,435,o),
(374,439,o),
(377,446,cs),
(393,482,ls),
(398,493,o),
(393,500,o),
(382,500,cs),
(265,500,l),
(289,612,o),
(330,640,o),
(401,640,cs),
(441,640,o),
(479,618,o),
(502,604,cs),
(510,599,o),
(517,601,o),
(523,608,cs),
(548,638,l),
(554,646,o),
(554,653,o),
(546,659,cs),
(522,676,o),
(467,710,o),
(385,710,cs),
(263,710,o),
(214,611,o),
(191,500,c),
(130,500,ls),
(120,500,o),
(115,496,o),
(113,487,cs)
);
},
{
closed = 1;
nodes = (
(416,0,ls),
(426,0,o),
(431,4,o),
(433,13,cs),
(533,484,ls),
(535,494,o),
(530,500,o),
(519,500,cs),
(475,500,ls),
(465,500,o),
(460,496,o),
(458,487,cs),
(358,16,ls),
(356,6,o),
(361,0,o),
(372,0,cs)
);
}
);
width = 500;
}
);
unicode = 64257;
},
{
glyphname = fl;
layers = (
{
layerId = "AEDC8BCA-1602-4327-8A1C-D108A778CE54";
name = Regular;
shapes = (
{
closed = 1;
nodes = (
(403,200,ls),
(380,93,o),
(368,-3,o),
(484,-10,c),
(493,-10,o),
(499,-6,o),
(501,3,cs),
(510,45,ls),
(512,54,o),
(507,59,o),
(497,61,cs),
(449,71,o),
(461,130,o),
(477,200,cs),
(580,687,ls),
(582,698,o),
(577,704,o),
(565,702,c),
(501,694,o),
(473,710,o),
(412,710,cs),
(288,710,o),
(223,618,o),
(192,500,c),
(130,500,ls),
(121,500,o),
(115,496,o),
(113,487,cs),
(106,451,l),
(103,441,o),
(108,435,o),
(119,435,cs),
(177,435,l),
(85,0,ls),
(73,-49,o),
(53,-105,o),
(14,-126,c),
(6,-131,o),
(3,-137,o),
(6,-146,c),
(26,-197,l),
(30,-206,o),
(37,-209,o),
(46,-205,c),
(77,-188,o),
(100,-157,o),
(125,-110,c),
(142,-81,o),
(153,-36,o),
(160,0,cs),
(252,435,l),
(360,435,ls),
(368,435,o),
(374,439,o),
(377,446,cs),
(393,482,ls),
(398,493,o),
(393,500,o),
(382,500,cs),
(266,500,l),
(268,510,ls),
(290,603,o),
(328,640,o),
(398,640,cs),
(423,640,o),
(454,634,o),
(494,634,c)
);
}
);
width = 538;
}
);
unicode = 64258;
},
{
export = 0;
glyphname = s_alt;
lastChange = "2023-01-02 23:35:15 +0000";
layers = (
{
layerId = "AEDC8BCA-1602-4327-8A1C-D108A778CE54";
name = Regular;
shapes = (
{
closed = 1;
nodes = (
(369,414,o),
(376,415,o),
(382,422,cs),
(408,453,ls),
(414,460,o),
(413,468,o),
(404,473,c),
(383,487,o),
(353,501,o),
(316,507,c),
(327,559,l),
(328,566,o),
(325,570,o),
(318,570,cs),
(298,570,ls),
(292,570,o),
(288,567,o),
(287,561,c),
(276,511,l),
(200,513,o),
(134,480,o),
(117,403,cs),
(98,315,o),
(138,264,o),
(216,230,c),
(181,62,l),
(142,70,o),
(112,86,o),
(96,96,cs),
(88,101,o),
(81,100,o),
(75,92,cs),
(44,50,ls),
(38,42,o),
(40,34,o),
(49,29,c),
(70,19,o),
(113,-1,o),
(166,-9,c),
(157,-49,l),
(156,-56,o),
(159,-60,o),
(166,-60,cs),
(186,-60,ls),
(192,-60,o),
(196,-57,o),
(197,-51,c),
(205,-12,l),
(300,-13,o),
(367,39,o),
(385,125,cs),
(404,217,o),
(349,264,o),
(271,297,c),
(302,441,l),
(326,436,o),
(345,427,o),
(361,419,c)
);
},
{
closed = 1;
nodes = (
(194,430,o),
(230,444,o),
(262,446,c),
(234,313,l),
(197,332,o),
(180,360,o),
(187,393,cs)
);
},
{
closed = 1;
nodes = (
(296,90,o),
(265,61,o),
(220,58,c),
(253,213,l),
(287,195,o),
(313,171,o),
(305,135,cs)
);
}
);
width = 378;
}
);
},
{
category = Letter;
glyphname = fj;
lastChange = "2023-01-03 01:11:47 +0000";
layers = (
{
layerId = "AEDC8BCA-1602-4327-8A1C-D108A778CE54";
name = Regular;
shapes = (
{
closed = 1;
nodes = (
(167,435,l),
(75,0,ls),
(65,-49,o),
(43,-105,o),
(4,-126,c),
(-4,-131,o),
(-7,-137,o),
(-4,-146,c),
(16,-197,l),
(20,-206,o),
(27,-209,o),
(36,-205,c),
(67,-188,o),
(90,-157,o),
(115,-110,c),
(132,-81,o),
(142,-36,o),
(150,0,cs),
(242,435,l),
(350,435,ls),
(358,435,o),
(364,439,o),
(367,446,cs),
(383,482,ls),
(388,493,o),
(383,500,o),
(372,500,cs),
(255,500,l),
(279,612,o),
(320,640,o),
(391,640,cs),
(431,640,o),
(469,618,o),
(492,604,cs),
(500,599,o),
(507,601,o),
(513,608,cs),
(538,638,l),
(544,646,o),
(544,653,o),
(536,659,cs),
(512,676,o),
(457,710,o),
(375,710,cs),
(253,710,o),
(204,611,o),
(181,500,c),
(120,500,ls),
(111,500,o),
(105,496,o),
(103,487,cs),
(96,451,l),
(93,441,o),
(98,435,o),
(109,435,cs)
);
},
{
closed = 1;
nodes = (
(344,-3,ls),
(326,-87,o),
(315,-145,o),
(276,-145,cs),
(274,-145,o),
(271,-145,o),
(269,-144,c),
(264,-144,o),
(260,-147,o),
(256,-155,cs),
(240,-190,l),
(235,-199,o),
(238,-207,o),
(248,-209,c),
(256,-211,o),
(268,-213,o),
(284,-213,cs),
(374,-213,o),
(395,-114,o),
(419,-3,cs),
(523,486,l),
(525,498,o),
(519,504,o),
(508,501,c),
(461,492,l),
(453,491,o),
(448,486,o),
(446,478,c)
);
}
);
width = 488;
}
);
script = latin;
subCategory = Ligature;
},
{
glyphname = mu;
layers = (
{
layerId = "AEDC8BCA-1602-4327-8A1C-D108A778CE54";
name = Regular;
shapes = (
{
closed = 1;
nodes = (
(166,60,o),
(165,116,o),
(178,183,cs),
(242,484,l),
(245,494,o),
(240,500,o),
(229,500,cs),
(180,500,ls),
(170,500,o),
(165,496,o),
(163,487,cs),
(22,-175,ls),
(20,-185,o),
(24,-191,o),
(34,-192,c),
(83,-200,l),
(92,-201,o),
(98,-197,o),
(100,-188,cs),
(144,21,l),
(162,-2,o),
(189,-10,o),
(227,-10,cs),
(278,-10,o),
(324,10,o),
(361,33,c),
(367,16,o),
(380,5,o),
(401,1,c),
(410,0,o),
(416,5,o),
(418,14,cs),
(518,484,ls),
(520,494,o),
(515,500,o),
(504,500,cs),
(460,500,ls),
(450,500,o),
(445,496,o),
(443,487,cs),
(359,90,l),
(359,90,o),
(312,60,o),
(242,60,cs)
);
}
);
width = 475;
}
);
unicode = 956;
},
{
glyphname = zero;
layers = (
{
layerId = "AEDC8BCA-1602-4327-8A1C-D108A778CE54";
name = Regular;
shapes = (
{
closed = 1;
nodes = (
(65,120,o),
(127,-10,o),
(277,-10,cs),
(427,-10,o),
(540,120,o),
(578,300,cs),
(617,480,o),
(559,610,o),
(409,610,cs),
(259,610,o),
(142,480,o),
(103,300,cs)
);
},
{
closed = 1;
nodes = (
(215,448,o),
(289,540,o),
(394,540,cs),
(499,540,o),
(530,448,o),
(498,300,cs),
(467,152,o),
(397,60,o),
(292,60,cs),
(187,60,o),
(152,152,o),
(183,300,cs)
);
}
);
width = 555;
}
);
unicode = 48;
},
{
glyphname = one;
layers = (
{
layerId = "AEDC8BCA-1602-4327-8A1C-D108A778CE54";
name = Regular;
shapes = (
{
closed = 1;
nodes = (
(58,16,ls),
(56,6,o),
(61,0,o),
(72,0,cs),
(391,0,ls),
(400,0,o),
(406,4,o),
(408,13,cs),
(416,54,ls),
(418,64,o),
(413,70,o),
(402,70,cs),
(282,70,l),
(391,584,l),
(394,594,o),
(389,600,o),
(378,600,cs),
(350,600,ls),
(343,600,o),
(338,599,o),
(331,596,cs),
(152,520,l),
(143,517,o),
(140,511,o),
(142,502,cs),
(148,471,ls),
(150,461,o),
(157,457,o),
(166,460,cs),
(300,505,l),
(207,70,l),
(83,70,ls),
(74,70,o),
(68,66,o),
(66,57,cs)
);
}
);
width = 435;
}
);
unicode = 49;
},
{
glyphname = two;
layers = (
{
layerId = "AEDC8BCA-1602-4327-8A1C-D108A778CE54";
name = Regular;
shapes = (
{
closed = 1;
nodes = (
(33,16,ls),
(31,6,o),
(36,0,o),
(47,0,cs),
(433,0,ls),
(442,0,o),
(448,4,o),
(450,13,cs),
(458,54,ls),
(460,64,o),
(455,70,o),
(444,70,cs),
(131,70,l),
(195,183,o),
(496,229,o),
(533,402,cs),
(558,522,o),
(502,610,o),
(339,610,cs),
(276,610,o),
(215,593,o),
(160,565,cs),
(152,561,o),
(149,555,o),
(152,546,c),
(161,511,l),
(163,501,o),
(170,497,o),
(180,501,cs),
(226,520,o),
(272,535,o),
(323,535,cs),
(416,535,o),
(460,483,o),
(443,402,cs),
(412,256,o),
(78,230,o),
(37,35,cs)
);
}
);
width = 488;
}
);
unicode = 50;
},
{
glyphname = three;
layers = (
{
layerId = "AEDC8BCA-1602-4327-8A1C-D108A778CE54";
name = Regular;
shapes = (
{
closed = 1;
nodes = (
(117,-2,o),
(89,4,o),
(63,13,c),
(56,15,o),
(51,12,o),
(46,5,cs),
(18,-36,ls),
(12,-45,o),
(14,-53,o),
(24,-57,cs),
(57,-70,o),
(96,-77,o),
(138,-77,cs),
(345,-77,o),
(420,27,o),
(443,132,cs),
(457,199,o),
(441,260,o),
(354,297,c),
(415,311,o),
(469,374,o),
(480,424,cs),
(499,517,o),
(461,610,o),
(284,610,cs),
(240,610,o),
(196,602,o),
(156,587,c),
(147,584,o),
(144,577,o),
(146,568,cs),
(155,532,l),
(158,522,o),
(164,519,o),
(174,522,cs),
(203,530,o),
(232,535,o),
(268,535,cs),
(382,535,o),
(406,479,o),
(395,424,cs),
(384,372,o),
(339,331,o),
(225,331,cs),
(184,331,ls),
(174,331,o),
(169,327,o),
(167,318,cs),
(159,281,ls),
(157,271,o),
(162,265,o),
(173,265,cs),
(211,265,ls),
(350,265,o),
(371,196,o),
(358,132,cs),
(343,65,o),
(293,-2,o),
(154,-2,cs)
);
}
);
width = 455;
}
);
unicode = 51;
},
{
glyphname = four;
layers = (
{
layerId = "AEDC8BCA-1602-4327-8A1C-D108A778CE54";
name = Regular;
shapes = (
{
closed = 1;
nodes = (
(43,177,l),
(38,172,o),
(35,167,o),
(34,160,c),
(27,126,l),
(24,116,o),
(29,110,o),
(40,110,cs),
(338,110,l),
(304,-51,l),
(301,-61,o),
(306,-67,o),
(317,-67,cs),
(356,-67,ls),
(366,-67,o),
(371,-63,o),
(373,-54,cs),
(408,110,l),
(479,110,ls),
(488,110,o),
(494,114,o),
(496,123,cs),
(504,164,l),
(507,174,o),
(502,180,o),
(491,180,cs),
(423,180,l),
(511,594,ls),
(513,604,o),
(508,610,o),
(497,610,cs),
(455,610,ls),
(447,610,o),
(442,608,o),
(437,602,c)
);
},
{
closed = 1;
nodes = (
(417,480,l),
(353,180,l),
(133,180,l)
);
}
);
width = 500;
}
);
unicode = 52;
},
{
glyphname = five;
layers = (
{
layerId = "AEDC8BCA-1602-4327-8A1C-D108A778CE54";
name = Regular;
shapes = (
{
closed = 1;
nodes = (
(355,-78,o),
(450,48,o),
(471,146,cs),
(491,244,o),
(473,369,o),
(243,369,cs),
(218,369,o),
(186,362,o),
(186,362,c),
(222,529,l),
(493,529,ls),
(502,529,o),
(508,533,o),
(510,542,cs),
(518,583,l),
(521,593,o),
(516,599,o),
(505,599,cs),
(186,599,ls),
(176,599,o),
(171,595,o),
(169,586,cs),
(108,297,ls),
(106,286,o),
(112,280,o),
(123,283,cs),
(151,290,o),
(191,297,o),
(228,297,cs),
(377,297,o),
(401,213,o),
(387,148,cs),
(373,83,o),
(312,-8,o),
(163,-8,cs),
(132,-8,o),
(104,-1,o),
(77,10,cs),
(68,14,o),
(61,12,o),
(56,5,cs),
(28,-37,ls),
(22,-46,o),
(24,-54,o),
(34,-58,cs),
(67,-71,o),
(106,-78,o),
(148,-78,cs)
);
}
);
width = 470;
}
);
unicode = 53;
},
{
glyphname = six;
layers = (
{
layerId = "AEDC8BCA-1602-4327-8A1C-D108A778CE54";
name = Regular;
shapes = (
{
closed = 1;
nodes = (
(65,120,o),
(102,-10,o),
(252,-10,cs),
(402,-10,o),
(487,105,o),
(507,200,cs),
(527,295,o),
(492,410,o),
(342,410,cs),
(301,410,o),
(230,393,o),
(185,334,c),
(262,556,o),
(377,608,o),
(502,612,cs),
(511,612,o),
(516,616,o),
(518,625,cs),
(525,660,ls),
(527,671,o),
(522,677,o),
(511,677,cs),
(219,667,o),
(126,407,o),
(93,250,cs)
);
},
{
closed = 1;
nodes = (
(180,260,o),
(227,340,o),
(327,340,cs),
(427,340,o),
(440,260,o),
(427,200,cs),
(414,140,o),
(367,60,o),
(267,60,cs),
(167,60,o),
(154,140,o),
(167,200,cs)
);
}
);
width = 495;
}
);
unicode = 54;
},
{
glyphname = seven;
layers = (
{
layerId = "AEDC8BCA-1602-4327-8A1C-D108A778CE54";
name = Regular;
shapes = (
{
closed = 1;
nodes = (
(508,527,ls),
(512,533,o),
(514,537,o),
(515,544,c),
(523,584,l),
(526,594,o),
(521,600,o),
(510,600,cs),
(161,600,ls),
(152,600,o),
(146,596,o),
(144,587,cs),
(135,541,l),
(132,531,o),
(137,525,o),
(148,525,cs),
(431,525,l),
(69,-33,ls),
(63,-42,o),
(66,-49,o),
(75,-54,c),
(115,-71,ls),
(124,-75,o),
(130,-73,o),
(135,-65,cs)
);
}
);
width = 425;
}
);
unicode = 55;
},
{
glyphname = eight;
layers = (
{
layerId = "AEDC8BCA-1602-4327-8A1C-D108A778CE54";
name = Regular;
shapes = (
{
closed = 1;
nodes = (
(161,454,o),
(174,398,o),
(236,364,c),
(148,328,o),
(95,261,o),
(80,190,cs),
(58,87,o),
(97,-10,o),
(247,-10,cs),
(397,-10,o),
(478,87,o),
(500,190,cs),
(515,262,o),
(489,329,o),
(417,365,c),
(492,398,o),
(530,454,o),
(540,502,cs),
(557,580,o),
(531,677,o),
(393,677,cs),
(254,677,o),
(188,580,o),
(171,502,cs)
);
},
{
closed = 1;
nodes = (
(255,554,o),
(295,608,o),
(379,608,cs),
(462,608,o),
(478,554,o),
(467,502,cs),
(456,451,o),
(417,396,o),
(334,396,cs),
(250,396,o),
(233,451,o),
(244,502,cs)
);
},
{
closed = 1;
nodes = (
(175,260,o),
(229,326,o),
(319,326,cs),
(409,326,o),
(435,260,o),
(420,190,cs),
(405,121,o),
(357,60,o),
(262,60,cs),
(166,60,o),
(145,121,o),
(160,190,cs)
);
}
);
width = 500;
}
);
unicode = 56;
},
{
glyphname = nine;
layers = (
{
layerId = "AEDC8BCA-1602-4327-8A1C-D108A778CE54";
name = Regular;
shapes = (
{
closed = 1;
nodes = (
(547,480,o),
(509,610,o),
(359,610,cs),
(209,610,o),
(125,495,o),
(105,400,cs),
(84,305,o),
(120,190,o),
(270,190,cs),
(311,190,o),
(381,207,o),
(426,266,c),
(349,44,o),
(235,-8,o),
(110,-12,cs),
(101,-12,o),
(96,-16,o),
(94,-25,cs),
(87,-60,l),
(84,-71,o),
(90,-77,o),
(100,-77,cs),
(392,-67,o),
(486,193,o),
(519,350,cs)
);
},
{
closed = 1;
nodes = (
(432,340,o),
(385,260,o),
(285,260,cs),
(185,260,o),
(172,340,o),
(185,400,cs),
(197,460,o),
(244,540,o),
(344,540,cs),
(444,540,o),
(457,460,o),
(445,400,cs)
);
}
);
width = 485;
}
);
unicode = 57;
},
{
glyphname = fraction;
layers = (
{
layerId = "AEDC8BCA-1602-4327-8A1C-D108A778CE54";
name = Regular;
shapes = (
{
closed = 1;
nodes = (
(19,13,l),
(13,5,o),
(15,-3,o),
(24,-8,cs),
(47,-21,l),
(55,-26,o),
(62,-24,o),
(67,-16,c),
(554,687,l),
(560,695,o),
(558,703,o),
(549,708,cs),
(526,721,l),
(518,726,o),
(511,724,o),
(506,716,c)
);
}
);
width = 425;
}
);
unicode = 8260;
},
{
glyphname = onehalf;
layers = (
{
layerId = "AEDC8BCA-1602-4327-8A1C-D108A778CE54";
name = Regular;
shapes = (
{
closed = 1;
nodes = (
(201,10,l),
(194,2,o),
(195,-5,o),
(203,-11,cs),
(224,-27,ls),
(232,-33,o),
(239,-32,o),
(245,-24,cs),
(788,652,l),
(795,660,o),
(794,667,o),
(786,673,cs),
(765,689,ls),
(757,695,o),
(750,694,o),
(744,686,cs)
);
},
{
closed = 1;
nodes = (
(172,346,ls),
(170,336,o),
(175,330,o),
(186,330,cs),
(400,330,ls),
(409,330,o),
(415,334,o),
(417,343,cs),
(423,374,ls),
(425,384,o),
(420,390,o),
(409,390,cs),
(339,390,l),
(397,664,l),
(400,674,o),
(395,680,o),
(384,680,cs),
(355,680,ls),
(348,680,o),
(343,679,o),
(336,676,cs),
(225,629,l),
(216,626,o),
(213,620,o),
(215,611,cs),
(220,587,l),
(223,577,o),
(229,573,o),
(239,576,c),
(314,603,l),
(268,390,l),
(195,390,ls),
(186,390,o),
(180,386,o),
(178,377,cs)
);
},
{
closed = 1;
nodes = (
(507,12,l),
(504,1,o),
(509,-5,o),
(520,-5,cs),
(747,-5,ls),
(756,-5,o),
(762,-1,o),
(764,8,cs),
(770,39,l),
(773,49,o),
(768,55,o),
(757,55,cs),
(591,55,l),
(608,74,o),
(638,88,o),
(672,106,cs),
(732,137,o),
(799,171,o),
(812,235,cs),
(828,310,o),
(795,364,o),
(695,364,cs),
(659,364,o),
(621,354,o),
(583,334,cs),
(576,330,o),
(573,324,o),
(575,315,cs),
(580,292,l),
(583,282,o),
(590,278,o),
(599,282,c),
(627,293,o),
(655,302,o),
(682,302,cs),
(729,302,o),
(750,276,o),
(741,235,cs),
(734,202,o),
(693,180,o),
(646,155,cs),
(588,124,o),
(524,91,o),
(510,25,cs)
);
}
);
width = 853;
}
);
unicode = 189;
},
{
glyphname = onequarter;
layers = (
{
layerId = "AEDC8BCA-1602-4327-8A1C-D108A778CE54";
name = Regular;
shapes = (
{
closed = 1;
nodes = (
(201,10,l),
(194,2,o),
(195,-5,o),
(203,-11,cs),
(224,-27,ls),
(232,-33,o),
(239,-32,o),
(245,-24,cs),
(788,652,l),
(795,660,o),
(794,667,o),
(786,673,cs),
(765,689,ls),
(757,695,o),
(750,694,o),
(744,686,cs)
);
},
{
closed = 1;
nodes = (
(172,346,ls),
(170,336,o),
(175,330,o),
(186,330,cs),
(400,330,ls),
(409,330,o),
(415,334,o),
(417,343,cs),
(423,374,ls),
(425,384,o),
(420,390,o),
(409,390,cs),
(339,390,l),
(397,664,l),
(400,674,o),
(395,680,o),
(384,680,cs),
(355,680,ls),
(348,680,o),
(343,679,o),
(336,676,cs),
(225,629,l),
(216,626,o),
(213,620,o),
(215,611,cs),
(220,587,l),
(223,577,o),
(229,573,o),
(239,576,c),
(314,603,l),
(268,390,l),
(195,390,ls),
(186,390,o),
(180,386,o),
(178,377,cs)
);
},
{
closed = 1;
nodes = (
(400,54,l),
(395,49,o),
(392,44,o),
(391,37,c),
(385,11,ls),
(383,1,o),
(388,-5,o),
(399,-5,cs),
(594,-5,l),
(578,-80,ls),
(576,-90,o),
(581,-96,o),
(592,-96,cs),
(627,-96,ls),
(637,-96,o),
(642,-92,o),
(644,-83,cs),
(660,-5,l),
(706,-5,ls),
(715,-5,o),
(721,-1,o),
(723,8,cs),
(729,39,l),
(732,49,o),
(727,55,o),
(716,55,cs),
(673,55,l),
(731,329,l),
(734,339,o),
(729,345,o),
(718,345,cs),
(680,345,ls),
(672,345,o),
(667,343,o),
(662,337,c)
);
},
{
closed = 1;
nodes = (
(645,233,l),
(607,55,l),
(480,55,l)
);
}
);
width = 853;
}
);
unicode = 188;
},
{
glyphname = threequarters;
layers = (
{
layerId = "AEDC8BCA-1602-4327-8A1C-D108A778CE54";
name = Regular;
shapes = (
{
closed = 1;
nodes = (
(242,10,l),
(235,2,o),
(236,-5,o),
(244,-11,cs),
(265,-27,ls),
(273,-33,o),
(280,-32,o),
(286,-24,cs),
(829,652,l),
(836,660,o),
(835,667,o),
(827,673,cs),
(806,689,ls),
(798,695,o),
(791,694,o),
(785,686,cs)
);
},
{
closed = 1;
nodes = (
(210,267,o),
(191,270,o),
(174,275,cs),
(167,277,o),
(162,274,o),
(157,267,cs),
(136,237,ls),
(130,228,o),
(133,220,o),
(142,217,cs),
(164,209,o),
(190,204,o),
(218,204,cs),
(362,204,o),
(418,277,o),
(434,350,cs),
(444,397,o),
(437,443,o),
(376,469,c),
(421,488,o),
(449,520,o),
(456,555,cs),
(470,620,o),
(450,685,o),
(320,685,cs),
(290,685,o),
(261,680,o),
(234,670,cs),
(225,667,o),
(222,660,o),
(224,651,cs),
(230,626,l),
(233,616,o),
(239,613,o),
(249,615,c),
(267,620,o),
(286,622,o),
(307,622,cs),
(383,622,o),
(392,583,o),
(386,555,cs),
(380,525,o),
(356,498,o),
(280,498,cs),
(255,498,ls),
(245,498,o),
(240,494,o),
(238,485,cs),
(230,448,ls),
(228,438,o),
(233,432,o),
(244,432,cs),
(266,432,ls),
(359,432,o),
(369,388,o),
(361,350,cs),
(353,314,o),
(324,267,o),
(231,267,cs)
);
},
{
closed = 1;
nodes = (
(440,54,l),
(435,49,o),
(432,44,o),
(431,37,c),
(425,11,ls),
(423,1,o),
(428,-5,o),
(439,-5,cs),
(634,-5,l),
(618,-80,ls),
(616,-90,o),
(621,-96,o),
(632,-96,cs),
(667,-96,ls),
(677,-96,o),
(682,-92,o),
(684,-83,cs),
(700,-5,l),
(746,-5,ls),
(755,-5,o),
(761,-1,o),
(763,8,cs),
(769,39,l),
(772,49,o),
(767,55,o),
(756,55,cs),
(713,55,l),
(771,329,l),
(774,339,o),
(769,345,o),
(758,345,cs),
(720,345,ls),
(712,345,o),
(707,343,o),
(702,337,c)
);
},
{
closed = 1;
nodes = (
(685,233,l),
(647,55,l),
(520,55,l)
);
}
);
width = 853;
}
);
unicode = 190;
},
{
glyphname = onesuperior;
layers = (
{
layerId = "AEDC8BCA-1602-4327-8A1C-D108A778CE54";
name = Regular;
shapes = (
{
closed = 1;
nodes = (
(185,346,ls),
(183,336,o),
(188,330,o),
(199,330,cs),
(413,330,ls),
(422,330,o),
(428,334,o),
(430,343,cs),
(436,374,ls),
(438,384,o),
(433,390,o),
(422,390,cs),
(352,390,l),
(410,664,l),
(413,674,o),
(408,680,o),
(397,680,cs),
(368,680,ls),
(361,680,o),
(356,679,o),
(349,676,cs),
(238,629,l),
(229,626,o),
(226,620,o),
(228,611,cs),
(233,587,l),
(236,577,o),
(242,573,o),
(252,576,c),
(327,603,l),
(281,390,l),
(208,390,ls),
(199,390,o),
(193,386,o),
(191,377,cs)
);
}
);
width = 450;
}
);
unicode = 185;
},
{
glyphname = twosuperior;
layers = (
{
layerId = "AEDC8BCA-1602-4327-8A1C-D108A778CE54";
name = Regular;
shapes = (
{
closed = 1;
nodes = (
(165,346,l),
(162,335,o),
(167,329,o),
(178,329,cs),
(405,329,ls),
(414,329,o),
(420,333,o),
(422,342,cs),
(428,373,l),
(431,383,o),
(426,389,o),
(415,389,cs),
(249,389,l),
(266,408,o),
(296,422,o),
(330,440,cs),
(390,471,o),
(457,505,o),
(470,569,cs),
(486,644,o),
(453,698,o),
(353,698,cs),
(317,698,o),
(279,688,o),
(241,668,cs),
(234,664,o),
(231,658,o),
(233,649,cs),
(238,626,l),
(241,616,o),
(248,612,o),
(257,616,c),
(285,627,o),
(313,636,o),
(340,636,cs),
(387,636,o),
(408,610,o),
(399,569,cs),
(392,536,o),
(351,514,o),
(304,489,cs),
(246,458,o),
(182,425,o),
(168,359,cs)
);
}
);
width = 450;
}
);
unicode = 178;
},
{
glyphname = threesuperior;
layers = (
{
layerId = "AEDC8BCA-1602-4327-8A1C-D108A778CE54";
name = Regular;
shapes = (
{
closed = 1;
nodes = (
(210,267,o),
(191,270,o),
(174,275,cs),
(167,277,o),
(162,274,o),
(157,267,cs),
(136,237,ls),
(130,228,o),
(133,220,o),
(142,217,cs),
(164,209,o),
(190,204,o),
(218,204,cs),
(362,204,o),
(418,277,o),
(434,350,cs),
(444,397,o),
(437,443,o),
(376,469,c),
(421,488,o),
(449,520,o),
(456,555,cs),
(470,620,o),
(450,685,o),
(320,685,cs),
(290,685,o),
(261,680,o),
(234,670,cs),
(225,667,o),
(222,660,o),
(224,651,cs),
(230,626,l),
(233,616,o),
(239,613,o),
(249,615,c),
(267,620,o),
(286,622,o),
(307,622,cs),
(383,622,o),
(392,583,o),
(386,555,cs),
(380,525,o),
(356,498,o),
(280,498,cs),
(255,498,ls),
(245,498,o),
(240,494,o),
(238,485,cs),
(230,448,ls),
(228,438,o),
(233,432,o),
(244,432,cs),
(266,432,ls),
(359,432,o),
(369,388,o),
(361,350,cs),
(353,314,o),
(324,267,o),
(231,267,cs)
);
}
);
width = 450;
}
);
unicode = 179;
},
{
glyphname = period;
layers = (
{
layerId = "AEDC8BCA-1602-4327-8A1C-D108A778CE54";
name = Regular;
shapes = (
{
closed = 1;
nodes = (
(63,16,o),
(79,-5,o),
(105,-5,cs),
(131,-5,o),
(158,16,o),
(163,42,c),
(169,68,o),
(152,90,o),
(126,90,cs),
(100,90,o),
(74,68,o),
(68,42,c)
);
}
);
width = 215;
}
);
unicode = 46;
},
{
glyphname = comma;
layers = (
{
layerId = "AEDC8BCA-1602-4327-8A1C-D108A778CE54";
name = Regular;
shapes = (
{
closed = 1;
nodes = (
(63,16,o),
(89,10,o),
(84,-10,cs),
(81,-23,o),
(60,-51,o),
(47,-68,cs),
(41,-76,o),
(42,-83,o),
(50,-89,c),
(59,-94,l),
(67,-99,o),
(73,-99,o),
(80,-93,cs),
(121,-58,o),
(157,-6,o),
(163,42,cs),
(166,68,o),
(152,90,o),
(126,90,cs),
(100,90,o),
(74,68,o),
(68,42,c)
);
}
);
width = 215;
}
);
unicode = 44;
},
{
glyphname = colon;
layers = (
{
layerId = "AEDC8BCA-1602-4327-8A1C-D108A778CE54";
name = Regular;
shapes = (
{
closed = 1;
nodes = (
(128,324,o),
(145,303,o),
(171,303,cs),
(197,303,o),
(223,324,o),
(229,350,c),
(234,376,o),
(217,398,o),
(191,398,cs),
(165,398,o),
(139,376,o),
(134,350,c)
);
},
{
closed = 1;
nodes = (
(63,16,o),
(79,-5,o),
(105,-5,cs),
(131,-5,o),
(158,16,o),
(163,42,c),
(169,68,o),
(152,90,o),
(126,90,cs),
(100,90,o),
(74,68,o),
(68,42,c)
);
}
);
width = 215;
}
);
unicode = 58;
},
{
glyphname = semicolon;
layers = (
{
layerId = "AEDC8BCA-1602-4327-8A1C-D108A778CE54";
name = Regular;
shapes = (
{
closed = 1;
nodes = (
(128,324,o),
(145,303,o),
(171,303,cs),
(197,303,o),
(223,324,o),
(229,350,c),
(234,376,o),
(217,398,o),
(191,398,cs),
(165,398,o),
(139,376,o),
(134,350,c)
);
},
{
closed = 1;
nodes = (
(63,16,o),
(89,10,o),
(84,-10,cs),
(81,-23,o),
(60,-51,o),
(47,-68,cs),
(41,-76,o),
(42,-83,o),
(50,-89,c),
(59,-94,l),
(67,-99,o),
(73,-99,o),
(80,-93,cs),
(121,-58,o),
(157,-6,o),
(163,42,cs),
(166,68,o),
(152,90,o),
(126,90,cs),
(100,90,o),
(74,68,o),
(68,42,c)
);
}
);
width = 215;
}
);
unicode = 59;
},
{
glyphname = ellipsis;
layers = (
{
layerId = "AEDC8BCA-1602-4327-8A1C-D108A778CE54";
name = Regular;
shapes = (
{
closed = 1;
nodes = (
(83,16,o),
(99,-5,o),
(125,-5,cs),
(151,-5,o),
(178,16,o),
(183,42,c),
(189,68,o),
(172,90,o),
(146,90,cs),
(120,90,o),
(94,68,o),
(88,42,c)
);
},
{
closed = 1;
nodes = (
(283,16,o),
(299,-5,o),
(325,-5,cs),
(351,-5,o),
(378,16,o),
(383,42,c),
(389,68,o),
(372,90,o),
(346,90,cs),
(320,90,o),
(294,68,o),
(288,42,c)
);
},
{
closed = 1;
nodes = (
(483,16,o),
(499,-5,o),
(525,-5,cs),
(551,-5,o),
(578,16,o),
(583,42,c),
(589,68,o),
(572,90,o),
(546,90,cs),
(520,90,o),
(494,68,o),
(488,42,c)
);
}
);
width = 655;
}
);
unicode = 8230;
},
{
glyphname = exclam;
layers = (
{
layerId = "AEDC8BCA-1602-4327-8A1C-D108A778CE54";
name = Regular;
shapes = (
{
closed = 1;
nodes = (
(139,200,l),
(233,667,l),
(308,667,l),
(204,200,l)
);
},
{
closed = 1;
nodes = (
(95,73,o),
(123,95,o),
(150,95,cs),
(178,95,o),
(195,73,o),
(189,45,cs),
(183,18,o),
(156,-5,o),
(128,-5,cs),
(101,-5,o),
(83,18,o),
(89,45,cs)
);
}
);
width = 260;
}
);
unicode = 33;
},
{
glyphname = exclamdown;
layers = (
{
layerId = "AEDC8BCA-1602-4327-8A1C-D108A778CE54";
name = Regular;
shapes = (
{
closed = 1;
nodes = (
(271,431,o),
(243,409,o),
(216,409,cs),
(188,409,o),
(171,431,o),
(177,459,cs),
(183,486,o),
(210,509,o),
(238,509,cs),
(265,509,o),
(283,486,o),
(277,459,cs)
);
},
{
closed = 1;
nodes = (
(227,304,l),
(133,-163,l),
(58,-163,l),
(162,304,l)
);
}
);
width = 260;
}
);
unicode = 161;
},
{
glyphname = question;
layers = (
{
layerId = "AEDC8BCA-1602-4327-8A1C-D108A778CE54";
name = Regular;
shapes = (
{
closed = 1;
nodes = (
(285,410,o),
(405,390,o),
(429,502,cs),
(441,557,o),
(414,597,o),
(354,597,cs),
(292,597,o),
(234,563,o),
(234,563,c),
(213,630,l),
(213,630,o),
(289,667,o),
(369,667,cs),
(479,667,o),
(529,597,o),
(509,502,cs),
(479,360,o),
(349,370,o),
(326,260,cs),
(313,200,l),
(245,200,ls),
(245,200,o),
(242,210,o),
(253,260,cs)
);
},
{
closed = 1;
nodes = (
(193,16,o),
(209,-5,o),
(235,-5,cs),
(261,-5,o),
(288,16,o),
(293,42,c),
(299,68,o),
(282,90,o),
(256,90,cs),
(230,90,o),
(204,68,o),
(198,42,c)
);
}
);
width = 483;
}
);
unicode = 63;
},
{
glyphname = questiondown;
layers = (
{
layerId = "AEDC8BCA-1602-4327-8A1C-D108A778CE54";
name = Regular;
shapes = (
{
closed = 1;
nodes = (
(396,489,o),
(380,510,o),
(354,510,cs),
(328,510,o),
(301,489,o),
(296,463,c),
(290,437,o),
(308,415,o),
(334,415,cs),
(360,415,o),
(385,437,o),
(391,463,c)
);
},
{
closed = 1;
nodes = (
(305,95,o),
(184,115,o),
(160,3,cs),
(148,-52,o),
(175,-92,o),
(235,-92,cs),
(297,-92,o),
(355,-58,o),
(355,-58,c),
(376,-125,l),
(376,-125,o),
(300,-162,o),
(220,-162,cs),
(110,-162,o),
(60,-92,o),
(80,3,cs),
(110,145,o),
(240,135,o),
(264,245,cs),
(276,305,l),
(344,305,l),
(344,305,o),
(347,295,o),
(337,245,cs)
);
}
);
width = 483;
}
);
unicode = 191;
},
{
glyphname = periodcentered;
layers = (
{
layerId = "AEDC8BCA-1602-4327-8A1C-D108A778CE54";
name = Regular;
shapes = (
{
closed = 1;
nodes = (
(137,224,o),
(154,203,o),
(180,203,cs),
(206,203,o),
(232,224,o),
(238,250,c),
(243,276,o),
(226,298,o),
(200,298,cs),
(174,298,o),
(148,276,o),
(143,250,c)
);
}
);
width = 275;
}
);
unicode = 183;
},
{
glyphname = bullet;
layers = (
{
layerId = "AEDC8BCA-1602-4327-8A1C-D108A778CE54";
name = Regular;
shapes = (
{
closed = 1;
nodes = (
(121,195,o),
(156,150,o),
(211,150,cs),
(266,150,o),
(321,195,o),
(333,250,cs),
(344,305,o),
(309,350,o),
(254,350,cs),
(199,350,o),
(144,305,o),
(133,250,cs)
);
}
);
width = 360;
}
);
unicode = 8226;
},
{
glyphname = asterisk;
layers = (
{
layerId = "AEDC8BCA-1602-4327-8A1C-D108A778CE54";
name = Regular;
shapes = (
{
closed = 1;
nodes = (
(204,646,l),
(198,639,o),
(199,631,o),
(207,626,cs),
(308,562,l),
(176,495,l),
(167,491,o),
(165,484,o),
(168,476,cs),
(178,448,l),
(182,439,o),
(189,436,o),
(198,441,cs),
(327,511,l),
(296,366,ls),
(294,356,o),
(299,350,o),
(310,350,cs),
(344,350,ls),
(354,350,o),
(359,354,o),
(361,363,cs),
(392,511,l),
(487,443,ls),
(495,437,o),
(502,438,o),
(508,446,cs),
(533,478,ls),
(539,486,o),
(538,494,o),
(530,499,cs),
(428,562,l),
(560,627,l),
(569,631,o),
(571,638,o),
(568,646,cs),
(558,675,l),
(554,684,o),
(547,687,o),
(538,682,cs),
(414,616,l),
(439,734,l),
(442,744,o),
(437,750,o),
(426,750,cs),
(392,750,ls),
(382,750,o),
(377,746,o),
(375,737,cs),
(349,614,l),
(251,682,l),
(243,687,o),
(236,686,o),
(230,679,c)
);
}
);
width = 499;
}
);
unicode = 42;
},
{
glyphname = numbersign;
layers = (
{
layerId = "AEDC8BCA-1602-4327-8A1C-D108A778CE54";
name = Regular;
shapes = (
{
closed = 1;
nodes = (
(138,316,l),
(133,305,o),
(137,298,o),
(149,298,cs),
(219,298,l),
(174,203,l),
(103,203,ls),
(95,203,o),
(89,200,o),
(86,192,c),
(68,156,l),
(63,145,o),
(67,138,o),
(79,138,cs),
(142,138,l),
(91,32,l),
(87,22,o),
(90,15,o),
(100,13,c),
(130,4,ls),
(139,1,o),
(145,4,o),
(149,12,cs),
(209,138,l),
(302,138,l),
(251,32,ls),
(247,23,o),
(250,15,o),
(260,13,c),
(291,4,l),
(300,1,o),
(306,4,o),
(310,12,cs),
(370,138,l),
(447,138,ls),
(455,138,o),
(461,141,o),
(464,149,c),
(482,185,l),
(487,196,o),
(483,203,o),
(471,203,cs),
(401,203,l),
(447,298,l),
(517,298,ls),
(525,298,o),
(531,301,o),
(534,309,c),
(552,345,l),
(557,356,o),
(553,363,o),
(541,363,cs),
(478,363,l),
(528,468,l),
(532,478,o),
(529,485,o),
(519,487,c),
(489,496,ls),
(480,499,o),
(474,496,o),
(470,488,cs),
(410,363,l),
(317,363,l),
(368,468,l),
(372,478,o),
(369,485,o),
(359,487,c),
(329,496,ls),
(320,499,o),
(314,496,o),
(310,488,cs),
(250,363,l),
(173,363,ls),
(165,363,o),
(159,360,o),
(156,352,c)
);
},
{
closed = 1;
nodes = (
(334,203,l),
(240,203,l),
(286,298,l),
(379,298,l)
);
}
);
width = 514;
}
);
unicode = 35;
},
{
glyphname = slash;
layers = (
{
layerId = "AEDC8BCA-1602-4327-8A1C-D108A778CE54";
name = Regular;
shapes = (
{
closed = 1;
nodes = (
(19,13,l),
(13,5,o),
(15,-3,o),
(24,-8,cs),
(47,-21,l),
(55,-26,o),
(62,-24,o),
(67,-16,c),
(554,687,l),
(560,695,o),
(558,703,o),
(549,708,cs),
(526,721,l),
(518,726,o),
(511,724,o),
(506,716,c)
);
}
);
width = 425;
}
);
unicode = 47;
},
{
glyphname = backslash;
layers = (
{
layerId = "AEDC8BCA-1602-4327-8A1C-D108A778CE54";
name = Regular;
shapes = (
{
closed = 1;
nodes = (
(159,700,l),
(220,728,l),
(416,0,l),
(355,-28,l)
);
}
);
width = 425;
}
);
unicode = 92;
},
{
glyphname = hyphen;
layers = (
{
layerId = "AEDC8BCA-1602-4327-8A1C-D108A778CE54";
name = Regular;
shapes = (
{
closed = 1;
nodes = (
(99,234,ls),
(97,224,o),
(102,218,o),
(113,218,cs),
(382,218,ls),
(391,218,o),
(397,222,o),
(399,231,cs),
(406,267,l),
(409,277,o),
(404,283,o),
(393,283,cs),
(124,283,ls),
(114,283,o),
(109,279,o),
(107,270,cs)
);
}
);
width = 400;
}
);
unicode = 45;
},
{
glyphname = endash;
layers = (
{
layerId = "AEDC8BCA-1602-4327-8A1C-D108A778CE54";
name = Regular;
shapes = (
{
closed = 1;
nodes = (
(129,234,ls),
(127,224,o),
(132,218,o),
(143,218,cs),
(512,218,ls),
(521,218,o),
(527,222,o),
(529,231,cs),
(536,267,l),
(539,277,o),
(534,283,o),
(523,283,cs),
(154,283,ls),
(144,283,o),
(139,279,o),
(137,270,cs)
);
}
);
width = 560;
}
);
unicode = 8211;
},
{
glyphname = emdash;
layers = (
{
layerId = "AEDC8BCA-1602-4327-8A1C-D108A778CE54";
name = Regular;
shapes = (
{
closed = 1;
nodes = (
(99,234,ls),
(97,224,o),
(102,218,o),
(113,218,cs),
(732,218,ls),
(741,218,o),
(747,222,o),
(749,231,cs),
(756,267,l),
(759,277,o),
(754,283,o),
(743,283,cs),
(124,283,ls),
(114,283,o),
(109,279,o),
(107,270,cs)
);
}
);
width = 780;
}
);
unicode = 8212;
},
{
glyphname = underscore;
layers = (
{
layerId = "AEDC8BCA-1602-4327-8A1C-D108A778CE54";
name = Regular;
shapes = (
{
closed = 1;
nodes = (
(37,-59,ls),
(35,-69,o),
(40,-75,o),
(51,-75,cs),
(420,-75,ls),
(430,-75,o),
(435,-71,o),
(437,-62,cs),
(444,-27,ls),
(446,-17,o),
(441,-11,o),
(430,-11,cs),
(61,-11,ls),
(52,-11,o),
(46,-15,o),
(44,-24,cs)
);
}
);
width = 500;
}
);
unicode = 95;
},
{
glyphname = parenleft;
layers = (
{
layerId = "AEDC8BCA-1602-4327-8A1C-D108A778CE54";
name = Regular;
shapes = (
{
closed = 1;
nodes = (
(247,551,o),
(386,667,o),
(419,686,c),
(420,687,o),
(419,691,o),
(415,700,cs),
(403,728,ls),
(399,737,o),
(392,740,o),
(384,736,cs),
(308,695,o),
(167,555,o),
(120,334,cs),
(74,114,o),
(154,-26,o),
(212,-68,c),
(220,-73,o),
(227,-71,o),
(233,-64,cs),
(261,-31,ls),
(267,-24,o),
(266,-17,o),
(259,-10,cs),
(227,24,o),
(159,137,o),
(200,334,cs)
);
}
);
width = 335;
}
);
unicode = 40;
},
{
glyphname = parenright;
layers = (
{
layerId = "AEDC8BCA-1602-4327-8A1C-D108A778CE54";
name = Regular;
shapes = (
{
closed = 1;
nodes = (
(323,557,o),
(227,672,o),
(206,687,c),
(252,742,l),
(311,712,o),
(405,569,o),
(355,334,cs),
(306,99,o),
(150,-45,o),
(79,-75,c),
(55,-20,l),
(83,-5,o),
(228,110,o),
(275,334,cs)
);
}
);
width = 335;
}
);
unicode = 41;
},
{
glyphname = braceleft;
layers = (
{
layerId = "AEDC8BCA-1602-4327-8A1C-D108A778CE54";
name = Regular;
shapes = (
{
closed = 1;
nodes = (
(317,-60,l),
(317,-60,o),
(126,-110,o),
(160,50,cs),
(181,150,o),
(251,313,o),
(126,313,c),
(137,363,l),
(262,363,o),
(259,517,o),
(281,617,cs),
(315,777,o),
(484,727,o),
(484,727,c),
(472,672,l),
(248,721,o),
(378,389,o),
(214,343,c),
(206,340,o),
(206,339,o),
(214,336,cs),
(353,279,o),
(84,-54,o),
(328,-5,c)
);
}
);
width = 370;
}
);
unicode = 123;
},
{
glyphname = braceright;
layers = (
{
layerId = "AEDC8BCA-1602-4327-8A1C-D108A778CE54";
name = Regular;
shapes = (
{
closed = 1;
nodes = (
(30,-46,ls),
(28,-55,o),
(32,-62,o),
(41,-63,c),
(83,-71,o),
(202,-81,o),
(230,50,cs),
(250,146,o),
(251,301,o),
(363,312,cs),
(372,313,o),
(377,317,o),
(379,326,cs),
(384,347,l),
(386,357,o),
(381,363,o),
(371,364,cs),
(268,377,o),
(330,522,o),
(351,617,cs),
(380,752,o),
(248,737,o),
(206,730,c),
(198,728,o),
(193,723,o),
(191,715,c),
(186,690,ls),
(184,679,o),
(190,674,o),
(201,675,c),
(418,703,o),
(149,372,o),
(312,340,c),
(132,298,o),
(262,-39,o),
(53,-8,c),
(43,-6,o),
(37,-10,o),
(35,-20,cs)
);
}
);
width = 370;
}
);
unicode = 125;
},
{
glyphname = bracketleft;
layers = (
{
layerId = "AEDC8BCA-1602-4327-8A1C-D108A778CE54";
name = Regular;
shapes = (
{
closed = 1;
nodes = (
(289,-1,l),
(274,-71,l),
(94,-71,l),
(266,737,l),
(446,737,l),
(431,667,l),
(345,667,ls),
(335,667,o),
(330,663,o),
(328,654,cs),
(192,15,ls),
(190,5,o),
(195,-1,o),
(206,-1,cs)
);
}
);
width = 340;
}
);
unicode = 91;
},
{
glyphname = bracketright;
layers = (
{
layerId = "AEDC8BCA-1602-4327-8A1C-D108A778CE54";
name = Regular;
shapes = (
{
closed = 1;
nodes = (
(37,-55,ls),
(35,-65,o),
(40,-71,o),
(51,-71,cs),
(200,-71,ls),
(210,-71,o),
(215,-67,o),
(217,-58,cs),
(382,721,l),
(385,731,o),
(380,737,o),
(369,737,cs),
(220,737,ls),
(211,737,o),
(205,733,o),
(203,724,cs),
(195,683,l),
(192,673,o),
(197,667,o),
(208,667,cs),
(291,667,l),
(149,-1,l),
(63,-1,ls),
(53,-1,o),
(48,-5,o),
(46,-14,cs)
);
}
);
width = 340;
}
);
unicode = 93;
},
{
export = 0;
glyphname = parenleft.001;
lastChange = "2024-12-23 18:33:29 +0000";
layers = (
{
layerId = "AEDC8BCA-1602-4327-8A1C-D108A778CE54";
name = Regular;
shapes = (
{
closed = 1;
nodes = (
(130,551,o),
(245,667,o),
(273,686,c),
(274,686,o),
(272,691,o),
(267,699,cs),
(248,730,ls),
(243,738,o),
(236,740,o),
(228,735,cs),
(160,694,o),
(50,555,o),
(50,334,cs),
(50,113,o),
(160,-27,o),
(228,-68,c),
(235,-73,o),
(243,-71,o),
(248,-63,cs),
(267,-32,ls),
(272,-24,o),
(271,-18,o),
(264,-11,c),
(225,22,o),
(130,135,o),
(130,334,cs)
);
}
);
width = 335;
}
);
},
{
export = 0;
glyphname = parenright.001;
lastChange = "2024-12-23 18:33:26 +0000";
layers = (
{
layerId = "AEDC8BCA-1602-4327-8A1C-D108A778CE54";
name = Regular;
shapes = (
{
closed = 1;
nodes = (
(205,552,o),
(90,667,o),
(62,686,cs),
(61,686,o),
(63,691,o),
(68,699,cs),
(87,730,ls),
(92,738,o),
(99,740,o),
(107,735,cs),
(175,694,o),
(285,555,o),
(285,334,cs),
(285,113,o),
(175,-27,o),
(107,-68,cs),
(100,-73,o),
(92,-71,o),
(87,-63,cs),
(68,-32,ls),
(63,-24,o),
(64,-18,o),
(71,-11,cs),
(110,22,o),
(205,135,o),
(205,334,cs)
);
}
);
width = 335;
}
);
},
{
export = 0;
glyphname = braceleft.001;
lastChange = "2024-12-23 18:33:23 +0000";
layers = (
{
layerId = "AEDC8BCA-1602-4327-8A1C-D108A778CE54";
name = Regular;
shapes = (
{
closed = 1;
nodes = (
(330,-47,ls),
(330,-56,o),
(326,-61,o),
(317,-63,cs),
(275,-71,o),
(150,-83,o),
(150,50,cs),
(150,146,o),
(182,300,o),
(75,312,cs),
(65,313,o),
(60,318,o),
(60,328,cs),
(60,348,ls),
(60,358,o),
(65,363,o),
(75,364,cs),
(182,376,o),
(150,521,o),
(150,617,cs),
(150,750,o),
(275,738,o),
(317,730,cs),
(326,728,o),
(330,723,o),
(330,714,cs),
(330,688,ls),
(330,678,o),
(324,673,o),
(313,675,cs),
(106,705,o),
(290,390,o),
(143,343,cs),
(134,340,o),
(134,339,o),
(143,336,c),
(290,280,o),
(106,-38,o),
(313,-8,cs),
(324,-6,o),
(330,-11,o),
(330,-21,cs)
);
}
);
width = 370;
}
);
},
{
export = 0;
glyphname = braceright.001;
lastChange = "2024-12-23 18:33:20 +0000";
layers = (
{
layerId = "AEDC8BCA-1602-4327-8A1C-D108A778CE54";
name = Regular;
shapes = (
{
closed = 1;
nodes = (
(40,-47,ls),
(40,-56,o),
(44,-61,o),
(53,-63,cs),
(95,-71,o),
(220,-83,o),
(220,50,cs),
(220,146,o),
(188,300,o),
(295,312,cs),
(305,313,o),
(310,318,o),
(310,328,cs),
(310,348,ls),
(310,358,o),
(305,363,o),
(295,364,cs),
(188,376,o),
(220,521,o),
(220,617,cs),
(220,750,o),
(95,738,o),
(53,730,cs),
(44,728,o),
(40,723,o),
(40,714,cs),
(40,688,ls),
(40,678,o),
(46,673,o),
(57,675,c),
(270,705,o),
(69,372,o),
(240,340,c),
(69,298,o),
(270,-38,o),
(57,-8,c),
(46,-6,o),
(40,-11,o),
(40,-21,cs)
);
}
);
width = 370;
}
);
},
{
export = 0;
glyphname = bracketleft.001;
lastChange = "2024-12-23 18:33:18 +0000";
layers = (
{
layerId = "AEDC8BCA-1602-4327-8A1C-D108A778CE54";
name = Regular;
shapes = (
{
closed = 1;
nodes = (
(290,-1,l),
(290,-71,l),
(110,-71,l),
(110,737,l),
(290,737,l),
(290,667,l),
(205,667,ls),
(195,667,o),
(190,662,o),
(190,652,cs),
(190,14,ls),
(190,4,o),
(195,-1,o),
(205,-1,cs)
);
}
);
width = 340;
}
);
},
{
export = 0;
glyphname = bracketright.001;
lastChange = "2024-12-23 18:33:14 +0000";
layers = (
{
layerId = "AEDC8BCA-1602-4327-8A1C-D108A778CE54";
name = Regular;
shapes = (
{
closed = 1;
nodes = (
(50,-56,ls),
(50,-66,o),
(55,-71,o),
(65,-71,cs),
(215,-71,ls),
(225,-71,o),
(230,-66,o),
(230,-56,cs),
(230,722,ls),
(230,732,o),
(225,737,o),
(215,737,cs),
(65,737,ls),
(55,737,o),
(50,732,o),
(50,722,cs),
(50,682,ls),
(50,672,o),
(55,667,o),
(65,667,cs),
(150,667,l),
(150,-1,l),
(65,-1,ls),
(55,-1,o),
(50,-6,o),
(50,-16,cs)
);
}
);
width = 340;
}
);
},
{
glyphname = quotesinglbase;
layers = (
{
layerId = "AEDC8BCA-1602-4327-8A1C-D108A778CE54";
name = Regular;
shapes = (
{
closed = 1;
nodes = (
(43,16,o),
(59,-5,o),
(85,-5,cs),
(89,-5,l),
(84,-19,o),
(72,-38,o),
(59,-52,c),
(51,-62,o),
(53,-70,o),
(66,-70,cs),
(74,-70,o),
(79,-68,o),
(85,-63,c),
(105,-43,o),
(139,1,o),
(143,42,cs),
(146,68,o),
(132,90,o),
(106,90,cs),
(80,90,o),
(54,68,o),
(48,42,c)
);
}
);
width = 175;
}
);
unicode = 8218;
},
{
glyphname = quotedblbase;
layers = (
{
layerId = "AEDC8BCA-1602-4327-8A1C-D108A778CE54";
name = Regular;
shapes = (
{
closed = 1;
nodes = (
(63,16,o),
(89,10,o),
(84,-10,cs),
(81,-23,o),
(60,-51,o),
(47,-68,cs),
(41,-76,o),
(42,-83,o),
(50,-89,c),
(59,-94,l),
(67,-99,o),
(73,-99,o),
(80,-93,cs),
(121,-58,o),
(157,-6,o),
(163,42,cs),
(166,68,o),
(152,90,o),
(126,90,cs),
(100,90,o),
(74,68,o),
(68,42,c)
);
},
{
closed = 1;
nodes = (
(188,16,o),
(214,10,o),
(209,-10,cs),
(206,-23,o),
(185,-51,o),
(172,-68,cs),
(166,-76,o),
(167,-83,o),
(175,-89,c),
(184,-94,l),
(192,-99,o),
(198,-99,o),
(205,-93,cs),
(246,-58,o),
(282,-6,o),
(288,42,cs),
(291,68,o),
(277,90,o),
(251,90,cs),
(225,90,o),
(199,68,o),
(193,42,c)
);
}
);
width = 340;
}
);
unicode = 8222;
},
{
glyphname = quotedblleft;
layers = (
{
layerId = "AEDC8BCA-1602-4327-8A1C-D108A778CE54";
name = Regular;
shapes = (
{
closed = 1;
nodes = (
(286,614,o),
(260,620,o),
(265,640,cs),
(268,653,o),
(289,681,o),
(301,698,cs),
(307,706,o),
(306,713,o),
(298,719,c),
(290,724,ls),
(282,729,o),
(276,729,o),
(269,723,cs),
(227,688,o),
(191,636,o),
(185,588,c),
(183,562,o),
(197,540,o),
(223,540,cs),
(249,540,o),
(275,562,o),
(280,588,c)
);
},
{
closed = 1;
nodes = (
(411,614,o),
(385,620,o),
(390,640,cs),
(393,653,o),
(414,681,o),
(426,698,cs),
(432,706,o),
(431,713,o),
(423,719,c),
(415,724,ls),
(407,729,o),
(401,729,o),
(394,723,cs),
(352,688,o),
(316,636,o),
(310,588,c),
(308,562,o),
(322,540,o),
(348,540,cs),
(374,540,o),
(400,562,o),
(405,588,c)
);
}
);
width = 340;
}
);
unicode = 8220;
},
{
glyphname = quotedblright;
layers = (
{
layerId = "AEDC8BCA-1602-4327-8A1C-D108A778CE54";
name = Regular;
shapes = (
{
closed = 1;
nodes = (
(194,631,o),
(219,625,o),
(215,605,cs),
(212,592,o),
(191,564,o),
(178,547,cs),
(172,539,o),
(173,532,o),
(181,526,c),
(190,521,l),
(198,516,o),
(204,516,o),
(211,522,cs),
(252,557,o),
(288,609,o),
(294,657,cs),
(297,683,o),
(282,705,o),
(256,705,cs),
(230,705,o),
(205,683,o),
(199,657,c)
);
},
{
closed = 1;
nodes = (
(319,631,o),
(344,625,o),
(340,605,cs),
(337,592,o),
(316,564,o),
(303,547,cs),
(297,539,o),
(298,532,o),
(306,526,c),
(315,521,l),
(323,516,o),
(329,516,o),
(336,522,cs),
(377,557,o),
(413,609,o),
(419,657,cs),
(422,683,o),
(407,705,o),
(381,705,cs),
(355,705,o),
(330,683,o),
(324,657,c)
);
}
);
width = 340;
}
);
unicode = 8221;
},
{
glyphname = quoteleft;
layers = (
{
layerId = "AEDC8BCA-1602-4327-8A1C-D108A778CE54";
name = Regular;
shapes = (
{
closed = 1;
nodes = (
(286,614,o),
(260,620,o),
(265,640,cs),
(268,653,o),
(289,681,o),
(301,698,cs),
(307,706,o),
(306,713,o),
(298,719,c),
(290,724,ls),
(282,729,o),
(276,729,o),
(269,723,cs),
(227,688,o),
(191,636,o),
(185,588,c),
(183,562,o),
(197,540,o),
(223,540,cs),
(249,540,o),
(275,562,o),
(280,588,c)
);
}
);
width = 215;
}
);
unicode = 8216;
},
{
glyphname = quoteright;
layers = (
{
layerId = "AEDC8BCA-1602-4327-8A1C-D108A778CE54";
name = Regular;
shapes = (
{
closed = 1;
nodes = (
(194,631,o),
(219,625,o),
(215,605,cs),
(212,592,o),
(191,564,o),
(178,547,cs),
(172,539,o),
(173,532,o),
(181,526,c),
(190,521,l),
(198,516,o),
(204,516,o),
(211,522,cs),
(252,557,o),
(288,609,o),
(294,657,cs),
(297,683,o),
(282,705,o),
(256,705,cs),
(230,705,o),
(205,683,o),
(199,657,c)
);
}
);
width = 215;
}
);
unicode = 8217;
},
{
glyphname = guillemetleft;
layers = (
{
layerId = "AEDC8BCA-1602-4327-8A1C-D108A778CE54";
name = Regular;
shapes = (
{
closed = 1;
nodes = (
(298,439,l),
(334,399,l),
(193,259,ls),
(187,253,o),
(186,246,o),
(191,239,c),
(271,100,l),
(217,60,l),
(113,250,l)
);
},
{
closed = 1;
nodes = (
(460,439,l),
(496,399,l),
(354,259,l),
(347,253,o),
(346,246,o),
(351,238,cs),
(433,100,l),
(379,60,l),
(274,250,l)
);
}
);
width = 492;
}
);
unicode = 171;
},
{
glyphname = guillemetright;
layers = (
{
layerId = "AEDC8BCA-1602-4327-8A1C-D108A778CE54";
name = Regular;
shapes = (
{
closed = 1;
nodes = (
(254,250,l),
(112,110,l),
(105,104,o),
(104,96,o),
(111,89,cs),
(127,72,l),
(133,64,o),
(141,64,o),
(148,71,cs),
(315,241,ls),
(321,247,o),
(322,254,o),
(318,261,cs),
(226,425,ls),
(221,434,o),
(213,436,o),
(205,429,c),
(176,408,ls),
(168,402,o),
(167,395,o),
(171,387,c)
);
},
{
closed = 1;
nodes = (
(414,250,l),
(273,110,ls),
(267,104,o),
(266,96,o),
(273,89,cs),
(289,72,l),
(295,64,o),
(303,64,o),
(310,71,cs),
(476,241,ls),
(482,247,o),
(483,254,o),
(479,261,cs),
(388,425,ls),
(383,434,o),
(375,435,o),
(367,429,cs),
(337,407,ls),
(330,402,o),
(328,395,o),
(333,387,cs)
);
}
);
width = 492;
}
);
unicode = 187;
},
{
glyphname = guilsinglleft;
layers = (
{
layerId = "AEDC8BCA-1602-4327-8A1C-D108A778CE54";
name = Regular;
shapes = (
{
closed = 1;
nodes = (
(298,439,l),
(334,399,l),
(193,259,ls),
(187,253,o),
(186,246,o),
(191,239,c),
(271,100,l),
(217,60,l),
(113,250,l)
);
}
);
width = 330;
}
);
unicode = 8249;
},
{
glyphname = guilsinglright;
layers = (
{
layerId = "AEDC8BCA-1602-4327-8A1C-D108A778CE54";
name = Regular;
shapes = (
{
closed = 1;
nodes = (
(252,250,l),
(111,110,ls),
(105,104,o),
(104,96,o),
(111,89,cs),
(127,72,l),
(133,64,o),
(141,64,o),
(148,71,cs),
(314,241,ls),
(320,247,o),
(321,254,o),
(317,261,cs),
(226,425,ls),
(221,434,o),
(213,435,o),
(205,429,cs),
(175,407,ls),
(168,402,o),
(166,395,o),
(171,387,cs)
);
}
);
width = 330;
}
);
unicode = 8250;
},
{
glyphname = quotedbl;
layers = (
{
layerId = "AEDC8BCA-1602-4327-8A1C-D108A778CE54";
name = Regular;
shapes = (
{
closed = 1;
nodes = (
(159,516,ls),
(157,506,o),
(162,500,o),
(173,500,cs),
(198,500,ls),
(207,500,o),
(212,504,o),
(215,513,c),
(263,683,ls),
(266,694,o),
(261,700,o),
(250,700,cs),
(212,700,ls),
(202,700,o),
(197,696,o),
(195,687,cs)
);
},
{
closed = 1;
nodes = (
(284,516,ls),
(282,506,o),
(287,500,o),
(298,500,cs),
(323,500,ls),
(332,500,o),
(337,504,o),
(340,513,c),
(388,683,ls),
(391,694,o),
(386,700,o),
(375,700,cs),
(337,700,ls),
(327,700,o),
(322,696,o),
(320,687,cs)
);
}
);
width = 300;
}
);
unicode = 34;
},
{
glyphname = quotesingle;
layers = (
{
layerId = "AEDC8BCA-1602-4327-8A1C-D108A778CE54";
name = Regular;
shapes = (
{
closed = 1;
nodes = (
(159,516,ls),
(157,506,o),
(162,500,o),
(173,500,cs),
(198,500,ls),
(207,500,o),
(212,504,o),
(215,513,c),
(263,683,ls),
(266,694,o),
(261,700,o),
(250,700,cs),
(212,700,ls),
(202,700,o),
(197,696,o),
(195,687,cs)
);
}
);
width = 175;
}
);
unicode = 39;
},
{
glyphname = florin;
layers = (
{
layerId = "AEDC8BCA-1602-4327-8A1C-D108A778CE54";
name = Regular;
shapes = (
{
closed = 1;
nodes = (
(18,-140,o),
(-5,-130,o),
(-27,-114,c),
(-34,-108,o),
(-41,-109,o),
(-47,-117,cs),
(-69,-147,l),
(-75,-154,o),
(-75,-161,o),
(-67,-168,cs),
(-36,-194,o),
(5,-210,o),
(35,-210,cs),
(158,-210,o),
(186,-111,o),
(210,0,cs),
(302,435,l),
(423,435,ls),
(432,435,o),
(438,439,o),
(440,448,cs),
(447,484,l),
(450,494,o),
(445,500,o),
(434,500,cs),
(316,500,l),
(331,578,o),
(349,640,o),
(401,640,cs),
(432,640,o),
(456,630,o),
(477,614,c),
(485,609,o),
(492,609,o),
(498,617,cs),
(520,647,l),
(526,654,o),
(526,661,o),
(518,668,c),
(486,694,o),
(445,710,o),
(415,710,cs),
(292,710,o),
(264,611,o),
(241,500,c),
(180,500,ls),
(171,500,o),
(165,496,o),
(163,487,cs),
(156,451,l),
(153,441,o),
(158,435,o),
(169,435,cs),
(227,435,l),
(135,0,ls),
(119,-78,o),
(102,-140,o),
(50,-140,cs)
);
}
);
width = 410;
}
);
unicode = 402;
},
{
glyphname = at;
layers = (
{
layerId = "AEDC8BCA-1602-4327-8A1C-D108A778CE54";
name = Regular;
shapes = (
{
closed = 1;
nodes = (
(513,-46,l),
(511,-36,o),
(505,-32,o),
(495,-34,cs),
(459,-42,o),
(422,-47,o),
(389,-47,cs),
(219,-47,o),
(121,75,o),
(159,250,cs),
(199,440,o),
(352,547,o),
(512,547,cs),
(672,547,o),
(756,440,o),
(722,282,cs),
(691,132,o),
(613,79,o),
(594,95,cs),
(546,135,o),
(584,255,o),
(588,275,cs),
(615,403,l),
(617,411,o),
(615,418,o),
(609,423,c),
(590,436,o),
(546,463,o),
(480,463,cs),
(360,463,o),
(290,359,o),
(268,255,cs),
(246,151,o),
(247,47,o),
(351,47,cs),
(391,47,o),
(451,55,o),
(510,151,c),
(514,103,o),
(522,71,o),
(546,47,cs),
(593,0,o),
(750,82,o),
(792,282,cs),
(835,480,o),
(727,607,o),
(527,607,cs),
(327,607,o),
(138,480,o),
(89,250,cs),
(46,50,o),
(175,-107,o),
(375,-107,cs),
(420,-107,o),
(465,-100,o),
(508,-88,c),
(517,-86,o),
(521,-79,o),
(519,-70,cs)
);
},
{
closed = 1;
nodes = (
(315,103,o),
(315,177,o),
(332,255,cs),
(348,333,o),
(388,407,o),
(468,407,cs),
(524,407,o),
(551,383,o),
(551,383,c),
(535,223,o),
(443,103,o),
(379,103,cs)
);
}
);
width = 777;
}
);
unicode = 64;
},
{
glyphname = ampersand;
layers = (
{
layerId = "AEDC8BCA-1602-4327-8A1C-D108A778CE54";
name = Regular;
shapes = (
{
closed = 1;
nodes = (
(561,248,l),
(612,248,ls),
(621,248,o),
(627,252,o),
(629,261,cs),
(636,297,l),
(639,307,o),
(634,313,o),
(623,313,cs),
(575,313,l),
(598,418,l),
(600,430,o),
(594,436,o),
(582,432,cs),
(532,417,l),
(525,414,o),
(520,409,o),
(519,401,c),
(500,313,l),
(393,313,ls),
(254,313,o),
(234,374,o),
(247,435,cs),
(260,498,o),
(307,560,o),
(446,560,cs),
(479,560,o),
(504,556,o),
(527,548,cs),
(536,545,o),
(542,547,o),
(547,554,cs),
(572,591,ls),
(578,600,o),
(575,608,o),
(566,611,c),
(534,623,o),
(499,630,o),
(460,630,cs),
(267,630,o),
(193,533,o),
(172,435,cs),
(159,373,o),
(168,311,o),
(249,277,c),
(189,252,o),
(152,210,o),
(142,163,cs),
(124,77,o),
(150,-10,o),
(324,-10,cs),
(390,-10,o),
(453,9,o),
(509,41,c),
(515,45,o),
(519,50,o),
(520,58,c)
);
},
{
closed = 1;
nodes = (
(221,54,o),
(199,103,o),
(212,163,cs),
(224,219,o),
(263,248,o),
(379,248,cs),
(486,248,l),
(450,77,l),
(425,66,o),
(381,54,o),
(338,54,cs)
);
}
);
width = 654;
}
);
unicode = 38;
},
{
glyphname = paragraph;
layers = (
{
layerId = "AEDC8BCA-1602-4327-8A1C-D108A778CE54";
name = Regular;
shapes = (
{
closed = 1;
nodes = (
(165,545,o),
(201,500,o),
(256,500,c),
(153,16,ls),
(151,6,o),
(156,0,o),
(167,0,cs),
(201,0,ls),
(211,0,o),
(216,4,o),
(218,13,cs),
(349,635,l),
(444,635,l),
(313,16,ls),
(311,6,o),
(316,0,o),
(327,0,cs),
(361,0,ls),
(371,0,o),
(376,4,o),
(378,13,cs),
(509,635,l),
(545,635,ls),
(554,635,o),
(560,639,o),
(562,648,cs),
(569,684,l),
(572,694,o),
(567,700,o),
(556,700,cs),
(298,700,ls),
(243,700,o),
(189,655,o),
(177,600,cs)
);
}
);
width = 485;
}
);
unicode = 182;
},
{
glyphname = section;
layers = (
{
layerId = "AEDC8BCA-1602-4327-8A1C-D108A778CE54";
name = Regular;
shapes = (
{
closed = 1;
nodes = (
(159,525,o),
(173,494,o),
(199,474,c),
(163,453,o),
(137,419,o),
(127,373,cs),
(108,285,o),
(170,255,o),
(249,240,cs),
(298,231,o),
(326,204,o),
(315,155,cs),
(304,100,o),
(260,60,o),
(200,60,cs),
(158,60,o),
(123,76,o),
(106,86,cs),
(98,91,o),
(91,90,o),
(85,82,cs),
(55,40,l),
(48,32,o),
(50,24,o),
(59,19,c),
(82,9,o),
(128,-10,o),
(185,-10,cs),
(295,-10,o),
(375,60,o),
(395,155,cs),
(404,197,o),
(397,229,o),
(379,251,c),
(408,277,o),
(429,313,o),
(438,355,cs),
(459,454,o),
(392,491,o),
(305,505,cs),
(255,513,o),
(231,535,o),
(239,573,cs),
(249,617,o),
(299,640,o),
(334,640,cs),
(367,640,o),
(393,629,o),
(414,619,c),
(422,614,o),
(429,616,o),
(434,623,cs),
(462,662,ls),
(468,670,o),
(466,678,o),
(458,683,c),
(432,697,o),
(394,710,o),
(348,710,cs),
(263,710,o),
(187,657,o),
(169,573,cs)
);
},
{
closed = 1;
nodes = (
(212,313,o),
(189,335,o),
(197,373,cs),
(206,417,o),
(256,440,o),
(291,440,c),
(340,431,o),
(368,404,o),
(358,355,cs),
(352,329,o),
(340,306,o),
(321,290,c),
(303,296,o),
(283,301,o),
(262,305,cs)
);
}
);
width = 413;
}
);
unicode = 167;
},
{
glyphname = copyright;
layers = (
{
layerId = "AEDC8BCA-1602-4327-8A1C-D108A778CE54";
name = Regular;
shapes = (
{
closed = 1;
nodes = (
(72,106,o),
(163,-10,o),
(307,-10,cs),
(451,-10,o),
(592,106,o),
(623,250,cs),
(653,394,o),
(562,510,o),
(418,510,cs),
(274,510,o),
(133,394,o),
(103,250,cs)
);
},
{
closed = 1;
nodes = (
(177,366,o),
(291,460,o),
(407,460,cs),
(523,460,o),
(597,366,o),
(573,250,cs),
(548,134,o),
(434,40,o),
(318,40,cs),
(202,40,o),
(128,134,o),
(153,250,cs)
);
},
{
closed = 1;
nodes = (
(350,356,o),
(326,301,o),
(316,250,cs),
(305,199,o),
(305,144,o),
(355,144,cs),
(368,144,o),
(390,147,o),
(409,159,c),
(426,126,l),
(398,104,o),
(368,95,o),
(345,95,cs),
(256,95,o),
(236,173,o),
(253,250,cs),
(269,328,o),
(322,405,o),
(411,405,cs),
(434,405,o),
(460,396,o),
(479,374,c),
(448,341,l),
(433,352,o),
(413,356,o),
(400,356,cs)
);
}
);
width = 620;
}
);
unicode = 169;
},
{
glyphname = registered;
layers = (
{
layerId = "AEDC8BCA-1602-4327-8A1C-D108A778CE54";
name = Regular;
shapes = (
{
closed = 1;
nodes = (
(72,106,o),
(163,-10,o),
(307,-10,cs),
(451,-10,o),
(592,106,o),
(623,250,cs),
(653,394,o),
(562,510,o),
(418,510,cs),
(274,510,o),
(133,394,o),
(103,250,cs)
);
},
{
closed = 1;
nodes = (
(177,366,o),
(291,460,o),
(407,460,cs),
(523,460,o),
(597,366,o),
(573,250,cs),
(548,134,o),
(434,40,o),
(318,40,cs),
(202,40,o),
(128,134,o),
(153,250,cs)
);
},
{
closed = 1;
nodes = (
(237,116,l),
(234,106,o),
(239,100,o),
(250,100,cs),
(267,100,ls),
(277,100,o),
(282,104,o),
(284,113,cs),
(306,219,l),
(317,216,o),
(332,215,o),
(345,215,cs),
(357,215,o),
(367,216,o),
(377,217,c),
(394,114,l),
(395,105,o),
(401,100,o),
(410,100,c),
(429,101,l),
(440,102,o),
(445,108,o),
(442,118,c),
(417,228,l),
(459,246,o),
(478,278,o),
(484,310,c),
(495,358,o),
(479,405,o),
(386,405,cs),
(357,405,o),
(327,396,o),
(301,383,c),
(295,379,o),
(291,374,o),
(290,366,c)
);
},
{
closed = 1;
nodes = (
(433,364,o),
(442,334,o),
(437,310,cs),
(433,287,o),
(410,255,o),
(354,255,cs),
(340,255,o),
(324,257,o),
(315,263,c),
(335,356,l),
(346,362,o),
(363,364,o),
(377,364,cs)
);
}
);
width = 620;
}
);
unicode = 174;
},
{
glyphname = trademark;
layers = (
{
layerId = "AEDC8BCA-1602-4327-8A1C-D108A778CE54";
name = Regular;
shapes = (
{
closed = 1;
nodes = (
(294,660,l),
(346,660,ls),
(356,660,o),
(361,664,o),
(363,673,c),
(365,684,ls),
(367,694,o),
(362,700,o),
(351,700,cs),
(212,700,ls),
(202,700,o),
(197,696,o),
(195,687,c),
(193,676,ls),
(191,666,o),
(196,660,o),
(207,660,cs),
(256,660,l),
(213,458,l),
(210,448,o),
(215,442,o),
(226,442,cs),
(233,442,ls),
(243,442,o),
(248,446,o),
(250,455,cs)
);
},
{
closed = 1;
nodes = (
(466,442,l),
(431,442,l),
(420,594,ls),
(419,609,o),
(407,611,o),
(403,596,c),
(355,442,l),
(313,442,l),
(401,700,l),
(449,700,l),
(459,536,ls),
(460,521,o),
(471,519,o),
(477,533,c),
(557,700,l),
(605,700,l),
(583,442,l),
(542,442,l),
(559,592,ls),
(561,606,o),
(549,610,o),
(543,597,cs)
);
}
);
width = 540;
}
);
unicode = 8482;
},
{
glyphname = degree;
layers = (
{
layerId = "AEDC8BCA-1602-4327-8A1C-D108A778CE54";
name = Regular;
shapes = (
{
closed = 1;
nodes = (
(140,472,o),
(197,400,o),
(287,400,cs),
(377,400,o),
(465,472,o),
(484,562,cs),
(503,652,o),
(446,725,o),
(356,725,cs),
(266,725,o),
(178,652,o),
(159,562,cs)
);
},
{
closed = 1;
nodes = (
(235,616,o),
(288,660,o),
(342,660,cs),
(396,660,o),
(430,616,o),
(419,562,cs),
(407,508,o),
(354,465,o),
(300,465,cs),
(246,465,o),
(212,508,o),
(224,562,cs)
);
}
);
width = 405;
}
);
unicode = 176;
},
{
glyphname = bar;
layers = (
{
layerId = "AEDC8BCA-1602-4327-8A1C-D108A778CE54";
name = Regular;
shapes = (
{
closed = 1;
nodes = (
(65,-184,ls),
(63,-194,o),
(68,-200,o),
(79,-200,cs),
(113,-200,ls),
(123,-200,o),
(128,-196,o),
(130,-187,cs),
(315,684,ls),
(317,694,o),
(312,700,o),
(301,700,cs),
(267,700,ls),
(257,700,o),
(252,696,o),
(250,687,cs)
);
}
);
width = 275;
}
);
unicode = 124;
},
{
glyphname = dagger;
layers = (
{
layerId = "AEDC8BCA-1602-4327-8A1C-D108A778CE54";
name = Regular;
shapes = (
{
closed = 1;
nodes = (
(170,571,l),
(167,561,o),
(172,555,o),
(183,555,cs),
(276,555,l),
(215,266,ls),
(213,256,o),
(218,250,o),
(229,250,cs),
(268,250,ls),
(278,250,o),
(283,254,o),
(285,263,cs),
(346,555,l),
(442,555,ls),
(452,555,o),
(457,559,o),
(459,568,cs),
(466,603,l),
(469,613,o),
(464,619,o),
(453,619,cs),
(360,619,l),
(384,734,l),
(387,744,o),
(382,750,o),
(371,750,cs),
(332,750,ls),
(322,750,o),
(317,746,o),
(315,737,cs),
(290,619,l),
(194,619,ls),
(184,619,o),
(179,615,o),
(177,606,cs)
);
}
);
width = 386;
}
);
unicode = 8224;
},
{
glyphname = cent;
layers = (
{
layerId = "AEDC8BCA-1602-4327-8A1C-D108A778CE54";
name = Regular;
shapes = (
{
closed = 1;
nodes = (
(358,68,l),
(355,77,o),
(348,80,o),
(339,77,cs),
(320,70,o),
(298,64,o),
(275,61,c),
(356,438,l),
(377,436,o),
(396,429,o),
(412,422,c),
(420,419,o),
(427,420,o),
(432,427,c),
(461,463,ls),
(467,471,o),
(466,479,o),
(456,484,cs),
(434,495,o),
(406,506,o),
(371,509,c),
(384,569,ls),
(386,579,o),
(381,585,o),
(370,585,cs),
(361,585,ls),
(351,585,o),
(346,581,o),
(344,572,cs),
(331,509,l),
(191,500,o),
(109,375,o),
(83,250,cs),
(56,125,o),
(85,0,o),
(221,-9,c),
(208,-68,l),
(205,-79,o),
(210,-85,o),
(221,-85,cs),
(230,-85,ls),
(240,-85,o),
(245,-81,o),
(247,-72,cs),
(261,-9,l),
(300,-6,o),
(334,5,o),
(362,18,cs),
(371,22,o),
(373,29,o),
(370,37,cs)
);
},
{
closed = 1;
nodes = (
(182,342,o),
(227,429,o),
(316,439,c),
(235,61,l),
(151,71,o),
(143,158,o),
(163,250,cs)
);
}
);
width = 400;
}
);
unicode = 162;
},
{
glyphname = dollar;
layers = (
{
layerId = "AEDC8BCA-1602-4327-8A1C-D108A778CE54";
name = Regular;
shapes = (
{
closed = 1;
nodes = (
(524,283,o),
(464,330,o),
(352,388,c),
(395,592,l),
(423,584,o),
(447,572,o),
(472,559,c),
(480,554,o),
(487,555,o),
(493,563,c),
(523,599,l),
(529,607,o),
(528,614,o),
(520,620,c),
(489,640,o),
(454,657,o),
(412,668,c),
(423,719,ls),
(425,729,o),
(420,735,o),
(409,735,cs),
(390,735,ls),
(380,735,o),
(375,731,o),
(373,722,cs),
(363,677,l),
(125,704,o),
(96,407,o),
(286,315,c),
(233,65,l),
(182,70,o),
(147,90,o),
(110,112,cs),
(102,117,o),
(95,116,o),
(90,108,c),
(57,63,ls),
(51,55,o),
(52,48,o),
(60,42,c),
(103,16,o),
(155,-1,o),
(217,-10,c),
(205,-67,ls),
(203,-77,o),
(208,-83,o),
(219,-83,cs),
(238,-83,ls),
(247,-83,o),
(253,-79,o),
(255,-70,cs),
(266,-14,l),
(399,-16,o),
(477,60,o),
(500,168,cs)
);
},
{
closed = 1;
nodes = (
(247,585,o),
(287,607,o),
(347,602,c),
(306,410,l),
(306,410,o),
(305,410,o),
(305,411,c),
(250,438,o),
(224,475,o),
(236,530,cs)
);
},
{
closed = 1;
nodes = (
(395,102,o),
(349,69,o),
(283,64,c),
(331,292,l),
(386,261,o),
(423,228,o),
(410,168,cs)
);
}
);
width = 578;
}
);
unicode = 36;
},
{
glyphname = euro;
layers = (
{
layerId = "AEDC8BCA-1602-4327-8A1C-D108A778CE54";
name = Regular;
shapes = (
{
closed = 1;
nodes = (
(156,359,l),
(146,314,l),
(112,314,ls),
(104,314,o),
(98,311,o),
(94,304,cs),
(81,282,ls),
(75,272,o),
(79,264,o),
(91,264,cs),
(140,264,l),
(128,113,o),
(187,-10,o),
(367,-10,cs),
(430,-10,o),
(491,6,o),
(546,35,cs),
(554,39,o),
(557,45,o),
(554,54,cs),
(542,90,ls),
(539,100,o),
(532,103,o),
(523,99,cs),
(476,79,o),
(430,65,o),
(383,65,cs),
(262,65,o),
(223,153,o),
(231,264,c),
(424,264,ls),
(432,264,o),
(438,267,o),
(442,274,cs),
(455,296,ls),
(461,306,o),
(457,314,o),
(445,314,cs),
(236,314,l),
(246,359,l),
(482,359,ls),
(490,359,o),
(496,362,o),
(500,369,cs),
(513,391,ls),
(519,401,o),
(515,409,o),
(503,409,cs),
(261,409,l),
(302,516,o),
(378,602,o),
(497,602,cs),
(544,602,o),
(584,588,o),
(622,568,cs),
(630,564,o),
(637,566,o),
(642,573,c),
(674,614,ls),
(680,622,o),
(679,629,o),
(670,635,c),
(627,661,o),
(575,677,o),
(513,677,cs),
(335,677,o),
(224,557,o),
(171,409,c),
(132,409,ls),
(124,409,o),
(118,406,o),
(114,399,cs),
(101,377,ls),
(95,367,o),
(99,359,o),
(111,359,cs)
);
}
);
width = 574;
}
);
unicode = 8364;
},
{
glyphname = sterling;
layers = (
{
layerId = "AEDC8BCA-1602-4327-8A1C-D108A778CE54";
name = Regular;
shapes = (
{
closed = 1;
nodes = (
(107,316,l),
(104,306,o),
(109,300,o),
(120,300,cs),
(159,300,l),
(150,233,o),
(133,145,o),
(63,82,c),
(57,77,o),
(54,72,o),
(53,65,c),
(44,20,ls),
(42,8,o),
(48,3,o),
(60,7,c),
(186,44,o),
(286,-10,o),
(357,-10,cs),
(420,-10,o),
(481,6,o),
(536,35,cs),
(544,39,o),
(547,45,o),
(544,54,cs),
(535,81,ls),
(532,90,o),
(525,93,o),
(516,90,cs),
(469,76,o),
(420,65,o),
(373,65,cs),
(308,65,o),
(260,120,o),
(130,95,c),
(203,137,o),
(217,230,o),
(229,300,c),
(341,300,ls),
(349,300,o),
(355,303,o),
(359,310,c),
(373,332,ls),
(379,342,o),
(375,350,o),
(363,350,cs),
(239,350,l),
(272,480,o),
(337,597,o),
(476,597,cs),
(523,597,o),
(576,590,o),
(619,576,c),
(627,573,o),
(634,575,o),
(639,582,cs),
(663,614,l),
(670,622,o),
(669,629,o),
(660,635,c),
(617,661,o),
(565,677,o),
(503,677,cs),
(302,677,o),
(210,523,o),
(169,350,c),
(128,350,ls),
(118,350,o),
(113,346,o),
(111,337,cs)
);
}
);
width = 550;
}
);
unicode = 163;
},
{
glyphname = yen;
layers = (
{
layerId = "AEDC8BCA-1602-4327-8A1C-D108A778CE54";
name = Regular;
shapes = (
{
closed = 1;
nodes = (
(334,350,l),
(254,654,l),
(252,663,o),
(247,667,o),
(238,667,cs),
(179,667,ls),
(168,667,o),
(163,660,o),
(166,650,cs),
(263,330,l),
(169,330,ls),
(159,330,o),
(154,326,o),
(152,317,cs),
(148,296,l),
(145,286,o),
(150,280,o),
(161,280,cs),
(277,280,l),
(278,277,l),
(268,230,l),
(147,230,ls),
(137,230,o),
(132,226,o),
(130,217,cs),
(126,196,ls),
(124,186,o),
(129,180,o),
(140,180,cs),
(258,180,l),
(223,16,ls),
(221,6,o),
(226,0,o),
(237,0,cs),
(286,0,ls),
(296,0,o),
(301,4,o),
(303,13,cs),
(338,180,l),
(459,180,ls),
(469,180,o),
(474,184,o),
(476,193,cs),
(480,214,ls),
(482,224,o),
(477,230,o),
(466,230,cs),
(348,230,l),
(358,277,l),
(360,280,l),
(480,280,ls),
(490,280,o),
(495,284,o),
(497,293,cs),
(501,314,l),
(504,324,o),
(499,330,o),
(488,330,cs),
(397,330,l),
(628,649,ls),
(635,659,o),
(631,667,o),
(618,667,cs),
(563,667,ls),
(554,667,o),
(549,664,o),
(544,657,cs)
);
}
);
width = 520;
}
);
unicode = 165;
},
{
glyphname = plus;
lastChange = "2024-12-23 17:45:12 +0000";
layers = (
{
layerId = "AEDC8BCA-1602-4327-8A1C-D108A778CE54";
name = Regular;
shapes = (
{
closed = 1;
nodes = (
(76,234,ls),
(74,224,o),
(79,218,o),
(90,218,cs),
(241,218,l),
(209,66,l),
(206,56,o),
(211,50,o),
(222,50,cs),
(256,50,ls),
(266,50,o),
(271,54,o),
(273,63,cs),
(306,218,l),
(459,218,ls),
(468,218,o),
(474,222,o),
(476,231,cs),
(483,267,l),
(486,277,o),
(481,283,o),
(470,283,cs),
(320,283,l),
(352,434,ls),
(354,444,o),
(349,450,o),
(338,450,cs),
(304,450,ls),
(294,450,o),
(289,446,o),
(287,437,cs),
(255,283,l),
(101,283,ls),
(91,283,o),
(86,279,o),
(84,270,cs)
);
}
);
width = 560;
}
);
unicode = 43;
},
{
glyphname = minus;
lastChange = "2024-12-23 17:45:23 +0000";
layers = (
{
layerId = "AEDC8BCA-1602-4327-8A1C-D108A778CE54";
name = Regular;
shapes = (
{
closed = 1;
nodes = (
(76,234,ls),
(74,224,o),
(79,218,o),
(90,218,cs),
(459,218,ls),
(468,218,o),
(474,222,o),
(476,231,cs),
(483,267,l),
(486,277,o),
(481,283,o),
(470,283,cs),
(101,283,ls),
(91,283,o),
(86,279,o),
(84,270,cs)
);
}
);
width = 560;
}
);
unicode = 8722;
},
{
glyphname = multiply;
lastChange = "2024-12-23 17:45:38 +0000";
layers = (
{
layerId = "AEDC8BCA-1602-4327-8A1C-D108A778CE54";
name = Regular;
shapes = (
{
closed = 1;
nodes = (
(149,375,ls),
(141,368,o),
(140,361,o),
(147,353,cs),
(234,250,l),
(100,144,ls),
(92,138,o),
(91,131,o),
(97,123,c),
(121,94,l),
(127,86,o),
(134,86,o),
(142,92,c),
(271,202,l),
(351,94,ls),
(357,86,o),
(364,85,o),
(372,92,cs),
(412,125,ls),
(420,132,o),
(421,139,o),
(415,147,c),
(330,250,l),
(461,356,l),
(469,362,o),
(470,369,o),
(464,377,cs),
(441,406,l),
(434,414,o),
(427,414,o),
(419,408,c),
(292,298,l),
(210,406,ls),
(204,414,o),
(197,415,o),
(189,408,cs)
);
}
);
width = 560;
}
);
unicode = 215;
},
{
glyphname = divide;
lastChange = "2024-12-23 17:45:43 +0000";
layers = (
{
layerId = "AEDC8BCA-1602-4327-8A1C-D108A778CE54";
name = Regular;
shapes = (
{
closed = 1;
nodes = (
(259,376,o),
(276,355,o),
(302,355,cs),
(328,355,o),
(354,376,o),
(360,402,c),
(365,428,o),
(348,450,o),
(322,450,cs),
(296,450,o),
(270,428,o),
(265,402,c)
);
},
{
closed = 1;
nodes = (
(76,234,ls),
(74,224,o),
(79,218,o),
(90,218,cs),
(459,218,ls),
(468,218,o),
(474,222,o),
(476,231,cs),
(483,267,l),
(486,277,o),
(481,283,o),
(470,283,cs),
(101,283,ls),
(91,283,o),
(86,279,o),
(84,270,cs)
);
},
{
closed = 1;
nodes = (
(195,71,o),
(211,50,o),
(237,50,cs),
(263,50,o),
(290,71,o),
(295,97,c),
(301,123,o),
(283,145,o),
(257,145,cs),
(231,145,o),
(206,123,o),
(200,97,c)
);
}
);
width = 560;
}
);
unicode = 247;
},
{
glyphname = equal;
lastChange = "2024-12-23 17:45:52 +0000";
layers = (
{
layerId = "AEDC8BCA-1602-4327-8A1C-D108A778CE54";
name = Regular;
shapes = (
{
closed = 1;
nodes = (
(93,314,ls),
(91,304,o),
(96,298,o),
(107,298,cs),
(476,298,ls),
(485,298,o),
(491,302,o),
(493,311,cs),
(500,347,l),
(503,357,o),
(498,363,o),
(487,363,cs),
(118,363,ls),
(108,363,o),
(103,359,o),
(101,350,cs)
);
},
{
closed = 1;
nodes = (
(59,154,ls),
(57,144,o),
(62,138,o),
(73,138,cs),
(442,138,ls),
(451,138,o),
(457,142,o),
(459,151,cs),
(466,187,l),
(469,197,o),
(464,203,o),
(453,203,cs),
(84,203,ls),
(74,203,o),
(69,199,o),
(67,190,cs)
);
}
);
width = 560;
}
);
unicode = 61;
},
{
glyphname = notequal;
lastChange = "2024-12-23 17:45:58 +0000";
layers = (
{
layerId = "AEDC8BCA-1602-4327-8A1C-D108A778CE54";
name = Regular;
shapes = (
{
closed = 1;
nodes = (
(93,314,ls),
(91,304,o),
(96,298,o),
(107,298,cs),
(286,298,l),
(221,203,l),
(84,203,ls),
(75,203,o),
(69,199,o),
(67,190,cs),
(60,154,l),
(57,144,o),
(62,138,o),
(73,138,cs),
(176,138,l),
(85,8,ls),
(79,0,o),
(81,-8,o),
(90,-13,cs),
(104,-21,ls),
(113,-26,o),
(120,-24,o),
(125,-16,c),
(231,138,l),
(442,138,ls),
(451,138,o),
(457,142,o),
(459,151,cs),
(466,187,l),
(469,197,o),
(464,203,o),
(453,203,cs),
(276,203,l),
(342,298,l),
(476,298,ls),
(485,298,o),
(491,302,o),
(493,311,cs),
(500,347,l),
(503,357,o),
(498,363,o),
(487,363,cs),
(387,363,l),
(473,487,l),
(479,495,o),
(477,503,o),
(469,508,c),
(455,516,l),
(447,520,o),
(440,519,o),
(435,511,c),
(332,363,l),
(118,363,ls),
(108,363,o),
(103,359,o),
(101,350,cs)
);
}
);
width = 560;
}
);
unicode = 8800;
},
{
glyphname = greater;
lastChange = "2024-12-23 17:46:10 +0000";
layers = (
{
layerId = "AEDC8BCA-1602-4327-8A1C-D108A778CE54";
name = Regular;
shapes = (
{
closed = 1;
nodes = (
(77,385,l),
(95,470,l),
(558,293,l),
(539,207,l),
(2,30,l),
(20,115,l),
(430,241,ls),
(443,245,o),
(443,255,o),
(430,260,cs)
);
}
);
width = 560;
}
);
unicode = 62;
},
{
glyphname = less;
lastChange = "2024-12-23 17:46:19 +0000";
layers = (
{
layerId = "AEDC8BCA-1602-4327-8A1C-D108A778CE54";
name = Regular;
shapes = (
{
closed = 1;
nodes = (
(555,450,l),
(557,461,o),
(551,467,o),
(539,463,cs),
(33,297,l),
(25,294,o),
(21,289,o),
(19,281,cs),
(6,221,ls),
(4,212,o),
(7,205,o),
(16,202,c),
(451,36,l),
(460,32,o),
(467,36,o),
(469,46,cs),
(481,101,ls),
(483,110,o),
(480,117,o),
(471,120,cs),
(103,250,l),
(530,381,l),
(537,384,o),
(542,389,o),
(543,397,c)
);
}
);
width = 560;
}
);
unicode = 60;
},
{
glyphname = greaterequal;
lastChange = "2024-12-23 17:46:27 +0000";
layers = (
{
layerId = "AEDC8BCA-1602-4327-8A1C-D108A778CE54";
name = Regular;
shapes = (
{
closed = 1;
nodes = (
(127,453,l),
(142,524,l),
(512,383,l),
(497,314,l),
(67,173,l),
(82,244,l),
(395,340,ls),
(409,344,o),
(409,354,o),
(396,359,cs)
);
},
{
closed = 1;
nodes = (
(62,150,l),
(462,150,l),
(449,85,l),
(49,85,l)
);
}
);
width = 560;
}
);
unicode = 8805;
},
{
glyphname = lessequal;
lastChange = "2024-12-23 17:46:31 +0000";
layers = (
{
layerId = "AEDC8BCA-1602-4327-8A1C-D108A778CE54";
name = Regular;
shapes = (
{
closed = 1;
nodes = (
(523,504,l),
(525,515,o),
(519,521,o),
(507,518,c),
(108,387,l),
(100,384,o),
(96,379,o),
(94,371,c),
(85,328,ls),
(83,319,o),
(86,312,o),
(95,309,c),
(437,179,l),
(446,175,o),
(453,179,o),
(455,189,cs),
(464,230,ls),
(466,239,o),
(463,246,o),
(454,249,cs),
(170,349,l),
(501,450,ls),
(508,452,o),
(513,457,o),
(514,465,c)
);
},
{
closed = 1;
nodes = (
(37,101,ls),
(35,91,o),
(40,85,o),
(51,85,cs),
(420,85,ls),
(429,85,o),
(435,89,o),
(437,98,cs),
(444,134,ls),
(446,144,o),
(441,150,o),
(430,150,cs),
(61,150,ls),
(52,150,o),
(46,146,o),
(44,137,cs)
);
}
);
width = 560;
}
);
unicode = 8804;
},
{
glyphname = plusminus;
lastChange = "2024-12-23 17:46:36 +0000";
layers = (
{
layerId = "AEDC8BCA-1602-4327-8A1C-D108A778CE54";
name = Regular;
shapes = (
{
closed = 1;
nodes = (
(106,384,ls),
(104,374,o),
(109,368,o),
(120,368,cs),
(271,368,l),
(239,216,l),
(236,206,o),
(241,200,o),
(252,200,cs),
(286,200,ls),
(296,200,o),
(301,204,o),
(303,213,cs),
(336,368,l),
(489,368,ls),
(498,368,o),
(504,372,o),
(506,381,cs),
(513,417,l),
(516,427,o),
(511,433,o),
(500,433,cs),
(350,433,l),
(382,584,ls),
(384,594,o),
(379,600,o),
(368,600,cs),
(334,600,ls),
(324,600,o),
(319,596,o),
(317,587,cs),
(285,433,l),
(131,433,ls),
(121,433,o),
(116,429,o),
(114,420,cs)
);
},
{
closed = 1;
nodes = (
(46,101,ls),
(44,91,o),
(49,85,o),
(60,85,cs),
(429,85,ls),
(438,85,o),
(444,89,o),
(446,98,cs),
(453,134,ls),
(455,144,o),
(450,150,o),
(439,150,cs),
(70,150,ls),
(61,150,o),
(55,146,o),
(53,137,cs)
);
}
);
width = 560;
}
);
unicode = 177;
},
{
glyphname = approxequal;
lastChange = "2024-12-23 17:46:46 +0000";
layers = (
{
layerId = "AEDC8BCA-1602-4327-8A1C-D108A778CE54";
name = Regular;
shapes = (
{
closed = 1;
nodes = (
(81,297,l),
(84,287,o),
(91,285,o),
(100,290,cs),
(121,302,o),
(160,321,o),
(195,321,cs),
(245,321,o),
(289,291,o),
(289,291,cs),
(289,291,o),
(333,266,o),
(383,266,cs),
(433,266,o),
(488,302,o),
(511,318,cs),
(518,323,o),
(520,330,o),
(517,338,cs),
(511,355,l),
(507,365,o),
(500,367,o),
(491,362,cs),
(470,350,o),
(432,331,o),
(397,331,cs),
(347,331,o),
(303,361,o),
(303,361,cs),
(303,361,o),
(259,386,o),
(209,386,cs),
(159,386,o),
(104,350,o),
(81,334,cs),
(74,329,o),
(72,322,o),
(75,314,cs)
);
},
{
closed = 1;
nodes = (
(49,147,l),
(52,137,o),
(59,135,o),
(68,140,cs),
(89,152,o),
(128,171,o),
(163,171,cs),
(213,171,o),
(257,141,o),
(257,141,cs),
(257,141,o),
(301,116,o),
(351,116,cs),
(401,116,o),
(456,152,o),
(479,168,cs),
(486,173,o),
(488,180,o),
(485,188,cs),
(479,205,l),
(475,215,o),
(468,217,o),
(459,212,cs),
(438,200,o),
(400,181,o),
(365,181,cs),
(315,181,o),
(271,211,o),
(271,211,cs),
(271,211,o),
(227,236,o),
(177,236,cs),
(127,236,o),
(72,200,o),
(49,184,cs),
(42,179,o),
(40,172,o),
(43,164,cs)
);
}
);
width = 560;
}
);
unicode = 8776;
},
{
glyphname = asciitilde;
lastChange = "2024-12-23 17:46:56 +0000";
layers = (
{
layerId = "AEDC8BCA-1602-4327-8A1C-D108A778CE54";
name = Regular;
shapes = (
{
closed = 1;
nodes = (
(65,221,l),
(68,211,o),
(75,209,o),
(84,214,cs),
(105,226,o),
(144,245,o),
(179,245,cs),
(229,245,o),
(273,215,o),
(273,215,cs),
(273,215,o),
(317,190,o),
(367,190,cs),
(417,190,o),
(472,226,o),
(495,242,cs),
(502,247,o),
(504,254,o),
(501,262,cs),
(495,279,l),
(491,289,o),
(484,291,o),
(475,286,cs),
(454,274,o),
(416,255,o),
(381,255,cs),
(331,255,o),
(287,285,o),
(287,285,cs),
(287,285,o),
(242,310,o),
(192,310,cs),
(142,310,o),
(87,274,o),
(65,258,cs),
(58,253,o),
(56,246,o),
(59,238,cs)
);
}
);
width = 560;
}
);
unicode = 126;
},
{
glyphname = logicalnot;
lastChange = "2024-12-23 17:47:02 +0000";
layers = (
{
layerId = "AEDC8BCA-1602-4327-8A1C-D108A778CE54";
name = Regular;
shapes = (
{
closed = 1;
nodes = (
(76,239,ls),
(74,229,o),
(79,223,o),
(90,223,cs),
(418,223,l),
(398,129,ls),
(396,119,o),
(401,113,o),
(412,113,cs),
(436,113,ls),
(446,113,o),
(451,117,o),
(453,126,cs),
(484,272,ls),
(486,282,o),
(481,288,o),
(470,288,cs),
(101,288,ls),
(91,288,o),
(86,284,o),
(84,275,cs)
);
}
);
width = 560;
}
);
unicode = 172;
},
{
glyphname = asciicircum;
layers = (
{
layerId = "AEDC8BCA-1602-4327-8A1C-D108A778CE54";
name = Regular;
shapes = (
{
closed = 1;
nodes = (
(226,500,l),
(156,500,l),
(361,800,l),
(430,800,l),
(507,500,l),
(436,500,l),
(384,697,ls),
(381,709,o),
(372,711,o),
(364,700,cs)
);
}
);
width = 451;
}
);
unicode = 94;
},
{
glyphname = percent;
layers = (
{
layerId = "AEDC8BCA-1602-4327-8A1C-D108A778CE54";
name = Regular;
shapes = (
{
closed = 1;
nodes = (
(190,10,l),
(183,2,o),
(184,-5,o),
(192,-11,cs),
(213,-27,ls),
(221,-33,o),
(228,-32,o),
(234,-24,cs),
(777,652,l),
(784,660,o),
(783,667,o),
(775,673,cs),
(754,689,ls),
(746,695,o),
(739,694,o),
(733,686,cs)
);
},
{
closed = 1;
nodes = (
(149,419,o),
(172,325,o),
(280,325,cs),
(388,325,o),
(451,419,o),
(469,507,cs),
(488,595,o),
(464,685,o),
(356,685,cs),
(248,685,o),
(186,595,o),
(167,507,cs)
);
},
{
closed = 1;
nodes = (
(255,565,o),
(284,633,o),
(345,633,cs),
(404,633,o),
(407,565,o),
(394,507,cs),
(382,448,o),
(350,377,o),
(290,377,cs),
(230,377,o),
(230,448,o),
(242,507,cs)
);
},
{
closed = 1;
nodes = (
(482,84,o),
(505,-10,o),
(613,-10,cs),
(721,-10,o),
(784,84,o),
(803,172,cs),
(822,260,o),
(798,350,o),
(690,350,cs),
(582,350,o),
(520,260,o),
(501,172,cs)
);
},
{
closed = 1;
nodes = (
(588,230,o),
(618,298,o),
(679,298,cs),
(738,298,o),
(740,230,o),
(728,172,cs),
(716,113,o),
(683,42,o),
(623,42,cs),
(563,42,o),
(564,113,o),
(576,172,cs)
);
}
);
width = 827;
}
);
unicode = 37;
},
{
glyphname = perthousand;
layers = (
{
layerId = "AEDC8BCA-1602-4327-8A1C-D108A778CE54";
name = Regular;
shapes = (
{
closed = 1;
nodes = (
(220,10,l),
(213,2,o),
(214,-5,o),
(222,-11,cs),
(243,-27,ls),
(251,-33,o),
(258,-32,o),
(264,-24,cs),
(807,652,l),
(814,660,o),
(813,667,o),
(805,673,cs),
(784,689,ls),
(776,695,o),
(769,694,o),
(763,686,cs)
);
},
{
closed = 1;
nodes = (
(179,419,o),
(202,325,o),
(310,325,cs),
(418,325,o),
(481,419,o),
(499,507,cs),
(518,595,o),
(494,685,o),
(386,685,cs),
(278,685,o),
(216,595,o),
(197,507,cs)
);
},
{
closed = 1;
nodes = (
(285,565,o),
(314,633,o),
(375,633,cs),
(434,633,o),
(437,565,o),
(424,507,cs),
(412,448,o),
(380,377,o),
(320,377,cs),
(260,377,o),
(260,448,o),
(272,507,cs)
);
},
{
closed = 1;
nodes = (
(512,84,o),
(535,-10,o),
(643,-10,cs),
(751,-10,o),
(814,84,o),
(833,172,cs),
(852,260,o),
(828,350,o),
(720,350,cs),
(612,350,o),
(550,260,o),
(531,172,cs)
);
},
{
closed = 1;
nodes = (
(854,84,o),
(877,-10,o),
(985,-10,cs),
(1093,-10,o),
(1156,84,o),
(1175,172,cs),
(1194,260,o),
(1170,350,o),
(1062,350,cs),
(954,350,o),
(892,260,o),
(873,172,cs)
);
},
{
closed = 1;
nodes = (
(618,230,o),
(648,298,o),
(709,298,cs),
(768,298,o),
(770,230,o),
(758,172,cs),
(746,113,o),
(713,42,o),
(653,42,cs),
(593,42,o),
(594,113,o),
(606,172,cs)
);
},
{
closed = 1;
nodes = (
(960,230,o),
(990,298,o),
(1051,298,cs),
(1110,298,o),
(1112,230,o),
(1100,172,cs),
(1088,113,o),
(1055,42,o),
(995,42,cs),
(935,42,o),
(936,113,o),
(948,172,cs)
);
}
);
width = 1179;
}
);
unicode = 8240;
},
{
glyphname = dieresiscomb;
lastChange = "2024-12-23 17:58:31 +0000";
layers = (
{
anchors = (
{
name = _top;
pos = (303,500);
},
{
name = top;
pos = (345,700);
}
);
layerId = "AEDC8BCA-1602-4327-8A1C-D108A778CE54";
name = Regular;
shapes = (
{
closed = 1;
nodes = (
(210,626,o),
(226,605,o),
(252,605,cs),
(278,605,o),
(305,626,o),
(310,652,c),
(316,678,o),
(298,700,o),
(272,700,cs),
(246,700,o),
(221,678,o),
(215,652,c)
);
},
{
closed = 1;
nodes = (
(355,626,o),
(371,605,o),
(397,605,cs),
(423,605,o),
(450,626,o),
(455,652,c),
(461,678,o),
(443,700,o),
(417,700,cs),
(391,700,o),
(366,678,o),
(360,652,c)
);
}
);
width = 500;
}
);
unicode = 776;
},
{
glyphname = dotaccentcomb;
lastChange = "2024-12-23 17:59:23 +0000";
layers = (
{
anchors = (
{
name = _top;
pos = (303,500);
},
{
name = top;
pos = (347,706);
}
);
layerId = "AEDC8BCA-1602-4327-8A1C-D108A778CE54";
name = Regular;
shapes = (
{
closed = 1;
nodes = (
(292,684,o),
(320,706,o),
(347,706,cs),
(375,706,o),
(392,684,o),
(386,656,cs),
(380,629,o),
(353,606,o),
(325,606,cs),
(298,606,o),
(280,629,o),
(286,656,cs)
);
}
);
width = 500;
}
);
unicode = 775;
},
{
glyphname = gravecomb;
lastChange = "2024-12-23 18:00:06 +0000";
layers = (
{
anchors = (
{
name = _top;
pos = (303,500);
},
{
name = top;
pos = (353,735);
}
);
layerId = "AEDC8BCA-1602-4327-8A1C-D108A778CE54";
name = Regular;
shapes = (
{
closed = 1;
nodes = (
(377,583,ls),
(385,578,o),
(392,579,o),
(398,586,c),
(424,620,ls),
(430,628,o),
(429,635,o),
(421,641,cs),
(300,731,ls),
(292,737,o),
(285,736,o),
(279,728,cs),
(247,687,l),
(240,679,o),
(242,672,o),
(250,666,c)
);
}
);
width = 500;
}
);
unicode = 768;
},
{
glyphname = acutecomb;
lastChange = "2024-12-23 18:00:46 +0000";
layers = (
{
anchors = (
{
name = _top;
pos = (303,500);
},
{
name = top;
pos = (353,734);
}
);
layerId = "AEDC8BCA-1602-4327-8A1C-D108A778CE54";
name = Regular;
shapes = (
{
closed = 1;
nodes = (
(430,669,l),
(439,673,o),
(441,680,o),
(438,688,cs),
(425,724,l),
(422,734,o),
(415,737,o),
(406,732,cs),
(241,639,l),
(233,634,o),
(231,628,o),
(234,619,c),
(244,594,l),
(248,585,o),
(255,582,o),
(264,587,c)
);
}
);
width = 500;
}
);
unicode = 769;
},
{
glyphname = hungarumlautcomb;
lastChange = "2024-12-23 20:26:04 +0000";
layers = (
{
anchors = (
{
name = _top;
pos = (233,500);
},
{
name = top;
pos = (275,700);
}
);
layerId = "AEDC8BCA-1602-4327-8A1C-D108A778CE54";
name = Regular;
shapes = (
{
closed = 1;
nodes = (
(142,518,ls),
(135,508,o),
(139,500,o),
(151,500,cs),
(173,500,ls),
(181,500,o),
(186,503,o),
(191,509,cs),
(327,682,l),
(334,692,o),
(330,700,o),
(318,700,cs),
(283,700,ls),
(274,700,o),
(269,697,o),
(264,691,c)
);
},
{
closed = 1;
nodes = (
(267,518,ls),
(260,508,o),
(264,500,o),
(276,500,cs),
(298,500,ls),
(306,500,o),
(311,503,o),
(316,509,cs),
(452,682,l),
(459,692,o),
(455,700,o),
(443,700,cs),
(408,700,ls),
(399,700,o),
(394,697,o),
(389,691,c)
);
}
);
width = 445;
}
);
unicode = 779;
},
{
glyphname = caroncomb.alt;
lastChange = "2024-12-23 19:49:26 +0000";
layers = (
{
anchors = (
{
name = _topright;
pos = (198,700);
}
);
layerId = "AEDC8BCA-1602-4327-8A1C-D108A778CE54";
shapes = (
{
closed = 1;
nodes = (
(187,515,ls),
(185,506,o),
(191,500,o),
(200,500,cs),
(210,500,ls),
(219,500,o),
(227,506,o),
(229,515,cs),
(273,685,ls),
(275,695,o),
(273,700,o),
(263,700,cs),
(233,700,ls),
(223,700,o),
(217,695,o),
(215,685,cs)
);
}
);
width = 198;
},
{
associatedMasterId = "AEDC8BCA-1602-4327-8A1C-D108A778CE54";
layerId = m002;
name = Black;
shapes = (
{
closed = 1;
nodes = (
(45,440,l),
(145,440,l),
(165,700,l),
(25,700,l)
);
}
);
width = 190;
}
);
metricLeft = "=i";
metricRight = "=i";
},
{
glyphname = circumflexcomb;
lastChange = "2024-12-23 18:02:02 +0000";
layers = (
{
anchors = (
{
name = _top;
pos = (304,500);
},
{
name = top;
pos = (351,721);
}
);
layerId = "AEDC8BCA-1602-4327-8A1C-D108A778CE54";
name = Regular;
shapes = (
{
closed = 1;
nodes = (
(169,569,ls),
(173,560,o),
(180,558,o),
(189,562,c),
(334,640,l),
(443,563,l),
(451,558,o),
(458,559,o),
(464,566,cs),
(485,589,ls),
(491,596,o),
(491,603,o),
(484,610,c),
(362,716,ls),
(355,722,o),
(348,723,o),
(341,718,c),
(167,607,l),
(159,603,o),
(157,596,o),
(161,587,cs)
);
}
);
width = 500;
}
);
unicode = 770;
},
{
glyphname = caroncomb;
lastChange = "2024-12-23 18:03:00 +0000";
layers = (
{
anchors = (
{
name = _top;
pos = (303,500);
},
{
name = top;
pos = (344,695);
}
);
layerId = "AEDC8BCA-1602-4327-8A1C-D108A778CE54";
name = Regular;
shapes = (
{
closed = 1;
nodes = (
(229,675,ls),
(222,668,o),
(221,661,o),
(228,654,c),
(304,566,l),
(311,559,o),
(318,558,o),
(326,564,cs),
(446,656,ls),
(454,662,o),
(455,669,o),
(450,677,c),
(443,687,l),
(438,696,o),
(431,697,o),
(422,692,c),
(330,630,l),
(266,690,ls),
(259,697,o),
(251,697,o),
(244,690,cs)
);
}
);
width = 500;
}
);
unicode = 780;
},
{
glyphname = brevecomb;
lastChange = "2024-12-23 18:03:43 +0000";
layers = (
{
anchors = (
{
name = _top;
pos = (303,500);
},
{
name = top;
pos = (346,700);
}
);
layerId = "AEDC8BCA-1602-4327-8A1C-D108A778CE54";
name = Regular;
shapes = (
{
closed = 1;
nodes = (
(197,700,ls),
(188,700,o),
(182,695,o),
(181,686,cs),
(170,603,o),
(226,538,o),
(311,538,cs),
(395,538,o),
(478,601,o),
(504,683,c),
(507,694,o),
(501,700,o),
(491,700,cs),
(456,700,ls),
(447,700,o),
(442,696,o),
(440,687,c),
(423,639,o),
(375,603,o),
(325,603,cs),
(276,603,o),
(244,638,o),
(246,684,c),
(246,694,o),
(242,700,o),
(232,700,cs)
);
}
);
width = 500;
}
);
unicode = 774;
},
{
glyphname = ringcomb;
lastChange = "2024-12-23 18:04:20 +0000";
layers = (
{
anchors = (
{
name = _top;
pos = (303,500);
},
{
name = top;
pos = (349,715);
}
);
layerId = "AEDC8BCA-1602-4327-8A1C-D108A778CE54";
name = Regular;
shapes = (
{
closed = 1;
nodes = (
(249,599,o),
(276,565,o),
(317,565,cs),
(358,565,o),
(399,599,o),
(408,640,cs),
(416,681,o),
(389,715,o),
(348,715,cs),
(307,715,o),
(266,681,o),
(258,640,cs)
);
},
{
closed = 1;
nodes = (
(302,659,o),
(321,675,o),
(340,675,cs),
(359,675,o),
(372,659,o),
(368,640,c),
(363,621,o),
(344,605,o),
(325,605,cs),
(306,605,o),
(293,621,o),
(298,640,c)
);
}
);
width = 500;
}
);
unicode = 778;
},
{
glyphname = tildecomb;
lastChange = "2024-12-23 18:05:05 +0000";
layers = (
{
anchors = (
{
name = _top;
pos = (302,500);
},
{
name = top;
pos = (346,706);
}
);
layerId = "AEDC8BCA-1602-4327-8A1C-D108A778CE54";
name = Regular;
shapes = (
{
closed = 1;
nodes = (
(175,612,l),
(181,604,o),
(188,603,o),
(196,609,c),
(213,620,o),
(242,638,o),
(264,638,cs),
(330,638,o),
(318,583,o),
(386,583,cs),
(426,583,o),
(477,622,o),
(499,641,c),
(506,648,o),
(507,655,o),
(501,662,cs),
(489,677,ls),
(483,684,o),
(476,685,o),
(468,679,cs),
(453,668,o),
(424,651,o),
(401,651,cs),
(333,651,o),
(344,706,o),
(279,706,cs),
(238,706,o),
(188,667,o),
(167,648,cs),
(160,642,o),
(160,635,o),
(165,627,cs)
);
}
);
width = 500;
}
);
unicode = 771;
},
{
glyphname = macroncomb;
lastChange = "2024-12-23 18:05:44 +0000";
layers = (
{
anchors = (
{
name = _top;
pos = (318,500);
},
{
name = top;
pos = (361,700);
}
);
layerId = "AEDC8BCA-1602-4327-8A1C-D108A778CE54";
name = Regular;
shapes = (
{
closed = 1;
nodes = (
(150,651,ls),
(148,641,o),
(153,635,o),
(164,635,cs),
(533,635,ls),
(542,635,o),
(548,639,o),
(550,648,cs),
(557,684,l),
(560,694,o),
(555,700,o),
(544,700,cs),
(175,700,ls),
(165,700,o),
(160,696,o),
(158,687,cs)
);
}
);
width = 530;
}
);
unicode = 772;
},
{
glyphname = commaturnedabovecomb;
lastChange = "2024-12-23 20:07:19 +0000";
layers = (
{
anchors = (
{
name = _top;
pos = (225,500);
},
{
name = top;
pos = (286,785);
}
);
layerId = "AEDC8BCA-1602-4327-8A1C-D108A778CE54";
shapes = (
{
closed = 1;
nodes = (
(309,672,o),
(282,672,o),
(288,701,cs),
(293,724,o),
(321,739,o),
(333,755,cs),
(340,764,o),
(340,771,o),
(333,776,c),
(321,783,ls),
(315,787,o),
(308,786,o),
(301,780,cs),
(259,745,o),
(211,684,o),
(206,636,cs),
(203,610,o),
(218,588,o),
(244,588,cs),
(270,588,o),
(295,610,o),
(301,636,cs)
);
}
);
width = 352;
},
{
anchors = (
{
name = _top;
pos = (146,500);
},
{
name = top;
pos = (146,882);
}
);
associatedMasterId = "AEDC8BCA-1602-4327-8A1C-D108A778CE54";
layerId = m002;
name = Black;
shapes = (
{
closed = 1;
nodes = (
(109,677,o),
(55,632,o),
(43,577,cs),
(32,522,o),
(67,477,o),
(122,477,cs),
(177,477,o),
(232,522,o),
(243,577,c),
(255,632,o),
(219,677,o),
(164,677,cs)
);
},
{
closed = 1;
nodes = (
(198,882,l),
(86,800,o),
(-37,597,o),
(61,502,c),
(164,677,l),
(176,732,o),
(224,782,o),
(266,815,c)
);
}
);
width = 291;
}
);
metricLeft = "=i";
metricRight = "=|";
unicode = 786;
},
{
glyphname = commaaccentcomb;
lastChange = "2024-12-23 19:58:17 +0000";
layers = (
{
anchors = (
{
name = _bottom;
pos = (127,0);
},
{
name = bottom;
pos = (74,-247);
}
);
layerId = "AEDC8BCA-1602-4327-8A1C-D108A778CE54";
shapes = (
{
closed = 1;
nodes = (
(51,-134,o),
(78,-134,o),
(72,-163,cs),
(67,-186,o),
(39,-201,o),
(27,-217,cs),
(20,-226,o),
(20,-233,o),
(27,-238,c),
(39,-245,ls),
(45,-249,o),
(52,-248,o),
(59,-242,cs),
(101,-207,o),
(149,-146,o),
(154,-98,cs),
(157,-72,o),
(142,-50,o),
(116,-50,cs),
(90,-50,o),
(65,-72,o),
(59,-98,cs)
);
}
);
width = 351;
},
{
anchors = (
{
name = _bottom;
pos = (138,0);
},
{
name = bottom;
pos = (138,-430);
}
);
associatedMasterId = "AEDC8BCA-1602-4327-8A1C-D108A778CE54";
layerId = m002;
name = Black;
shapes = (
{
closed = 1;
nodes = (
(180,-225,o),
(225,-180,o),
(225,-125,cs),
(225,-70,o),
(180,-25,o),
(125,-25,cs),
(70,-25,o),
(25,-70,o),
(25,-125,c),
(25,-180,o),
(70,-225,o),
(125,-225,cs)
);
},
{
closed = 1;
nodes = (
(135,-430,l),
(230,-348,o),
(309,-145,o),
(191,-50,c),
(125,-225,l),
(125,-280,o),
(88,-330,o),
(53,-363,c)
);
}
);
width = 275;
}
);
metricLeft = "=i";
metricRight = "=|";
unicode = 806;
},
{
glyphname = cedillacomb;
lastChange = "2024-12-23 19:54:25 +0000";
layers = (
{
anchors = (
{
name = _bottom;
pos = (165,0);
},
{
name = bottom;
pos = (150,-150);
}
);
layerId = "AEDC8BCA-1602-4327-8A1C-D108A778CE54";
name = Regular;
shapes = (
{
closed = 1;
nodes = (
(154,-70,ls),
(171,-70,o),
(180,-77,o),
(177,-90,c),
(175,-103,o),
(162,-111,o),
(145,-111,cs),
(139,-111,o),
(131,-110,o),
(124,-108,c),
(116,-107,o),
(110,-107,o),
(104,-115,cs),
(99,-122,ls),
(93,-130,o),
(95,-138,o),
(104,-142,c),
(114,-147,o),
(126,-150,o),
(137,-150,cs),
(179,-150,o),
(214,-130,o),
(222,-90,cs),
(230,-53,o),
(203,-36,o),
(178,-36,c),
(182,-17,l),
(185,-6,o),
(180,0,o),
(169,0,cs),
(160,0,ls),
(150,0,o),
(145,-4,o),
(143,-13,cs),
(134,-56,ls),
(132,-67,o),
(137,-71,o),
(148,-70,c)
);
}
);
width = 470;
}
);
unicode = 807;
},
{
glyphname = ogonekcomb;
lastChange = "2024-12-23 19:40:05 +0000";
layers = (
{
anchors = (
{
name = _ogonek;
pos = (217,0);
}
);
layerId = "AEDC8BCA-1602-4327-8A1C-D108A778CE54";
name = Regular;
shapes = (
{
closed = 1;
nodes = (
(177,0,ls),
(152,0,o),
(115,-28,o),
(107,-65,cs),
(95,-120,o),
(120,-150,o),
(162,-150,cs),
(180,-150,o),
(204,-141,o),
(215,-135,c),
(205,-104,l),
(187,-113,o),
(143,-107,o),
(152,-65,cs),
(166,0,o),
(217,0,o),
(217,0,cs)
);
}
);
width = 470;
}
);
unicode = 808;
},
{
glyphname = macronbelowcomb;
lastChange = "2024-12-23 20:09:17 +0000";
layers = (
{
anchors = (
{
name = _bottom;
pos = (281,0);
},
{
name = bottom;
pos = (248,-155);
}
);
layerId = "AEDC8BCA-1602-4327-8A1C-D108A778CE54";
shapes = (
{
closed = 1;
nodes = (
(113,-140,ls),
(111,-149,o),
(116,-155,o),
(125,-155,cs),
(370,-155,ls),
(379,-155,o),
(386,-149,o),
(388,-140,cs),
(394,-115,ls),
(395,-106,o),
(391,-100,o),
(382,-100,cs),
(137,-100,ls),
(128,-100,o),
(120,-106,o),
(119,-115,cs)
);
}
);
width = 668;
},
{
anchors = (
{
name = _bottom;
pos = (248,0);
},
{
name = bottom;
pos = (248,-185);
}
);
associatedMasterId = "AEDC8BCA-1602-4327-8A1C-D108A778CE54";
layerId = m002;
name = Black;
shapes = (
{
closed = 1;
nodes = (
(110,-185,l),
(385,-185,l),
(385,-70,l),
(110,-70,l)
);
}
);
width = 495;
}
);
metricRight = "=|";
unicode = 817;
},
{
glyphname = strokeshortcomb;
lastChange = "2024-12-23 19:49:43 +0000";
layers = (
{
anchors = (
{
name = _center;
pos = (248,250);
}
);
layerId = "AEDC8BCA-1602-4327-8A1C-D108A778CE54";
shapes = (
{
closed = 1;
nodes = (
(352,220,ls),
(361,220,o),
(368,226,o),
(370,235,cs),
(377,265,ls),
(378,274,o),
(374,280,o),
(365,280,cs),
(145,280,ls),
(136,280,o),
(128,274,o),
(127,265,cs),
(120,235,ls),
(118,226,o),
(123,220,o),
(132,220,cs)
);
}
);
width = 391;
},
{
anchors = (
{
name = _center;
pos = (200,250);
}
);
associatedMasterId = "AEDC8BCA-1602-4327-8A1C-D108A778CE54";
layerId = m002;
name = Black;
shapes = (
{
closed = 1;
nodes = (
(375,190,l),
(375,310,l),
(25,310,l),
(25,190,l)
);
}
);
width = 400;
}
);
metricLeft = "=i";
metricRight = "=i";
unicode = 821;
},
{
glyphname = dieresis;
layers = (
{
layerId = "AEDC8BCA-1602-4327-8A1C-D108A778CE54";
name = Regular;
shapes = (
{
closed = 1;
nodes = (
(263,626,o),
(279,605,o),
(305,605,cs),
(331,605,o),
(358,626,o),
(363,652,c),
(369,678,o),
(351,700,o),
(325,700,cs),
(299,700,o),
(274,678,o),
(268,652,c)
);
},
{
closed = 1;
nodes = (
(408,626,o),
(424,605,o),
(450,605,cs),
(476,605,o),
(503,626,o),
(508,652,c),
(514,678,o),
(496,700,o),
(470,700,cs),
(444,700,o),
(419,678,o),
(413,652,c)
);
}
);
width = 500;
}
);
unicode = 168;
},
{
glyphname = dotaccent;
layers = (
{
layerId = "AEDC8BCA-1602-4327-8A1C-D108A778CE54";
name = Regular;
shapes = (
{
closed = 1;
nodes = (
(345,684,o),
(373,706,o),
(400,706,cs),
(428,706,o),
(445,684,o),
(439,656,cs),
(433,629,o),
(406,606,o),
(378,606,cs),
(351,606,o),
(333,629,o),
(339,656,cs)
);
}
);
width = 500;
}
);
unicode = 729;
},
{
glyphname = grave;
layers = (
{
layerId = "AEDC8BCA-1602-4327-8A1C-D108A778CE54";
name = Regular;
shapes = (
{
closed = 1;
nodes = (
(430,583,ls),
(438,578,o),
(445,579,o),
(451,586,c),
(477,620,ls),
(483,628,o),
(482,635,o),
(474,641,cs),
(353,731,ls),
(345,737,o),
(338,736,o),
(332,728,cs),
(300,687,l),
(293,679,o),
(295,672,o),
(303,666,c)
);
}
);
width = 500;
}
);
unicode = 96;
},
{
glyphname = acute;
layers = (
{
layerId = "AEDC8BCA-1602-4327-8A1C-D108A778CE54";
name = Regular;
shapes = (
{
closed = 1;
nodes = (
(483,669,l),
(492,673,o),
(494,680,o),
(491,688,cs),
(478,724,l),
(475,734,o),
(468,737,o),
(459,732,cs),
(294,639,l),
(286,634,o),
(284,628,o),
(287,619,c),
(297,594,l),
(301,585,o),
(308,582,o),
(317,587,c)
);
}
);
width = 500;
}
);
unicode = 180;
},
